<svg width="75" height="192" viewBox="0 0 75 192" fill="none" xmlns="http://www.w3.org/2000/svg">
<path d="M37.3037 142.827C35.4213 143.675 33.6508 144.812 31.9548 146.005C28.1714 148.651 26.5872 152.984 27.9012 157.373C28.3764 158.957 28.1901 160.029 26.8202 160.924C25.5901 161.725 24.9565 162.955 24.621 164.334C24.0805 166.571 24.7701 168.239 26.7177 169.488C27.0904 169.721 27.4911 169.916 27.8546 170.112C27.7893 170.354 27.7987 170.559 27.7055 170.624C25.2267 172.32 24.4346 174.669 24.5371 177.613C24.593 179.086 23.9687 180.595 23.6332 182.077C23.2139 183.941 22.515 185.786 22.4218 187.659C22.2914 190.25 23.7171 191.563 26.3077 191.936C28.2739 192.225 29.9606 191.498 31.5168 190.473C32.4114 189.886 33.2035 189.131 33.9769 188.386C35.3095 187.091 36.7632 186.615 38.599 187.277C45.4389 189.746 49.9863 184.835 50.648 179.617C50.7878 178.545 50.7971 177.455 51.0021 176.402C51.2071 175.358 51.3655 174.203 51.9433 173.364C53.6579 170.867 54.2357 168.351 52.2881 165.08C53.4343 165.574 54.0027 165.816 54.5711 166.058C57.9538 167.503 61.1874 165.592 61.2619 161.93C61.2992 160.188 60.9544 158.398 60.5444 156.693C60.0319 154.54 59.9387 152.472 60.6003 150.328C61.3924 147.784 60.9544 145.296 59.8455 142.92C59.1093 141.345 58.0377 140.078 56.4255 139.314C55.736 138.988 55.065 138.578 54.45 138.13C53.2945 137.301 52.6608 136.127 52.987 134.729C53.7977 131.244 53.1733 128.02 51.3096 124.861C53.6766 125.252 55.8851 125.625 57.842 125.951C58.429 127.675 58.7459 129.539 59.6591 131.048C61.5601 134.189 64.6539 134.254 66.7226 131.216C67.5893 129.939 68.0086 128.281 68.3534 126.734C68.6609 125.327 69.1082 124.478 70.6831 124.096C73.3855 123.444 74.8112 122.009 76.5538 118.999C81.6884 118.775 84.4001 113.874 82.4432 109.41C84.3722 109.056 86.2266 108.702 88.0996 108.395C88.8544 108.264 89.6372 108.301 90.4013 108.171C94.3431 107.491 96.2907 103.493 94.1567 100.101C92.1532 96.9233 89.6465 94.2115 85.3599 93.9693C87.4194 90.2977 87.7921 86.3932 88.2301 82.526C88.5935 79.2924 87.3821 76.4595 85.2854 74.0367C82.6016 70.9522 78.0541 71.502 76.3115 75.2201C75.4449 77.0745 75.0349 79.1339 74.336 81.3704C74.0658 80.8113 73.8794 80.3826 73.6651 79.9726C73.1246 78.9569 72.7239 77.8107 71.997 76.9627C70.6458 75.3785 69.9283 73.6825 69.6673 71.5952C69.3691 69.1257 67.3563 68.3989 65.2224 69.7501C63.5357 70.8124 62.6597 72.3779 62.5572 74.3535C62.4454 76.4409 63.1256 78.2953 64.4209 79.9167C64.8962 80.5131 65.3994 81.0816 66.1915 82.0041C63.8618 82.4421 61.8304 82.8335 59.2864 83.3087C59.3702 82.8148 59.5659 82.3489 59.5007 81.9202C59.1559 79.5626 57.5997 78.0903 55.2328 78.3232C53.1267 78.5282 51.6544 77.9225 50.5362 76.1893C49.6975 74.894 48.3463 74.3162 46.9485 73.8037C45.6066 73.3098 44.2927 72.7134 42.9601 72.1543C43.044 71.5765 43.0253 71.2504 43.1371 70.9988C47.6753 60.9999 45.2152 52.2962 38.3008 44.3661C36.1668 41.9153 33.511 40.2006 30.5663 39.0731C25.5901 37.1628 20.7351 37.9362 16.1038 40.415C15.5633 40.7039 15.0508 41.0393 14.5196 41.3375C14.4637 41.3748 14.3705 41.3375 14.1655 41.3375C11.7892 38.0014 12.0688 34.3765 13.6436 30.8913C14.706 28.5337 16.3367 26.4183 17.7811 24.2378C18.4614 23.2127 19.3187 22.3088 20.0549 21.321C22.692 17.8079 24.0153 13.8941 23.6705 9.44909C23.4282 6.30871 23.1393 3.1497 24.9192 0.205008C24.7794 0.139778 24.6396 0.0652275 24.4999 -3.0832e-06C24.3228 0.149095 24.1178 0.27022 23.978 0.447274C23.7823 0.689559 23.6239 0.950477 23.4841 1.23004C22.2541 3.71812 21.052 6.23418 20.7444 9.02977C20.2878 13.1113 18.1539 16.3822 15.8242 19.5505C13.8673 22.2156 11.696 24.713 9.82298 27.4248C7.09262 31.3945 6.1235 35.8302 6.95286 40.6107C7.1765 41.8966 7.35355 43.2012 7.62379 44.4779C7.80085 45.3352 7.53059 45.8943 6.90624 46.4907C1.42688 51.6812 0.252736 58.2043 1.32438 65.3237C1.7344 68.0541 3.0856 70.449 4.90274 72.4711C8.06176 75.9936 11.6867 78.9383 16.0758 80.8672C20.1015 82.6378 24.2669 82.8241 28.5348 82.1625C28.9915 82.088 29.4294 81.9948 29.914 81.9016C31.144 84.9115 32.4207 87.8469 33.5203 90.8568C33.9583 92.0589 34.0328 93.4101 34.1819 94.7054C34.3031 95.7211 33.9863 96.5225 33.2501 97.3892C32.3368 98.4701 31.7311 99.8773 31.3025 101.247C31.0602 102.03 31.172 103.176 31.5914 103.875C32.3648 105.161 32.1691 106.186 31.3863 107.267C30.4824 108.506 29.8674 109.792 30.8645 111.227C30.5943 111.404 30.4731 111.544 30.3427 111.563C24.8447 112.197 21.6949 118.002 24.0712 123.09C24.4533 123.91 24.9192 124.823 24.9099 125.681C24.8912 127.283 25.3758 128.541 26.7643 129.613C26.2611 130.06 25.8231 130.442 25.3945 130.834C24.8819 131.3 24.3228 131.728 23.8848 132.26C22.6268 133.788 22.1143 135.53 22.9157 137.422C23.7171 139.314 25.4597 139.817 27.2861 139.845C28.2553 139.864 29.2803 139.612 30.2029 139.277C31.4329 138.829 32.5325 138.783 33.7719 139.295C36.0736 140.246 38.394 140.395 40.9007 138.596C39.8943 140.581 39.1115 142.016 37.3037 142.827ZM89.8329 99.5604C91.5382 99.8214 92.3955 100.744 92.4887 102.468C92.5726 104.089 91.6873 105.291 90.0472 105.58C88.9849 105.767 87.8853 105.729 86.8323 105.934C83.9994 106.484 82.1357 104.891 80.272 103.139C81.968 102.701 83.6174 102.309 85.2668 102.328C86.9814 102.356 88.6867 102.775 90.5411 103.046C89.3949 101.471 87.6617 101.508 85.8911 100.921C87.1305 99.6536 88.3792 99.3368 89.8329 99.5604ZM66.9836 79.6092C65.623 78.2673 64.6725 76.7391 64.4582 74.8381C64.2253 72.788 65.4087 71.3902 67.4868 71.1851C67.58 71.3808 67.757 71.5765 67.7664 71.7909C67.8875 74.3069 69.071 76.2638 70.7949 78.0344C71.559 78.8264 72.0995 79.9354 72.4629 80.9977C73.1432 82.9546 72.4816 84.6972 70.5713 86.1043C70.2265 83.2808 68.7448 81.3518 66.9836 79.6092ZM65.2876 88.2383C63.8059 88.4247 62.2497 88.2383 60.7587 87.996C59.5752 87.8096 59.3236 86.9709 59.9666 85.9459C60.6376 84.8742 61.7092 84.5854 62.8927 84.4269C64.2905 84.2406 65.679 83.9331 67.375 83.6255C68.9591 86.0111 68.2789 87.8562 65.2876 88.2383ZM46.7807 76.124C47.5262 76.4595 48.3556 76.9348 48.7936 77.5777C50.3498 79.8329 52.3254 80.8393 55.093 80.5318C56.6678 80.3547 57.3388 81.1841 57.2549 82.7869C57.2269 83.3926 57.0219 83.9983 56.9288 84.604C56.5467 87.12 57.4692 88.6576 59.92 89.2447C61.4856 89.6174 63.1163 89.7106 64.7098 89.925C69.9655 90.6332 76.1625 85.9645 76.9359 80.7927C77.1502 79.3669 77.5789 77.9225 78.1753 76.5993C79.3401 73.9901 81.8189 73.7012 83.7012 75.8258C86.0122 78.4444 86.5807 82.703 85.0431 85.8061C84.2883 87.3157 83.4496 88.0333 81.8002 88.5551C83.2912 83.141 83.021 79.721 80.8684 77.7175C80.2999 78.6587 80.8124 79.5253 81.0174 80.364C81.5859 82.675 81.6045 84.9488 80.7472 87.1759C80.3093 88.3128 79.601 88.9558 78.2591 89.2354C76.8147 89.5336 75.3517 90.2511 74.1683 91.1364C72.9941 92.0123 72.1554 93.3356 71.1117 94.5284C72.5189 95.1993 73.5905 94.519 74.4944 93.5313C75.7058 92.208 77.1782 91.5371 78.9301 91.3321C80.7193 91.1271 82.4991 90.8568 84.484 90.5866C84.1578 91.1643 83.9156 91.8912 83.4403 92.413C79.6197 96.5691 74.6342 98.1067 69.0057 95.6186C68.5212 95.4043 68.018 95.2273 67.5241 95.0316C67.4216 95.2086 67.3284 95.3763 67.2259 95.5534C68.0179 96.215 68.7169 97.091 69.6301 97.501C73.0687 99.0572 76.6191 99.4952 80.067 97.5662C81.8282 96.5878 83.6733 96.2989 85.6022 96.271C87.0839 96.2523 88.3792 96.7089 89.5068 98.2092C87.2516 98.1254 85.537 98.8615 84.3256 100.315C83.6919 101.079 83.0489 101.331 82.2103 101.424C79.0046 101.788 75.9202 101.35 72.9755 99.9798C72.2766 99.6536 71.6149 99.0945 70.3383 99.5511C71.2329 100.185 71.7827 100.744 72.4536 101.005C73.8794 101.555 75.361 101.955 76.8241 102.412C77.4018 102.589 78.1101 102.608 78.5387 102.971C79.9272 104.117 81.2038 105.394 82.6296 106.708C80.5049 107.388 78.3523 107.202 76.7029 105.972C73.8887 103.866 71.2236 101.499 68.7541 99.0013C67.375 97.6035 66.5363 95.6932 65.3621 94.0717C64.8776 93.3915 64.365 92.5062 62.9579 92.8883C64.5887 95.3391 66.3779 97.5383 67.2072 100.269C63.7314 100.949 62.8554 101.545 62.492 103.698C63.2375 103.307 63.7966 102.934 64.4116 102.719C65.4087 102.365 66.4338 101.955 67.4682 101.871C68.9685 101.75 70.0401 102.887 70.0494 104.425C70.0587 105.413 69.9562 106.41 69.9003 107.5C68.7634 107.947 67.7011 108.367 66.6388 108.795C64.7098 109.559 62.7063 110.193 60.8799 111.144C59.92 111.637 59.1746 112.634 58.4943 113.52C58.1681 113.948 58.1215 114.694 59.0627 115.048C61.3271 111.209 65.7163 111.255 69.248 109.494C68.5584 111.032 67.6825 112.355 66.7693 113.66C65.6697 115.225 64.3277 116.669 63.4611 118.356C61.7185 121.757 61.4949 125.345 63.0138 129.007C63.6941 127.162 63.5543 125.187 63.927 123.295C64.3371 121.217 65.0639 119.288 66.3313 117.601C67.5054 116.026 68.7914 114.545 70.1053 112.923C71.6429 114.852 70.6085 117.024 71.6615 118.775C72.0343 118.17 72.3604 117.536 72.2952 116.94C72.1275 115.421 71.792 113.93 71.5218 112.429C71.4193 111.852 71.1677 111.227 71.2795 110.687C71.587 109.131 72.0436 107.602 72.3791 106.326C74.4944 107.276 76.6563 108.217 78.7717 109.243C79.2842 109.494 79.7315 109.979 80.0763 110.445C81.0547 111.768 81.0734 113.156 80.1601 114.526C79.2562 115.896 78.1659 116.921 76.3302 116.269C75.2585 115.887 74.4012 116.176 74.2428 117.34C73.8514 120.313 71.7827 121.45 69.2573 122.046C67.7011 122.41 66.8531 123.332 66.499 124.795C66.2847 125.69 66.2101 126.631 65.9213 127.498C65.6137 128.43 65.2317 129.38 64.6819 130.182C64.0389 131.104 63.0138 131.672 61.8676 131.318C60.7587 130.983 60.5444 129.893 60.4326 128.877C60.358 128.187 60.3487 127.488 60.4046 126.799C60.5537 125.038 60.7867 123.276 60.9358 121.515C61.001 120.676 61.0569 119.81 60.9358 118.981C60.6935 117.387 59.7803 116.772 58.1775 116.968C57.7954 117.014 57.4133 117.182 57.0406 117.163C55.4098 117.079 54.3661 116.045 53.5834 114.768C52.8006 113.492 53.6672 112.607 54.5339 111.787C55.8664 110.519 56.3696 109.056 55.941 107.192C55.4005 104.872 55.6614 104.62 57.9724 103.595C58.6341 103.307 59.5193 102.813 59.6777 102.235C59.9759 101.145 60.7587 100.865 61.5508 100.408C63.3307 99.3741 64.1693 97.7433 63.3493 96.1871C62.5852 94.7334 61.3924 93.4754 60.2648 92.2453C59.9387 91.8912 59.2025 91.9098 58.6527 91.7514C58.5502 91.8725 58.4477 91.9937 58.3452 92.1055C59.0534 93.4008 59.7616 94.7054 60.6469 96.3175C58.2893 95.7212 56.1553 95.3763 54.1798 94.6215C50.7598 93.3169 48.8402 89.4218 49.7068 85.8807C50.4523 87.176 50.5827 88.8999 52.5117 89.4124C51.6264 86.4957 51.1139 83.6721 49.0918 81.5382C47.3492 79.7024 45.4948 77.9691 43.6963 76.1706C43.2117 75.6861 42.4103 75.4344 42.2519 74.4094C43.9199 75.0431 45.3829 75.4997 46.7807 76.124ZM53.7418 103.549C53.5181 104.024 53.3038 104.49 53.0335 105.058C52.139 104.676 51.5239 104.36 50.8716 104.155C50.1448 103.922 49.3713 103.847 48.6538 103.595C47.0976 103.064 46.9205 102.673 47.2746 100.893C49.6136 101.312 52.2135 101.079 53.7418 103.549ZM53.5088 100.679C52.6701 99.7375 51.7103 99.2902 50.4989 99.2436C46.8553 99.0945 47.3585 98.0601 47.051 95.7677C46.846 94.1929 46.4546 92.8044 45.6532 91.4439C45.2804 90.8102 44.9729 89.9809 45.0475 89.2726C45.4016 85.7968 43.8361 83.2062 41.525 80.8579C40.6677 79.9913 39.9409 78.9755 39.2699 77.9505C38.6642 77.0279 39.0463 76.357 39.9315 76.0961C41.087 77.028 42.1307 77.9412 43.2303 78.7612C45.9141 80.7647 46.9858 83.4392 47.0137 86.7659C47.0883 93.5406 51.1419 97.4171 57.9445 97.4451C58.8018 97.4451 59.6684 97.5383 60.5257 97.5942C60.0132 98.3117 59.4448 98.4981 58.9696 98.8243C58.4291 99.197 57.8234 99.6163 57.5158 100.166C56.3417 102.198 55.065 102.44 53.5088 100.679ZM8.01516 72.7041C5.5364 70.1321 3.96155 67.1222 3.44903 63.5625C2.80604 59.0336 4.1293 54.8682 5.89984 50.8239C6.30054 49.9107 7.16718 49.2025 8.06177 48.1029C8.35065 49.2584 8.53701 49.9666 8.71406 50.6748C8.91907 50.6655 9.12408 50.6655 9.3291 50.6562C9.29182 49.3143 9.34773 47.9538 9.20795 46.6212C8.96567 44.4034 8.61156 42.1948 8.28541 39.9863C7.90335 37.4144 8.2202 34.9449 9.05887 32.4848C10.1305 29.3537 11.9756 26.7165 14.1375 24.2937C16.3554 21.8056 18.3309 19.1871 19.8219 16.1958C20.1481 15.5435 20.5767 14.9471 20.9588 14.3228C20.847 16.7922 19.5423 18.6745 18.2098 20.5383C16.4672 22.9798 14.678 25.3933 12.9913 27.8721C11.2487 30.4347 10.4753 33.3048 10.6151 36.3986C10.7921 40.3684 13.215 43.6951 16.7561 44.8134C17.2034 44.9532 17.7159 44.9065 18.2005 44.9438C18.2377 44.8413 18.2657 44.7482 18.303 44.6456C17.6134 44.1424 16.9238 43.6299 16.2342 43.1267C16.4113 42.8751 16.4672 42.7073 16.579 42.6421C24.7142 38.0853 31.3957 40.2938 37.4341 45.8477C40.267 48.457 42.0189 51.9701 43.0999 55.7721C45.56 64.4664 42.4196 74.8474 32.3089 79.3856C30.4265 80.2336 28.4976 80.9697 26.317 80.8765C19.1137 80.5597 13.01 77.8853 8.01516 72.7041ZM35.3281 113.054C32.0293 112.504 31.4422 111.283 33.1196 108.45C33.2407 108.255 33.3339 108.04 33.4551 107.845C34.4056 106.288 34.7317 104.76 33.5855 103.111C32.868 102.076 33.3339 101.117 34.0794 100.11C34.3031 100.418 34.4708 100.567 34.5361 100.763C35.2909 103.008 36.0363 105.263 36.903 107.891C37.7137 105.934 37.4621 104.238 37.1732 102.505C36.8284 100.464 36.3811 98.3956 36.4091 96.3548C36.465 93.1119 35.85 90.0927 34.4149 87.2132C34.0794 86.533 33.8372 85.8061 33.5483 85.0979C35.1977 86.6634 36.2414 88.4712 37.0148 90.512C39.2606 96.448 39.5588 102.691 40.09 108.888C40.3602 112.075 38.4965 113.576 35.3281 113.054ZM28.9169 137.301C28.3764 137.534 27.7148 137.608 27.1184 137.581C24.854 137.469 24.006 135.745 25.3758 133.909C26.0561 132.996 27.0438 132.334 27.8452 131.505C28.395 130.936 28.8517 130.284 29.3921 129.622C28.9728 129.278 28.8237 129.063 28.628 129.017C27.137 128.625 26.8668 127.721 27.0066 126.24C27.1184 125.084 26.8854 123.724 26.345 122.708C25.236 120.649 25.469 118.692 26.2518 116.707C27.2675 114.125 29.2524 113.194 31.8243 114.293C34.4895 115.43 37.0987 115.803 39.9688 114.666C40.1365 116.949 40.6118 119.139 38.981 120.928C38.1237 121.869 37.0521 122.643 36.0084 123.398C34.3963 124.544 32.6909 125.569 31.9548 128.159C34.8995 126.007 37.4714 124.124 40.1272 122.177C40.5839 125.932 40.9845 129.436 41.4318 132.94C41.5903 134.179 41.1802 135.12 40.3509 136.062C38.804 137.832 36.9123 138.196 34.9274 137.329C32.8494 136.416 30.9391 136.416 28.9169 137.301ZM43.2583 128.97C42.7737 124.851 42.401 120.686 42.4382 116.539C42.4848 111.209 42.1028 105.925 41.6462 100.632C41.2827 96.3455 40.0061 92.3385 38.6083 88.3408C38.2542 87.3437 37.6764 86.4025 37.0707 85.5172C35.8779 83.7746 35.0858 81.9016 34.8901 79.6651C35.5145 79.2737 36.1389 78.873 36.6887 78.5282C37.9933 79.9726 39.1674 81.2772 40.3602 82.5632C42.0935 84.4363 43.249 86.4864 42.9974 89.2074C42.9042 90.1393 43.1372 91.3134 43.6683 92.0589C45.4575 94.547 45.0102 97.3799 44.9543 100.064C44.8797 103.605 45.9327 105.245 49.4272 105.785C50.182 105.906 50.9741 105.962 51.673 106.251C53.807 107.146 54.1239 108.572 52.6515 110.361C52.4558 110.603 52.2415 110.817 52.0551 111.06C50.7132 112.821 50.6387 114.591 51.9526 116.371C53.5647 118.543 55.6055 119.903 58.8297 119.251C58.7645 120.341 58.7552 121.18 58.6527 122.018C58.485 123.426 58.1588 123.761 56.7517 123.733C53.5927 123.668 51.0114 122.307 48.7097 120.183C46.7062 118.328 46.1937 116.166 46.408 113.529C46.5664 111.647 46.2962 109.699 46.0073 107.817C45.8862 107.015 45.2338 106.289 44.8238 105.534C44.6281 105.59 44.4325 105.646 44.2368 105.692C44.2275 106.41 44.1715 107.127 44.2088 107.845C44.302 109.755 44.4045 111.675 44.5536 113.585C44.6747 115.113 44.8518 116.632 45.0382 118.16C45.2152 119.605 45.6532 121.059 45.6066 122.494C45.5041 125.802 45.1034 129.091 44.9729 132.399C44.8797 134.701 44.9822 137.003 45.0568 139.304C45.0754 139.742 45.3457 140.18 45.5041 140.618C45.6345 140.59 45.765 140.572 45.9048 140.544C46.5385 135.456 47.1721 130.377 47.8524 124.935C50.0982 127.488 51.0114 130.079 50.4989 133.182C49.8186 137.301 50.8064 139.454 54.5059 141.28C57.432 142.734 58.3545 145.203 58.224 148.12C58.1495 149.974 57.5252 151.801 57.1617 153.599C55.4285 152.761 53.8629 151.931 52.2322 151.251C50.2193 150.412 48.7097 149.126 47.8151 147.104C47.5076 146.396 47.3305 145.501 45.998 145.035C46.1191 146.163 46.0539 147.086 46.3428 147.878C47.1162 149.984 48.5606 151.549 50.6759 152.425C51.7383 152.863 52.8285 153.254 53.8909 153.73C57.4413 155.314 58.895 157.69 58.7459 161.557C58.6527 163.831 57.0126 164.931 54.9532 163.906C53.807 163.337 52.8099 162.461 51.7942 161.651C51.2071 161.175 50.7505 160.486 49.5857 161.157C49.8932 161.846 50.2007 162.499 50.4802 163.17C51.7476 166.179 52.5769 169.133 50.182 172.06C49.0265 173.467 48.719 175.247 48.6072 177.045C48.514 178.536 48.4395 180.046 47.5449 181.816C47.4983 181.052 47.4517 180.745 47.4703 180.446C47.6846 176.812 46.9019 173.411 45.1406 170.224C44.041 168.239 43.454 166.105 43.3888 163.822C43.3515 162.62 43.1651 161.427 42.196 160.029C41.8885 161.036 41.5903 161.651 41.525 162.284C41.2827 164.856 41.5343 167.363 42.7271 169.702C43.3887 171.007 44.0783 172.292 44.7213 173.616C46.0166 176.3 46.6223 179.142 46.408 182.133C46.2682 184.118 45.4668 185.031 43.5192 185.469C41.963 185.823 40.472 185.572 38.9904 185.04C36.7632 184.248 34.7597 184.649 32.9892 186.261C32.0759 187.09 31.1627 187.929 30.1656 188.628C29.0846 189.392 27.8732 189.895 26.4847 189.662C25.1894 189.439 24.621 188.982 24.7142 187.687C24.8074 186.41 25.0962 185.087 25.5808 183.904C26.55 181.518 27.2954 179.132 27.0625 176.514C26.932 174.995 27.603 173.895 28.8051 172.973C29.709 172.274 30.4545 171.37 31.2279 170.522C31.7777 169.916 32.1691 169.078 31.4702 168.481C31.0881 168.155 30.1749 168.211 29.6158 168.416C28.4976 168.826 27.5005 168.928 26.6618 167.969C25.7858 166.962 25.8511 165.741 26.522 164.744C27.193 163.747 28.0969 162.871 29.0194 162.098C30.4638 160.896 31.172 159.526 30.6222 157.644C30.4917 157.196 30.3799 156.749 30.2961 156.292C29.7556 153.506 30.4824 151.027 32.5325 149.126C34.7317 147.086 37.5273 145.949 40.2856 144.458C40.5932 146.974 40.4254 148.837 38.2262 150.31C37.0614 151.093 36.4464 152.742 35.6636 154.056C34.8436 155.435 34.126 156.879 33.3619 158.296C33.1755 158.641 32.9892 158.985 32.7003 159.535C34.3497 159.451 35.0206 158.547 35.589 157.541C36.232 156.404 36.8098 155.221 37.4994 154.112C37.9933 153.301 38.4033 152.341 39.5588 152.136C40.1831 153.413 40.09 154.615 39.5681 155.78C38.8506 157.392 38.1703 159.041 37.313 160.579C35.6636 163.533 35.0952 166.58 35.8313 169.916C36.4277 172.609 35.7009 175.107 34.1167 177.353C33.716 177.921 33.3339 178.508 32.8866 179.03C31.5447 180.614 30.1563 182.161 28.8051 183.745C27.985 184.705 27.2395 185.721 27.9198 187.547C30.3893 184.919 32.6723 182.562 34.8622 180.129C37.8348 176.821 38.9717 172.973 37.9933 168.574C37.5366 166.534 37.9001 164.614 38.8226 162.75C39.7545 160.896 40.7236 159.041 41.4598 157.112C41.9071 155.929 42.3078 154.522 42.1028 153.32C41.5343 150.049 41.8698 146.89 42.5594 143.703C43.6124 138.811 43.8454 133.928 43.2583 128.97Z" fill="#E6E6E6"/>
<path d="M7.04605 57.7851C8.89115 60.1241 13.2895 59.8818 15.498 57.459C12.7118 58.2511 9.89756 58.4281 7.04605 57.7851Z" fill="#E6E6E6"/>
<path d="M20.8101 76.4118C20.7914 76.2534 20.7635 76.1043 20.7448 75.9459C19.4775 75.8341 18.2195 75.7223 16.7192 75.5918C17.1478 77.3903 18.3779 77.1294 19.4029 77.2226C19.5334 77.1853 19.6639 77.1666 19.7943 77.1573C20.1298 76.9057 20.4653 76.6541 20.8101 76.4118Z" fill="#E6E6E6"/>
<path d="M23.4282 77.7355C22.2168 77.5398 20.9961 77.3441 19.7846 77.1484C19.6542 77.1578 19.5237 77.1857 19.3933 77.2137C19.4864 77.5491 19.4771 78.071 19.6821 78.1828C20.9495 78.8351 22.1982 78.5556 23.4189 78.2481C23.4282 78.0803 23.4282 77.9126 23.4282 77.7355Z" fill="#E6E6E6"/>
<path d="M9.38499 63.124C10.4287 64.177 11.5003 64.1024 13.0752 62.6953C11.7147 62.8537 10.4846 62.9935 9.38499 63.124Z" fill="#E6E6E6"/>
<path d="M13.2988 68.4166C12.0129 68.0811 12.0128 68.0811 10.1957 68.6869C11.7892 69.9356 12.0501 69.8983 13.2988 68.4166Z" fill="#E6E6E6"/>
<path d="M13.2432 65.3984C11.864 65.6873 10.8203 65.911 9.54366 66.1812C11.2024 67.4858 11.7056 67.3833 13.2432 65.3984Z" fill="#E6E6E6"/>
</svg>
