<svg width="162" height="424" viewBox="0 0 162 424" fill="none" xmlns="http://www.w3.org/2000/svg">
<path d="M24.2508 58.3295C24.3146 57.8106 24.3945 57.2918 24.5062 56.781C25.1368 53.7238 26.6693 51.1616 27.8746 48.3359C28.2338 47.4898 27.2281 46.4601 26.4858 47.2663C25.041 48.8228 23.9874 50.7465 23.277 52.8378C20.2837 46.9949 13.5388 42.3334 7.12122 45.0233C6.49862 45.2868 6.1075 45.9253 6.49064 46.5799C9.78724 52.319 15.4066 56.3819 22.0637 57.0444C22.1675 57.0523 22.2473 57.0284 22.3191 56.9965C22.2313 57.659 22.1834 58.3295 22.1435 58.992C10.809 55.1287 -1.06839 62.0651 -2.88831 74.0622C-4.59647 85.3009 4.33548 95.3584 15.3508 96.5477C26.2303 97.7211 36.7986 89.6352 39.4327 79.1867C41.963 69.0654 35.6652 57.228 24.2508 58.3295ZM22.1994 55.9428C21.8083 55.8391 21.4411 55.7193 21.0579 55.5996C20.148 54.3863 18.791 53.4365 17.6496 52.4547C16.2607 51.2574 14.8798 50.068 13.475 48.8947C13.0599 48.5514 12.4692 49.1102 12.8763 49.4933C14.1854 50.7625 15.5104 52.0077 16.8434 53.2609C17.2585 53.652 17.6735 54.075 18.0966 54.4981C14.369 52.8139 11.248 50.2277 9.01299 46.6517C12.0781 45.9573 15.1113 46.9151 17.5538 49.0543C19.7808 50.9939 20.8903 53.5642 22.4628 55.9189C22.4548 55.9748 22.4389 56.0306 22.4309 56.0865C22.375 56.0227 22.3031 55.9668 22.1994 55.9428ZM35.9445 81.717C32.3686 89.8587 23.3169 95.5898 14.3131 93.9934C5.82813 92.4848 -1.12427 84.9497 -0.725162 76.1375C-0.190362 64.4358 11.1043 57.8266 21.8721 60.2611C21.9599 60.2771 22.0318 60.2771 22.1036 60.2691C22.0956 62.2806 22.2952 64.2682 22.7262 66.0561C22.9417 66.9581 24.5142 66.7905 24.3865 65.8326C24.155 64.1245 24.0353 62.4163 24.0752 60.7082C35.745 59.7902 40.0314 72.4258 35.9445 81.717Z" fill="#173B1A"/>
<path d="M20.4513 148.533C22.2074 141.708 23.9953 135.243 22.6943 128.187C22.4947 127.117 21.3772 127.093 20.7307 127.66C20.7546 127.109 20.7147 126.534 20.571 125.936C23.4047 129.113 28.6728 127.181 28.8165 122.823C28.9682 118.329 24.9053 116.517 21.2256 117.195C22.8778 113.053 23.2929 107.649 18.2881 105.853C15.8217 104.967 12.988 106.428 12.11 108.615C10.9446 106.978 9.79521 105.023 7.8396 105.15C4.98999 105.342 3.60909 109.596 2.93061 112.438C0.320469 110.586 -2.96016 109.054 -5.93748 110.866C-8.03677 112.143 -9.05848 114.569 -8.18843 116.748C-9.21014 117.068 -10.1919 117.539 -11.0859 118.161C-12.6664 113.572 -18.3736 112.502 -21.3908 116.493C-22.189 113.396 -25.3739 111.265 -28.8141 111.903C-34.4255 112.941 -36.1896 118.425 -35.7905 123.421C-40.0689 121.538 -45.4328 123.294 -46.247 128.602C-46.3827 129.48 -45.9597 131.276 -45.2572 132.84C-48.3702 132.194 -51.8345 132.705 -53.814 135.427C-55.2987 137.47 -55.4903 140.168 -54.3089 142.267C-56.6078 142.77 -58.8188 143.975 -59.2259 146.514C-59.4973 148.174 -58.8108 149.938 -57.4459 150.704C-59.633 152.78 -60.6946 156.499 -57.9887 158.622C-56.073 160.123 -53.4708 159.684 -52.0021 158.112C-49.0328 162.853 -41.3939 161.552 -40.6915 155.366C-40.468 155.581 -40.2125 155.757 -39.9651 155.94C-40.5877 155.781 -41.2183 156.547 -40.6675 157.13C-30.227 168.145 -17.9665 174.499 -4.38098 180.829C-0.74913 182.521 2.78694 184.429 5.59663 187.358C7.99126 189.848 9.47593 192.977 11.6949 195.603C14.5206 198.94 19.0145 201.933 23.5324 200.201C35.5694 195.587 23.0375 180.142 20.6987 173.772C17.6177 165.367 18.2722 157.034 20.4513 148.533ZM-5.35479 113.117C-3.51891 112.031 -1.81873 111.983 -0.270203 112.973C0.982986 113.492 1.99671 114.282 3.07429 115.088C3.57716 115.463 4.47116 115.08 4.57493 114.474C5.04587 111.808 6.31501 105.837 9.80318 108.367C10.6413 108.974 11.1921 109.868 11.8945 110.626C11.9663 111.057 12.118 111.496 12.3654 111.927C12.8444 112.781 13.914 112.207 13.89 111.392C13.9698 111.289 14.0257 111.161 14.0417 111.033C16.1489 107.33 18.0327 106.851 19.709 109.628C20.3156 110.554 20.5151 111.552 20.3076 112.63C20.3395 114.865 19.4535 116.597 18.3121 118.489C17.7693 119.391 18.8389 120.404 19.7329 119.909C21.7364 118.784 24.7057 118.449 26.2064 120.787C28.0183 123.605 24.1869 127.66 21.4411 124.563C20.9941 124.06 20.4194 124.363 20.2278 124.834C20.116 124.563 19.9963 124.284 19.8447 124.004C19.254 122.903 17.6336 123.868 18.1844 124.978C21.01 130.717 12.9002 134.684 10.0746 128.889C9.6675 128.059 8.2387 128.442 8.30256 129.368C8.56597 132.968 5.18954 134.548 2.61931 133.239C3.80066 131.515 3.67295 128.993 1.51778 127.221C3.14613 125.13 3.20999 121.777 1.25438 119.343C-0.61343 117.012 -3.29541 116.11 -5.96143 116.317L-5.35479 113.117ZM10.8329 149.467C6.2352 155.118 1.61357 145.452 -1.45953 141.349C-0.79702 140.934 -0.222305 140.328 0.200745 139.481C0.982986 137.917 0.863255 136.265 0.0410995 135.003C0.543968 134.884 0.990967 134.676 1.39007 134.421C4.37537 136.704 8.62983 135.379 9.85109 131.906C10.7451 132.808 11.7987 133.327 12.8923 133.543C12.8523 133.615 12.7965 133.67 12.7645 133.758C11.0883 138.563 14.1694 145.372 10.8329 149.467ZM-41.6014 153.969C-42.0085 154.025 -42.3917 154.296 -42.4236 154.815C-42.8147 160.099 -49.6713 160.57 -50.9485 155.549C-51.2518 154.368 -52.7764 154.775 -52.912 155.813C-53.2633 158.543 -57.4299 157.824 -57.6853 155.039C-57.845 153.266 -56.5599 151.822 -55.2827 150.824C-55.0592 150.656 -55.0193 150.433 -55.0832 150.225C-55.0832 149.97 -55.2029 149.73 -55.4823 149.595C-57.0468 148.884 -57.7971 147.144 -56.488 145.54C-55.602 144.446 -53.5666 144.191 -52.3134 144.119C-51.4593 144.071 -50.8207 142.946 -51.5631 142.299C-53.7821 140.351 -53.1675 136.919 -50.8048 135.307C-48.8811 133.99 -46.4386 134.102 -44.2435 134.572C-43.2617 135.85 -42.0724 136.289 -41.0028 134.421C-40.5159 133.559 -41.7691 132.848 -42.3198 133.654C-43.597 133.303 -44.2196 132.497 -44.2036 131.26C-44.6266 130.206 -44.6346 129.137 -44.2196 128.059C-42.6311 124.443 -38.5603 123.294 -35.2637 125.848C-34.5373 126.407 -33.5076 125.912 -33.7072 124.938C-34.3777 121.657 -34.3617 117.906 -31.7037 115.407C-28.1915 112.103 -22.8036 113.923 -22.8675 118.88C-22.8755 119.766 -21.4387 120.013 -21.279 119.095C-21.2152 118.736 -21.1992 118.385 -21.1992 118.042C-21.0875 118.002 -20.9837 117.938 -20.9039 117.818C-17.5434 113.939 -14.7258 114.553 -12.4509 119.662C-12.3631 120.396 -11.5728 120.795 -10.9822 120.269C-9.03453 118.528 -6.59999 117.579 -3.91801 118.161C-3.23156 118.433 -2.53711 118.696 -1.85065 118.967C1.88496 121.29 1.39805 124.1 -3.28743 127.405C-4.42089 127.365 -4.36501 129.017 -3.28743 129.129C-1.89056 129.28 -0.717197 128.985 0.224689 128.41C-0.525627 130.039 -1.26796 131.675 -2.01828 133.303C-3.15972 133.048 -3.51093 134.58 -2.48922 135.011C-0.214329 136.999 -0.621414 138.244 -3.71048 138.755C-5.28295 140.479 -6.90332 140.615 -8.56359 139.146C-9.11435 138.843 -9.86467 139.218 -9.84871 139.881C-9.77687 143.113 -11.932 144.893 -14.2468 144.957C-14.5422 143.951 -15.7155 143.959 -16.2583 144.55C-17.3439 144.079 -18.3337 143.193 -18.9642 141.828C-19.1877 141.341 -19.9381 141.565 -20.0179 142.012C-20.4729 141.605 -21.287 142.076 -20.8959 142.65C-18.0862 146.865 -23.7934 148.765 -26.4674 147.256C-28.5268 146.091 -29.341 143.999 -29.8279 141.788C-29.9556 141.214 -30.9054 141.038 -31.1609 141.613C-32.4619 144.55 -36.2934 146.506 -39.3265 144.606C-42.4316 142.666 -42.0325 138.571 -40.3802 135.897C-40.013 135.299 -40.8431 134.676 -41.338 135.155C-44.2515 137.989 -43.7726 143.201 -40.4839 145.596C-38.2011 147.256 -35.4153 147.104 -33.1803 145.835C-33.1245 145.963 -33.0446 146.083 -32.9169 146.194C-30.7139 148.182 -30.0753 151.798 -32.3103 154.065C-34.5692 156.356 -38.3288 155.773 -40.4121 153.618C-40.8192 153.187 -41.4897 153.506 -41.6014 153.969ZM-31.4802 144.742C-31.528 144.702 -31.5759 144.694 -31.6238 144.67C-31.3445 144.406 -31.0731 144.127 -30.8336 143.824C-29.7241 147.272 -26.8426 150.768 -22.8914 149.635C-20.3531 148.908 -18.637 146.274 -19.1159 143.848C-18.3656 144.917 -17.4077 145.628 -16.3621 146.043C-15.7315 148.358 -15.2206 150.696 -14.9892 153.091C-14.8615 154.408 -14.7896 155.757 -14.8136 157.082C-14.8455 159.453 -14.6539 159.82 -17.0406 161.073C-19.4911 162.358 -19.8582 161.895 -22.1092 160.642C-22.9952 160.147 -23.8493 159.596 -24.6874 159.022C-26.667 157.665 -28.3911 156.108 -30.0913 154.44C-28.1277 151.478 -28.6305 146.993 -31.4802 144.742ZM25.943 192.219C24.2827 194.167 22.6144 196.122 20.9542 198.07C18.9746 197.99 17.2984 197.312 15.9254 196.035C11.5672 192.754 9.61162 187.126 5.33322 183.63C1.27832 180.318 -3.67855 178.434 -8.42789 176.367C-19.8742 171.394 -30.1072 164.553 -39.4303 156.268C-36.9638 157.713 -33.6353 157.665 -31.3524 155.789C-28.0718 159.532 -19.8263 167.411 -14.8854 164.018C-12.85 162.621 -12.5866 160.003 -12.5067 157.736C-12.379 153.913 -12.8819 150.122 -13.8318 146.434C-11.2216 146.274 -8.73919 144.406 -8.23632 141.19C-6.67183 141.86 -4.83596 142.259 -3.2156 141.988C-0.038723 146.434 3.13016 156.435 10.3779 153.067C17.3941 149.81 13.3233 139.952 15.1751 134.413C15.2869 134.086 15.239 133.814 15.1352 133.575C17.4261 133.215 19.5333 131.659 20.3715 129.464C21.9918 141.613 14.7601 152.923 16.0691 165.216C16.5959 170.181 18.0487 174.978 20.3715 179.392C21.6406 181.802 23.3009 184.013 24.4743 186.48C25.1448 187.949 26.3421 190.543 25.943 192.219Z" fill="#173B1A"/>
<path d="M81.2426 146.984C81.2027 146.968 81.1707 146.96 81.1308 146.944C81.2506 144.542 78.6723 142.259 76.8045 141.101C74.4817 139.657 71.7599 139.194 69.1018 139.697C69.3094 139.266 69.5329 138.843 69.7883 138.42C70.6104 137.055 72.7017 135.706 72.8933 134.125C73.1727 131.834 69.932 130.661 68.2318 131.004C65.1826 131.611 63.3467 135.115 62.357 137.757C62.1335 138.356 61.9738 138.946 61.8461 139.537C61.7583 139.505 61.6705 139.465 61.5667 139.465C56.1389 139.106 50.8947 141.732 47.9493 146.242C46.736 146.449 45.5387 146.841 44.3893 147.471C38.7939 150.576 37.4848 156.651 38.7779 162.509C39.8954 167.578 41.9308 172.599 43.5512 177.524C44.8123 181.355 45.6345 185.857 47.654 189.401C49.5776 192.777 54.1035 194.781 56.5221 190.75C56.7456 190.375 56.2267 189.968 55.9154 190.279C50.6632 195.587 47.1511 181.259 46.4407 179.056C45.1795 175.137 43.9104 171.218 42.6652 167.291C41.1087 162.398 39.1451 156.874 42.6093 152.276C46.4088 147.232 52.3235 147.942 56.7216 151.39C56.1708 151.75 55.6281 152.133 55.1332 152.572C52.3075 153.274 51.9324 156.236 51.645 159.037C50.9107 166.189 51.4055 173.469 53.0738 180.469C54.319 185.697 59.3717 201.015 66.5715 191.46C66.6833 191.309 66.779 191.133 66.8828 190.974C67.2659 195.02 72.1989 194.637 74.5935 191.892C77.8821 188.108 79.7419 182.082 81.7774 177.556C83.709 173.245 85.8642 168.815 86.9897 164.21C88.4664 158.159 87.6921 149.962 81.2426 146.984ZM68.9422 141.365C71.3368 141.022 73.7155 141.588 75.7429 142.913C76.7247 143.552 77.6267 144.382 78.3052 145.34C78.5207 145.651 78.6883 145.963 78.8639 146.274C77.0121 145.987 75.1682 146.306 73.5798 147.136C73.5478 147.08 73.5319 147.016 73.484 146.96C71.8955 145.077 69.8681 144.199 67.5772 144.222C67.7848 143.209 68.0642 142.227 68.4154 141.269C68.567 141.349 68.7426 141.397 68.9422 141.365ZM62.5166 146.904C62.9077 146.761 63.227 146.426 63.211 145.987C63.1312 143.025 63.4106 140.184 64.6797 137.47C65.1746 136.416 65.925 134.947 66.787 134.181C68.3036 132.521 69.3732 132.329 69.9798 133.606C70.5625 134.093 70.4508 134.54 69.6446 134.947C68.8943 136.608 67.4815 137.98 66.7311 139.713C65.9808 141.453 65.5179 143.233 65.2385 145.101C65.1108 145.939 65.6935 146.561 66.5476 146.41C68.6947 146.026 70.4348 146.753 71.8317 148.317C71.0175 149.044 70.3311 149.946 69.8362 150.983C66.6753 148.9 62.5006 148.74 58.8608 150.241C58.4537 149.762 58.0067 149.331 57.5438 148.924C59.1961 148.229 60.8404 147.527 62.5166 146.904ZM56.3784 148.046C54.5345 146.817 52.3873 146.13 50.1923 146.066C53.1456 143.057 57.0968 141.477 61.455 141.652C61.3592 142.323 61.2794 142.993 61.1756 143.68C60.9202 145.388 61 145.356 59.7069 146.298C58.7491 147 57.5118 147.519 56.3784 148.046ZM65.7893 187.861C65.462 189.401 64.3605 190.135 62.4927 190.056C60.3854 191.852 58.9965 191.492 58.318 188.97C56.7136 185.937 55.8436 182.113 55.1172 178.793C54.5026 176.023 50.9745 155.669 56.091 154.671C56.7136 154.551 56.9531 153.945 56.8733 153.394C57.3841 153.091 57.9189 152.819 58.4537 152.58C58.8129 152.596 59.1641 152.444 59.3956 152.197C61.5109 151.422 63.7698 151.207 66.0766 151.861C71.4486 153.402 72.574 158.287 72.2707 163.22C71.8556 170.053 69.3333 177.188 67.2739 183.67C66.8668 184.955 66.5715 186.751 65.7893 187.861ZM82.1685 170.476C80.6679 174.107 79.0555 177.699 77.3872 181.259C76.6209 182.904 75.8387 184.54 75.0325 186.16L74.0667 188.108C73.2844 190.423 71.3608 191.101 68.2877 190.127C68.2557 189.8 68.0642 189.585 67.8327 189.497C70.5147 184.684 71.4805 178.17 72.7257 173.102C74.0427 167.754 75.8946 161.264 73.7474 155.876C73.2286 154.575 72.5341 153.49 71.712 152.588C74.5217 144.246 83.6691 150.257 84.9702 155.757C86.1595 160.769 84.0523 165.926 82.1685 170.476Z" fill="#173B1A"/>
<path d="M-22.1171 255.758C-17.3758 253.954 -18.2378 246.922 -23.0909 246.211C-22.0373 244.583 -21.271 242.635 -20.6005 240.744C-19.8183 241.215 -18.8445 241.358 -17.8148 240.959C-16.7212 240.536 -15.8512 239.53 -15.6037 238.381C-15.2525 236.737 -16.4498 235.356 -16.4259 233.743C-16.4259 233.727 -16.4339 233.719 -16.4339 233.703C-16.378 233.616 -16.3221 233.536 -16.2902 233.424C-14.7736 228.347 -5.92944 224.755 -2.21777 221.419C0.687702 218.809 3.12224 215.768 4.32753 212C6.69821 204.593 3.0983 198 -4.08558 195.397C-11.4131 192.747 -19.7065 195.222 -24.3521 201.512C-26.8026 204.824 -27.7844 208.799 -27.9999 212.862C-28.2793 218.178 -25.7889 225.107 -27.1937 230.319C-28.7103 231.875 -31.3683 233.001 -30.4344 235.539C-29.8118 237.231 -28.2074 237.391 -26.7387 236.896C-27.1299 237.726 -27.4891 238.572 -27.8004 239.442C-28.0159 240.041 -28.2873 240.688 -28.4629 241.342C-29.8039 240.472 -31.3364 239.842 -32.9408 240.432C-34.5771 241.031 -35.7026 242.763 -35.7266 244.479C-35.7745 248.287 -32.2943 249.707 -29.1733 249.197C-30.0832 253.212 -26.6669 257.49 -22.1171 255.758ZM-24.6953 237.543C-24.9029 237.024 -24.6554 236.274 -24.5437 235.747C-24.5277 235.667 -24.5277 235.587 -24.5437 235.515C-24.5037 235.475 -24.4638 235.436 -24.4319 235.396C-23.8412 234.709 -24.6953 233.839 -25.4377 234.254C-26.172 234.669 -27.2895 235.843 -28.2154 235.451C-30.0752 234.653 -27.7684 232.849 -27.1378 232.259C-26.9942 232.123 -26.8585 231.979 -26.7387 231.836C-26.6429 231.812 -26.5472 231.756 -26.4594 231.652C-23.2985 227.709 -25.6212 220.717 -25.725 216.103C-25.8368 210.938 -25.1343 205.678 -21.5424 201.703C-17.256 196.946 -10.128 195.286 -4.18137 197.776C8.62988 203.148 1.06286 216.326 -6.60792 222.113C-10.6628 225.179 -16.9527 227.661 -18.2777 233.025C-18.3655 233.368 -18.2777 233.64 -18.1101 233.839C-18.2777 234.957 -17.7988 235.819 -17.4955 236.904C-16.9367 238.908 -18.9003 239.666 -19.9619 238.956C-19.946 238.908 -19.93 238.86 -19.9141 238.82C-19.7464 238.365 -20.2014 237.99 -20.5446 238.109C-20.6005 237.902 -20.6245 237.678 -20.6005 237.415C-20.5047 236.393 -21.7819 235.859 -22.3326 236.816C-22.7317 237.511 -24.0647 239.155 -24.6953 237.543ZM-26.7707 248.167C-26.3636 247.528 -27.1857 246.539 -27.8882 246.89C-29.6123 247.744 -31.967 248.151 -33.2681 246.131C-34.4255 243.513 -33.4996 242.148 -30.4823 242.045C-29.8517 242.26 -29.2291 242.508 -28.6225 242.771C-28.6145 242.819 -28.6225 242.875 -28.6145 242.923C-28.5347 243.505 -27.8403 243.625 -27.5369 243.146C-26.9303 242.204 -26.8665 240.943 -26.5551 239.882C-26.4115 239.379 -26.2359 238.892 -26.0682 238.405C-25.9565 238.932 -25.7011 239.403 -25.2062 239.77C-24.0248 240.624 -22.8914 240.137 -21.9814 239.291C-21.8617 239.514 -21.718 239.722 -21.5663 239.921C-21.9894 240.799 -22.4045 241.677 -22.8355 242.548C-23.4581 243.801 -24.2483 245.014 -24.6794 246.347C-24.7592 246.594 -24.6474 246.81 -24.4718 246.954C-24.5437 247.353 -24.3681 247.776 -23.8173 247.872C-19.922 248.55 -19.6906 253.97 -23.8492 254.337C-27.2496 254.608 -28.3352 250.609 -26.7707 248.167Z" fill="#173B1A"/>
<path d="M63.3547 207.761C59.3157 203.786 53.84 202.757 48.5958 204.64C46.4247 205.423 44.477 206.859 42.1782 207.306C38.6741 207.985 36.0001 206.604 33.0467 205.151C30.1971 203.754 27.6508 202.629 24.442 202.557C23.8433 202.541 23.54 202.98 23.524 203.443C12.5646 205.247 10.625 220.429 16.1167 228.914C23.7076 240.632 40.1428 244.479 52.7145 239.283C64.2566 234.509 74.2263 218.473 63.3547 207.761ZM57.7193 233.887C47.9173 241.342 33.5256 241.103 23.7236 233.759C13.4986 226.096 10.7128 208.089 25.3998 204.569C29.774 205.095 33.1345 208.041 37.373 209.07C40.5898 209.853 43.2637 208.999 46.257 207.793C53.7522 204.776 62.2691 205.463 65.1267 214.53C67.4495 221.922 63.5542 229.449 57.7193 233.887Z" fill="#173B1A"/>
<path d="M57.1127 220.635C56.5859 215.327 51.1022 210.849 45.7622 212.645C45.4748 212.741 45.2992 212.957 45.2194 213.196C40.949 213.34 37.7721 217.267 38.0036 221.713C38.283 227.149 43.4553 231.499 48.8672 230.829C53.84 230.214 57.6076 225.632 57.1127 220.635ZM49.4419 228.602C45.6983 229.551 41.4918 227.045 40.3184 223.405C38.9295 219.095 41.5237 215.12 45.6265 214.29C45.7302 214.338 45.85 214.362 45.9937 214.362C50.2162 214.25 54.1434 215.591 55.0134 220.3C55.7238 224.108 53.1376 227.66 49.4419 228.602Z" fill="#173B1A"/>
<path d="M17.3621 250.124C17.2184 248.999 16.492 247.634 15.3985 247.131C19.6929 238.694 14.7759 226.777 4.03201 227.862C-4.45295 228.724 -11.0302 241.472 -4.71636 248.057C-5.64228 248.552 -6.42452 249.222 -6.60013 250.356C-6.78372 251.505 -6.30479 252.694 -5.39483 253.413C-4.68443 253.972 -3.77447 254.091 -2.92039 253.9C-2.41752 259.28 -1.43572 264.588 -0.358139 269.88C0.647604 274.789 1.2303 280.895 3.48923 285.381C3.60098 285.597 3.91228 285.796 4.15972 285.764C7.66386 285.341 7.95121 279.379 8.72548 276.705C10.8407 269.409 12.3813 262.01 13.5626 254.506C14.3129 254.53 15.0712 254.291 15.7258 253.82C16.8991 252.998 17.5457 251.545 17.3621 250.124ZM9.2523 268.802C8.62969 271.333 7.04924 281.51 4.82224 281.765C2.60322 282.021 -0.861009 259.631 -1.9785 253.549C-1.755 253.421 -1.5315 253.285 -1.34792 253.11C-0.821098 254.147 0.224556 254.985 1.33407 255.249C2.97039 255.64 5.12555 254.866 6.29892 253.477C6.81775 254.291 7.83149 254.802 8.85319 254.674C9.58755 254.586 10.5055 254.019 11.144 253.277C11.3197 253.525 11.5511 253.756 11.8305 253.948C11.9662 254.043 12.1099 254.123 12.2536 254.195C11.4314 259.104 10.4336 263.973 9.2523 268.802ZM15.4624 251.777C15.0952 252.343 14.3688 252.886 13.6823 252.934C12.9161 252.99 11.7666 252.431 11.9502 251.497C11.9822 251.322 11.9183 251.162 11.8145 251.034C11.7906 250.962 11.7666 250.89 11.7347 250.819C11.615 250.579 11.2638 250.491 11.0403 250.635C10.2261 251.146 10.1622 252.319 9.34009 252.902C8.50995 253.493 7.04126 253.125 7.08117 251.96C7.08915 251.928 7.10511 251.904 7.11309 251.88C7.22484 251.282 6.60223 250.962 6.14725 251.322C4.91801 252.287 4.13578 253.66 2.3877 253.756C0.887069 253.844 -0.150605 252.774 -0.501816 251.457C-0.47787 251.194 -0.493835 250.922 -0.565674 250.635C-0.597603 250.523 -0.661457 250.444 -0.725314 250.388C-0.733296 250.38 -0.733293 250.372 -0.741275 250.364C-0.749257 250.356 -0.765222 250.348 -0.773204 250.34C-0.9089 250.22 -1.10845 250.204 -1.25213 250.332C-1.38782 250.388 -1.51554 250.483 -1.56344 250.635C-1.74702 251.17 -2.16209 251.745 -2.66496 252.096C-2.79267 252.112 -2.90442 252.176 -2.97626 252.271C-3.4951 252.511 -4.06182 252.495 -4.57268 251.936C-5.61833 250.771 -4.88398 249.621 -3.91815 248.799C-3.91017 248.807 -3.91017 248.807 -3.90219 248.815C-3.59887 249.063 -3.12792 248.751 -3.33545 248.384C-3.35142 248.36 -3.3594 248.328 -3.37537 248.304C-3.25563 248.049 -3.41527 247.754 -3.67868 247.698C-6.95134 241.112 -5.13941 231.247 3.20985 229.514C13.395 227.399 17.9528 239.245 13.7382 246.907C13.4269 247.474 13.85 247.993 14.3289 248.089C14.8318 248.568 15.3506 248.879 15.6459 249.55C15.9652 250.284 15.9094 251.098 15.4624 251.777Z" fill="#173B1A"/>
<path d="M6.51433 274.558C6.29881 273.561 5.58841 272.619 5.02966 271.773C4.44697 270.895 3.8084 270.064 3.12992 269.258C2.79467 268.867 2.09225 269.394 2.41154 269.817C3.0501 270.671 3.64876 271.557 4.20751 272.467C4.71836 273.305 5.08554 274.279 5.73209 275.021C6.05935 275.397 6.61011 274.981 6.51433 274.558Z" fill="#173B1A"/>
<path d="M7.56019 268.866C6.92961 267.829 6.05956 266.935 5.35714 265.937C4.65472 264.939 3.9922 263.91 3.38556 262.848C3.13014 262.409 2.48358 262.792 2.70708 263.247C3.74475 265.354 4.99794 267.885 6.78593 269.465C7.18503 269.824 7.86351 269.369 7.56019 268.866Z" fill="#173B1A"/>
<path d="M8.93299 262.752C7.91129 260.972 6.56231 259.328 5.34903 257.668C4.98186 257.173 4.15971 257.628 4.51093 258.162C5.66035 259.918 6.76187 261.786 8.10286 263.399C8.486 263.87 9.22035 263.263 8.93299 262.752Z" fill="#173B1A"/>
<path d="M161.071 360.46C160.864 359.542 160.656 358.632 160.433 357.722C160.209 356.788 160.145 355.99 159.315 355.408C158.812 355.048 158.214 355.344 157.926 355.799C145.61 357.076 133.916 354.314 123.34 347.888C117.657 344.44 110.449 335.764 103.233 339.379C101.812 338.39 100.823 337.049 100.384 335.357C100.072 334.175 100.088 332.93 99.298 331.924C98.1326 330.44 95.9136 330.264 94.3092 331.102C89.7674 333.481 92.3536 339.38 95.3309 342.149C95.283 342.237 95.2511 342.341 95.267 342.469C96.3845 355.463 111.223 363.046 122.326 366.327C133.509 369.632 152.299 371.827 160.608 361.466C160.944 361.314 161.183 360.971 161.071 360.46ZM123.851 364.563C112.724 361.458 100.272 354.833 96.8475 343.035C97.494 342.94 98.0288 342.141 97.6138 341.511C96.608 339.97 95.0355 338.789 94.4529 336.985C93.934 335.388 94.8919 331.501 97.2466 333.09C98.1007 333.664 98.0767 334.981 98.3721 335.899C98.5956 336.578 98.9308 337.232 99.3219 337.831C100.016 338.869 100.894 339.707 101.916 340.369C101.693 341.024 102.371 341.79 103.185 341.423C109.818 338.454 115.526 345.582 120.506 348.814C124.154 351.185 128.026 353.181 132.08 354.753C140.35 357.962 149.138 359.207 157.839 357.291C157.966 357.682 158.158 358.066 158.31 358.457C158.533 359.023 158.757 359.59 158.988 360.157C151.078 369.272 134.236 367.468 123.851 364.563Z" fill="#173B1A"/>
<path d="M143.231 361.074C127.634 361.545 113.618 356.157 102.994 344.559C102.714 344.256 102.299 344.695 102.547 345.006C112.309 356.772 127.906 363.58 143.231 361.84C143.71 361.784 143.734 361.058 143.231 361.074Z" fill="#173B1A"/>
<path d="M5.33301 305.247C6.54628 310.459 11.5031 313.98 16.6117 313.125C16.4121 317.723 19.7726 321.467 24.4341 321.73C24.6576 330.079 34.7789 330.175 39.7358 325.067C41.3961 325.857 43.2479 326.208 45.1237 326.064C48.4283 325.809 50.8309 322.616 53.8082 322.584C56.115 322.56 58.2303 324.524 61.024 324.237C67.3458 323.59 70.9697 318.338 71.0256 312.463C73.955 312.255 76.0543 310.819 77.2755 308.903C77.3474 308.895 77.4032 308.911 77.4751 308.895C80.9154 308.025 83.6612 305.654 84.2359 301.966C84.4195 300.793 83.9565 299.867 84.0363 298.742C84.204 296.275 85.1059 296.148 86.407 294.575C87.7081 293.003 89.0411 292.077 89.6957 290.009C90.2544 288.237 90.2464 286.282 89.6877 284.51C89.2646 283.177 87.6522 281.62 87.6203 280.391C87.5884 279.449 89.4163 277.062 89.6318 275.849C90.0469 273.454 89.6158 270.94 88.9054 268.657C87.8518 265.297 85.6886 261.481 82.3042 260.005C80.6759 259.302 79.2152 259.198 77.515 259.733C76.5651 260.037 75.727 261.042 74.8011 261.29C69.9879 262.559 71.728 261.058 69.6047 259.701C62.1734 254.952 53.7523 253.076 46.6403 259.031C43.5672 258.791 42.4976 256.868 40.4861 253.986C40.4701 253.627 40.2546 253.3 39.9114 253.18C39.8954 253.164 39.8874 253.14 39.8715 253.124C39.5602 252.693 38.9535 252.925 38.77 253.324C36.7026 253.93 34.8108 255.263 32.9351 256.285C30.5644 257.57 28.2017 258.863 25.8549 260.18C25.2004 260.547 24.9849 261.625 25.7352 262.048C27.4274 262.99 28.8003 264.283 30.0535 265.704C22.1992 269.152 15.8454 275.785 13.2353 284.047C12.6206 285.986 12.3173 288.07 12.3493 290.097C7.62386 293.386 3.9521 299.34 5.33301 305.247ZM69.9799 310.26C69.1897 310.22 68.7507 310.867 68.8065 311.585C69.3334 318.665 63.6182 323.119 57.1287 321.403C56.0352 321.116 54.0556 319.814 52.6987 319.942C51.7249 320.038 51.2459 320.78 50.5116 321.275C47.3188 323.406 43.7907 324.069 40.9012 322.911C40.8054 322.816 40.6777 322.752 40.534 322.752C38.5704 321.842 36.9261 320.054 35.9603 317.236C35.7687 316.685 34.9705 316.51 34.4995 316.749C31.5781 318.713 29.5985 317.931 28.5609 314.411C26.9086 313.453 26.0944 312.311 26.1024 310.978C29.4868 312.319 33.6135 311.657 36.4073 308.073C38.0037 310.906 40.6857 312.742 44.1658 313.213C46.3689 313.509 48.556 313.07 50.5914 312.231C53.6326 310.986 55.8676 307.554 58.7252 306.588C62.6524 305.263 66.0527 307.362 69.1338 303.076C70.1715 301.631 70.6185 300.027 70.6265 298.422C78.9837 299.38 78.0817 310.635 69.9799 310.26ZM62.2054 257.842C65.1188 258.736 67.0425 260.404 69.2455 262.383C69.9081 262.982 70.1715 263.629 71.0335 264.028C73.6357 265.217 74.817 263.086 77.0281 262.367C86.5028 259.31 90.4539 274.787 85.0261 279.888C84.643 280.255 84.4913 280.998 84.9304 281.397C87.3489 283.153 88.2589 285.787 87.6682 289.291C86.6465 291.606 85.074 293.186 82.9508 294.032C82.7033 294.431 82.0488 294.615 81.7774 295.054C81.4501 295.589 81.4422 296.818 81.3943 297.161C81.4102 297.848 81.5938 298.51 81.9371 299.133C82.4958 302.661 81.2905 305.056 78.3292 306.333C79.279 302.102 76.8605 297.233 70.6903 297.097C70.6264 297.097 70.5786 297.113 70.5307 297.121C70.3391 295.804 69.8681 294.519 69.1577 293.346C73.492 292.117 76.166 287.687 75.7589 283.025C75.2481 277.142 70.1475 273.319 65.2625 270.804C67.0744 266.877 64.3366 263.245 60.4333 261.425C57.3522 259.989 52.986 258.895 49.4021 258.951C53.3213 256.963 57.8471 256.509 62.2054 257.842ZM19.142 277.366C22.4147 272.816 26.8208 269.663 31.9054 267.468C32.0171 267.444 32.1129 267.396 32.2007 267.324C33.4539 266.766 32.6637 265.041 31.4584 265.177C30.4925 263.796 29.375 262.583 28.1618 261.402C30.1014 260.396 32.0411 259.39 33.9727 258.368C35.8246 257.387 37.9638 256.572 39.6001 255.231C40.8852 257.395 42.1703 259.558 43.4395 261.729C43.7588 262.272 44.3335 262.463 44.9241 262.224C48.7396 260.667 52.3555 261.378 56.0831 262.439C58.9008 263.237 66.4199 265.273 62.7402 270.669C62.2852 271.339 62.6683 272.082 63.3228 272.393C66.6115 273.965 70.1076 275.993 71.9435 279.265C74.5057 283.847 73.1807 290.975 66.9467 291.422C66.0368 291.486 65.7893 292.723 66.3081 293.314C71.265 299.021 65.6297 306.309 58.8609 303.523C58.5256 303.387 57.9828 303.467 57.7354 303.747C53.1457 308.959 41.2444 316.438 37.6445 305.63C37.3811 304.848 36.1758 304.305 35.6649 305.231C31.626 312.67 20.5309 309.102 22.694 300.41C22.8617 299.74 22.4945 299.021 21.7442 298.965C9.88279 298.103 15.0233 283.089 19.142 277.366ZM12.5887 292.651C13.3231 296.746 15.7337 300.178 20.3872 300.977C19.8524 305.024 21.6643 308.256 24.3463 310.052C22.2869 315.536 26.8607 319.615 32.2725 319.806C33.6854 319.854 33.6215 319.351 34.5634 319.814C34.8348 319.942 36.4791 322.672 36.6467 322.848C37.1496 323.374 37.7004 323.829 38.2831 324.229C33.845 326.966 25.8709 329.648 26.5494 320.764C26.6053 320.014 25.9587 319.607 25.2962 319.655C20.491 319.375 18.3518 316.845 18.8786 312.064C19.0462 311.377 18.5114 310.372 17.6494 310.659C11.0083 312.862 5.93166 305.902 7.67175 299.915C8.53382 296.978 10.4735 294.735 12.5887 292.651Z" fill="#173B1A"/>
<path d="M113.227 307.17C113.586 306.092 113.522 304.552 112.748 303.618C120.267 297.871 120.985 284.996 110.832 281.332C102.81 278.435 91.3639 287.087 94.2135 295.764C93.1599 295.812 92.1701 296.083 91.5236 297.025C90.869 297.983 90.7812 299.26 91.2841 300.298C91.6832 301.104 92.4575 301.615 93.3036 301.806C91.4278 306.875 90.0229 312.087 88.7059 317.323C87.4926 322.184 85.3694 327.939 85.4731 332.968C85.4811 333.216 85.6727 333.527 85.9122 333.607C89.2567 334.74 92.0903 329.488 93.9501 327.413C99.0108 321.745 103.6 315.743 107.903 309.493C108.573 309.836 109.356 309.956 110.154 309.812C111.567 309.565 112.772 308.527 113.227 307.17ZM97.8374 320.508C96.1851 322.52 90.3582 331.013 88.2429 330.286C86.1277 329.56 92.689 307.873 94.3093 301.902C94.5647 301.886 94.8282 301.854 95.0676 301.782C95.0916 302.94 95.6743 304.153 96.5603 304.871C97.8693 305.933 100.144 306.164 101.804 305.422C101.924 306.38 102.611 307.274 103.592 307.609C104.295 307.849 105.365 307.737 106.259 307.338C106.314 307.641 106.418 307.944 106.586 308.24C106.666 308.383 106.761 308.519 106.857 308.647C103.992 312.702 100.998 316.661 97.8374 320.508ZM110.8 307.841C110.226 308.192 109.34 308.367 108.701 308.112C107.983 307.833 107.192 306.835 107.759 306.069C107.863 305.925 107.879 305.749 107.839 305.59C107.847 305.518 107.855 305.438 107.855 305.366C107.847 305.095 107.568 304.871 107.304 304.903C106.346 305.015 105.78 306.037 104.798 306.212C103.8 306.388 102.627 305.422 103.169 304.392C103.185 304.368 103.217 304.352 103.233 304.328C103.592 303.842 103.169 303.283 102.611 303.403C101.086 303.738 99.785 304.64 98.1726 303.977C96.7838 303.403 96.3128 301.99 96.5603 300.657C96.696 300.433 96.7997 300.178 96.8636 299.89C96.8875 299.779 96.8636 299.683 96.8237 299.595C96.8237 299.587 96.8237 299.579 96.8157 299.563C96.8077 299.555 96.7997 299.539 96.7918 299.531C96.7279 299.364 96.5523 299.26 96.3607 299.316C96.2091 299.308 96.0654 299.34 95.9456 299.451C95.5545 299.851 94.9239 300.194 94.3173 300.298C94.1976 300.258 94.0699 300.266 93.9661 300.321C93.3994 300.313 92.8885 300.058 92.673 299.332C92.234 297.831 93.3914 297.105 94.6206 296.785C94.6206 296.793 94.6286 296.801 94.6286 296.801C94.7882 297.153 95.355 297.081 95.323 296.65C95.323 296.618 95.323 296.586 95.323 296.554C95.5386 296.37 95.5306 296.043 95.3071 295.875C95.2033 288.524 101.102 280.414 109.387 282.458C119.485 284.948 118.471 297.6 111.359 302.692C110.832 303.067 110.992 303.722 111.383 304.009C111.63 304.656 111.966 305.167 111.942 305.901C111.894 306.707 111.495 307.418 110.8 307.841Z" fill="#173B1A"/>
<path d="M92.8806 324.515C93.12 323.525 92.8806 322.359 92.7449 321.362C92.6012 320.316 92.3857 319.286 92.1143 318.273C91.9866 317.778 91.1245 317.945 91.2203 318.464C91.4278 319.51 91.5875 320.571 91.6913 321.633C91.787 322.607 91.6992 323.653 91.9626 324.594C92.1063 325.065 92.7848 324.938 92.8806 324.515Z" fill="#173B1A"/>
<path d="M96.2809 319.83C96.1612 318.624 95.7621 317.435 95.5626 316.238C95.363 315.032 95.2113 313.819 95.1156 312.598C95.0756 312.087 94.3253 312.159 94.3333 312.662C94.3573 315.017 94.3892 317.834 95.3231 320.029C95.5306 320.532 96.3368 320.412 96.2809 319.83Z" fill="#173B1A"/>
<path d="M100.16 314.913C100.009 312.862 99.5058 310.794 99.1227 308.783C99.0109 308.176 98.069 308.232 98.1488 308.863C98.4282 310.946 98.6118 313.101 99.1227 315.137C99.2823 315.727 100.208 315.496 100.16 314.913Z" fill="#173B1A"/>
<path d="M20.8263 371.082C22.5824 364.257 24.3703 357.792 23.0693 350.736C22.8697 349.666 21.7522 349.642 21.1057 350.209C21.1296 349.658 21.0897 349.083 20.946 348.485C23.7797 351.662 29.0478 349.73 29.1915 345.372C29.3432 340.878 25.2803 339.066 21.6005 339.744C23.2528 335.602 23.6679 330.198 18.6631 328.402C16.1967 327.516 13.363 328.976 12.485 331.163C11.3196 329.527 10.1702 327.572 8.2146 327.699C5.365 327.891 3.98409 332.145 3.30561 334.987C0.695473 333.135 -2.58516 331.603 -5.56248 333.414C-7.66177 334.692 -8.68347 337.118 -7.81342 339.297C-8.83513 339.617 -9.81693 340.087 -10.7109 340.71C-12.2914 336.12 -17.9986 335.051 -21.0158 339.042C-21.814 335.945 -24.9989 333.814 -28.4391 334.452C-34.0505 335.49 -35.8146 340.973 -35.4155 345.97C-39.6939 344.086 -45.0578 345.843 -45.872 351.151C-46.0077 352.029 -45.5847 353.825 -44.8822 355.389C-47.9952 354.743 -51.4595 355.253 -53.439 357.975C-54.9237 360.019 -55.1153 362.717 -53.9339 364.816C-56.2328 365.319 -58.4438 366.524 -58.8509 369.062C-59.1223 370.723 -58.4358 372.487 -57.0709 373.253C-59.258 375.328 -60.3196 379.048 -57.6137 381.171C-55.698 382.672 -53.0958 382.233 -51.6271 380.66C-48.6578 385.402 -41.0189 384.101 -40.3165 377.907C-40.093 378.122 -39.8376 378.298 -39.5901 378.481C-40.2127 378.322 -40.8433 379.088 -40.2925 379.671C-29.852 390.686 -17.5915 397.04 -4.00597 403.369C-0.374123 405.062 3.16195 406.969 5.97164 409.899C8.36626 412.389 9.85093 415.518 12.07 418.144C14.8956 421.481 19.3895 424.474 23.9074 422.742C35.9444 418.128 23.4125 402.683 21.0737 396.313C17.9927 387.916 18.6472 379.583 20.8263 371.082ZM-4.97979 335.673C-3.14391 334.588 -1.44372 334.54 0.104801 335.53C1.35799 336.049 2.37172 336.839 3.4493 337.645C3.95217 338.02 4.84615 337.637 4.94992 337.03C5.42086 334.364 6.69002 328.394 10.1782 330.924C11.0163 331.531 11.5671 332.425 12.2695 333.183C12.3413 333.614 12.493 334.053 12.7404 334.484C13.2194 335.338 14.289 334.763 14.265 333.949C14.3448 333.845 14.4007 333.718 14.4167 333.59C16.5239 329.878 18.4157 329.407 20.084 332.185C20.6906 333.111 20.8902 334.109 20.6826 335.186C20.7145 337.421 19.8285 339.154 18.6871 341.045C18.1443 341.947 19.2139 342.961 20.1079 342.466C22.1114 341.341 25.0807 341.005 26.5814 343.344C28.3933 346.162 24.5619 350.217 21.8161 347.12C21.3691 346.617 20.7944 346.912 20.6028 347.391C20.491 347.12 20.3713 346.84 20.2197 346.561C19.629 345.459 18.0086 346.425 18.5594 347.535C21.385 353.274 13.2752 357.241 10.4496 351.446C10.0425 350.616 8.61371 350.999 8.67757 351.925C8.94097 355.525 5.56454 357.105 2.99431 355.796C4.17566 354.072 4.04795 351.55 1.89279 349.778C3.52113 347.686 3.58499 344.334 1.62938 341.899C-0.23843 339.569 -2.92041 338.667 -5.58642 338.874L-4.97979 335.673ZM11.2079 372.024C6.61021 377.675 1.98857 368.009 -1.08453 363.906C-0.422012 363.491 0.152691 362.884 0.575741 362.038C1.35799 360.474 1.23826 358.821 0.416103 357.56C0.918976 357.441 1.36597 357.233 1.76508 356.978C4.75038 359.26 9.00482 357.935 10.2261 354.463C11.1201 355.365 12.1737 355.884 13.2673 356.1C13.2274 356.171 13.1715 356.227 13.1395 356.315C11.4633 361.112 14.5364 367.921 11.2079 372.024ZM-41.2264 376.518C-41.6335 376.574 -42.0167 376.845 -42.0486 377.364C-42.4397 382.648 -49.2963 383.119 -50.5735 378.098C-50.8768 376.917 -52.4014 377.324 -52.537 378.362C-52.8803 381.091 -57.0549 380.373 -57.3103 377.587C-57.47 375.815 -56.1849 374.371 -54.9077 373.373C-54.6842 373.205 -54.6443 372.982 -54.7082 372.774C-54.7082 372.519 -54.8279 372.279 -55.1073 372.144C-56.6718 371.433 -57.4221 369.693 -56.113 368.089C-55.227 366.995 -53.1916 366.74 -51.9384 366.668C-51.0843 366.62 -50.4457 365.494 -51.1881 364.848C-53.4071 362.9 -52.7925 359.468 -50.4298 357.856C-48.5061 356.539 -46.0636 356.65 -43.8685 357.121C-42.8867 358.398 -41.6974 358.837 -40.6278 356.97C-40.1409 356.108 -41.3941 355.397 -41.9448 356.203C-43.222 355.852 -43.8446 355.046 -43.8286 353.809C-44.2516 352.755 -44.2596 351.685 -43.8446 350.608C-42.2561 346.992 -38.1853 345.843 -34.8887 348.397C-34.1623 348.956 -33.1326 348.461 -33.3322 347.487C-34.0026 344.206 -33.9867 340.455 -31.3286 337.956C-27.8165 334.652 -22.4286 336.472 -22.4925 341.428C-22.5005 342.314 -21.0637 342.562 -20.904 341.644C-20.8402 341.285 -20.8242 340.934 -20.8242 340.59C-20.7125 340.55 -20.6087 340.487 -20.5289 340.367C-17.1684 336.488 -14.3508 337.102 -12.0759 342.211C-11.9881 342.945 -11.1978 343.344 -10.6072 342.817C-8.65953 341.077 -6.22499 340.127 -3.54301 340.71C-2.85655 340.981 -2.16211 341.245 -1.47565 341.516C2.25996 343.839 1.77306 346.649 -2.91243 349.953C-4.04588 349.913 -3.99001 351.566 -2.91243 351.677C-1.51556 351.829 -0.342194 351.534 0.599693 350.959C-0.150623 352.587 -0.89296 354.224 -1.64328 355.852C-2.78471 355.597 -3.13593 357.129 -2.11422 357.56C0.160679 359.548 -0.246407 360.793 -3.33548 361.304C-4.90794 363.028 -6.52831 363.164 -8.18858 361.695C-8.73935 361.392 -9.48966 361.767 -9.4737 362.429C-9.40186 365.662 -11.557 367.442 -13.8718 367.506C-14.1672 366.5 -15.3405 366.508 -15.8833 367.099C-16.9689 366.628 -17.9587 365.742 -18.5892 364.377C-18.8127 363.89 -19.5631 364.114 -19.6429 364.561C-20.0979 364.153 -20.912 364.624 -20.5209 365.199C-17.7112 369.414 -23.4184 371.313 -26.0924 369.805C-28.1518 368.639 -28.966 366.548 -29.4529 364.337C-29.5806 363.762 -30.5304 363.587 -30.7859 364.161C-32.0869 367.099 -35.9183 369.054 -38.9515 367.155C-42.0566 365.215 -41.6575 361.12 -40.0052 358.446C-39.638 357.848 -40.4681 357.225 -40.963 357.704C-43.8765 360.538 -43.3976 365.75 -40.1089 368.145C-37.8261 369.805 -35.0403 369.653 -32.8053 368.384C-32.7495 368.512 -32.6696 368.631 -32.5419 368.743C-30.3389 370.731 -29.7003 374.347 -31.9353 376.613C-34.1942 378.904 -37.9538 378.322 -40.0371 376.166C-40.4442 375.743 -41.1227 376.055 -41.2264 376.518ZM-31.1131 367.298C-31.161 367.258 -31.2089 367.25 -31.2568 367.227C-30.9774 366.963 -30.706 366.684 -30.4666 366.38C-29.3571 369.829 -26.4755 373.325 -22.5244 372.191C-19.9861 371.465 -18.27 368.831 -18.7489 366.404C-17.9986 367.474 -17.0407 368.184 -15.9951 368.599C-15.3645 370.914 -14.8536 373.253 -14.6221 375.648C-14.4944 376.965 -14.4226 378.314 -14.4465 379.639C-14.4785 382.009 -14.2869 382.377 -16.6735 383.63C-19.124 384.915 -19.4912 384.452 -21.7422 383.199C-22.6282 382.704 -23.4823 382.153 -24.3204 381.578C-26.2999 380.221 -28.0241 378.665 -29.7243 376.997C-27.7607 374.035 -28.2635 369.549 -31.1131 367.298ZM26.31 414.776C24.6497 416.723 22.9815 418.679 21.3132 420.627C19.3336 420.547 17.6574 419.868 16.2845 418.591C11.9263 415.311 9.97066 409.683 5.69226 406.187C1.63736 402.875 -3.31951 400.991 -8.06885 398.931C-19.5152 393.959 -29.7482 387.118 -39.0713 378.833C-36.6048 380.277 -33.2763 380.229 -30.9934 378.354C-27.7128 382.097 -19.4673 389.975 -14.5264 386.583C-12.4909 385.186 -12.2275 382.568 -12.1477 380.301C-12.02 376.478 -12.5229 372.686 -13.4727 368.999C-10.8626 368.839 -8.38015 366.971 -7.87728 363.754C-6.31279 364.425 -4.47691 364.824 -2.85655 364.553C0.32032 368.999 3.4892 379 10.7369 375.632C17.7532 372.375 13.6823 362.517 15.5342 356.978C15.6459 356.65 15.598 356.379 15.4943 356.139C17.7851 355.78 19.8924 354.224 20.7305 352.029C22.3429 364.177 15.1191 375.488 16.4282 387.788C16.955 392.753 18.4077 397.551 20.7305 401.965C21.9997 404.375 23.6599 406.586 24.8333 409.053C25.5198 410.505 26.7171 413.1 26.31 414.776Z" fill="#173B1A"/>
<path d="M27.6353 351.088C27.6512 351.344 27.7949 351.519 27.9785 351.615C28.3616 356.875 30.9079 362.175 35.6174 364.849C38.0519 366.23 40.4625 366.973 42.5139 368.984C44.1981 370.628 45.2916 372.616 46.6007 374.556C48.3248 377.118 49.8175 379.033 52.6192 380.199C52.6671 380.239 52.7309 380.279 52.8028 380.311C54.1677 380.901 56.4027 380.319 57.3685 379.193C58.2146 378.211 58.2546 376.974 57.4803 376.056C57.5841 375.809 57.5282 375.513 57.2169 375.41C56.275 375.098 55.4608 374.627 54.7025 374.061C62.1737 362.55 67.5696 349.364 73.5722 337.056C73.8276 336.537 73.3646 335.811 72.758 335.914C59.3002 338.229 46.457 345.493 34.0369 350.976C33.981 350.881 33.9252 350.793 33.8693 350.697C33.9172 350.617 33.9411 350.514 33.8932 350.394C33.3185 349.077 32.0573 348.239 30.5966 348.35C29.2876 348.454 27.5475 349.643 27.6353 351.088ZM56.2111 368.984C54.04 368.657 53.2817 365.823 54.3034 364.067C55.389 362.207 57.2328 362.431 58.9091 363.029C57.9752 365.001 57.0652 366.981 56.2111 368.984ZM68.5914 343.585C68.1523 344.463 67.7133 345.341 67.2663 346.219C66.7635 346.083 66.3803 345.565 66.3324 345.038C66.2765 344.359 66.4841 343.745 66.7634 343.146C67.3062 343.37 67.865 343.553 68.4557 343.601C68.5115 343.601 68.5514 343.585 68.5914 343.585ZM48.8916 346.036C48.8916 346.06 48.8916 346.075 48.8995 346.091C49.0752 346.714 49.2587 347.345 49.4423 347.967C49.5381 348.31 50.0729 349.436 49.7776 349.763C49.6179 349.947 49.0672 349.955 48.8357 350.051C48.7878 350.075 48.7479 350.098 48.7 350.122C48.1013 349.061 47.6224 347.951 47.2552 346.786C47.798 346.538 48.3408 346.291 48.8916 346.036ZM46.0978 347.329C46.5608 348.781 47.1914 350.146 47.9976 351.447C48.1971 351.767 48.7878 351.831 49.0033 351.487C49.4902 350.713 50.8073 351.184 51.0866 350.027C51.2223 349.46 50.8791 348.853 50.6796 348.35C50.3443 347.504 50.0091 346.658 49.6738 345.812C49.6578 345.772 49.6339 345.74 49.61 345.708C56.714 342.46 63.9538 339.474 71.3851 337.854C70.6667 339.379 69.9084 340.895 69.1581 342.42C69.0623 342.284 68.9106 342.188 68.6951 342.18C68.0086 342.14 67.3701 342.045 66.7235 341.797C66.4282 341.685 66.0371 341.781 65.9094 342.1C65.4704 343.25 64.8877 344.806 65.8216 345.86C66.1568 346.243 66.5799 346.562 67.0348 346.69C64.5285 351.655 61.9662 356.62 59.5636 361.641C57.3446 360.012 53.7287 361.561 52.7948 363.971C51.8928 366.302 53.1141 369.83 55.844 369.862C55.3012 371.147 54.7664 372.44 54.2635 373.733C50.4561 370.541 48.6441 364.594 44.3178 361.688C42.2345 360.292 38.898 359.517 37.2537 357.634C36.0085 356.205 35.4737 354.329 34.7712 352.565C38.5148 350.921 42.2904 349.117 46.0978 347.329ZM30.7084 349.811C31.2432 349.683 31.786 349.787 32.2808 350.027C32.2888 350.106 32.3048 350.186 32.3527 350.274C32.6321 350.769 32.8316 351.28 33.0072 351.799C32.9114 352.158 33.0391 352.565 33.3185 352.788C33.7575 354.353 34.0688 355.925 35.0746 357.314C37.0541 360.068 40.7019 361.217 43.328 363.149C48.3807 366.861 49.9372 375.122 56.5703 376.36C57.0333 377.126 56.1792 378.179 55.5327 378.467C54.6706 378.85 53.6888 378.602 52.8507 378.978C52.7549 379.018 52.6831 379.081 52.6112 379.153C48.4765 375.082 46.4011 368.968 41.5321 365.759C39.2572 364.259 36.4874 363.748 34.4041 361.88C31.331 359.118 30.3013 355.095 29.3355 351.264C29.3035 351.152 29.2556 351.064 29.1918 351C29.3115 350.793 29.4392 350.585 29.6148 350.41C29.9102 350.106 30.2933 349.907 30.7084 349.811Z" fill="#173B1A"/>
<path d="M45.962 359.581C45.8263 359.845 45.938 360.132 46.1296 360.324C47.0316 361.234 48.0533 362.168 49.1787 362.782C49.5459 362.982 49.9051 362.734 50.0328 362.407C51.6053 361.705 51.9246 359.27 50.5836 358.185C49.0431 356.939 46.7602 357.993 45.962 359.581ZM49.7455 359.039C50.7752 359.629 50.4639 360.914 49.7455 361.609C48.9233 360.994 48.1012 360.42 47.3429 359.733C47.9016 359.031 48.9313 358.568 49.7455 359.039Z" fill="#173B1A"/>
<path d="M38.2435 353.754C37.5251 355.542 38.6905 358.335 40.7419 358.599C40.9414 358.623 41.141 358.511 41.2447 358.343C42.6177 358.862 44.2061 358.184 44.9325 356.899C45.9063 355.182 44.8606 353.155 43.2642 352.269C41.5161 351.295 39.0337 351.774 38.2435 353.754ZM42.5379 353.53C43.5117 354.017 44.2301 355.135 43.8549 356.228C43.4877 357.322 42.1627 358.016 41.0851 357.561C41.0532 357.545 41.0213 357.561 40.9893 357.561C40.2071 356.731 39.2013 356.108 39.4169 354.759C39.6723 353.243 41.3326 352.924 42.5379 353.53Z" fill="#173B1A"/>
<path d="M51.0069 355.256C51.0788 355.783 51.2304 356.174 51.5896 356.581C52.0047 357.044 52.763 356.557 52.3958 356.015C52.308 355.903 52.2601 355.791 52.2202 355.671C53.1062 355.528 53.9922 355.32 54.8623 355.129C55.3093 355.033 55.9877 354.745 56.4347 354.769C57.1212 354.817 57.3048 355.248 57.3686 355.735C55.6286 355.839 53.9284 356.238 52.316 356.917C51.6136 357.212 52.0047 358.305 52.7231 358.034C54.4871 357.356 56.2671 357.068 58.1509 357.06C58.534 357.06 58.7895 356.653 58.7735 356.31C58.7256 355.033 58.3265 353.46 56.7939 353.38C56.0356 353.341 55.2055 353.652 54.4871 353.827C53.4574 354.075 52.3878 354.282 51.3901 354.65C51.1506 354.745 50.975 355.009 51.0069 355.256Z" fill="#173B1A"/>
<path d="M54.974 347.178C54.9181 349.062 56.6103 351.608 58.7096 351.377C60.33 352.406 62.5091 350.746 63.0758 349.022C63.866 346.611 62.5251 343.881 59.9229 343.458C57.5841 343.075 55.0538 344.696 54.974 347.178ZM58.526 345.007C60.1224 344.672 61.5432 345.542 61.8226 347.17C61.9423 347.88 61.8466 348.647 61.5193 349.293C61.1441 350.052 60.2821 350.762 59.3961 350.738C59.3801 350.602 59.2923 350.475 59.1087 350.403C57.9034 349.956 56.8817 349.493 56.4826 348.144C56.0516 346.643 57.0573 345.326 58.526 345.007Z" fill="#173B1A"/>
</svg>
