<svg width="150" height="410" viewBox="0 0 150 410" fill="none" xmlns="http://www.w3.org/2000/svg">
<path d="M38.1989 252.289C38.3607 251.79 38.5383 251.294 38.7458 250.812C39.9501 247.92 41.9487 245.687 43.6751 243.133C44.1903 242.368 43.3957 241.161 42.5105 241.814C40.7902 243.072 39.3852 244.767 38.2865 246.692C36.4513 240.364 30.6942 234.485 23.8579 235.912C23.1942 236.053 22.6871 236.607 22.9398 237.325C25.0937 243.609 29.8559 248.683 36.2889 250.605C36.3897 250.633 36.4729 250.625 36.5497 250.607C36.3369 251.243 36.1618 251.895 35.9962 252.54C25.5647 246.572 12.5391 251.142 8.45832 262.616C4.63228 273.364 11.5154 284.977 22.1422 288.249C32.6384 291.48 44.5933 285.527 49.181 275.735C53.6119 266.246 49.6636 253.381 38.1989 252.289ZM36.6327 249.546C36.2671 249.369 35.9281 249.181 35.5734 248.99C34.9082 247.621 33.7522 246.426 32.8148 245.241C31.6746 243.797 30.5407 242.362 29.3802 240.938C29.0367 240.52 28.3482 240.958 28.6762 241.413C29.7241 242.914 30.7922 244.393 31.8667 245.882C32.2011 246.347 32.5294 246.843 32.8656 247.34C29.5138 244.97 26.9318 241.827 25.4114 237.877C28.564 237.777 31.37 239.299 33.3687 241.873C35.1932 244.209 35.7964 246.953 36.8968 249.573C36.8783 249.626 36.8519 249.678 36.8334 249.732C36.7905 249.658 36.7303 249.589 36.6327 249.546ZM45.2695 277.564C40.1936 284.905 30.1819 288.826 21.6147 285.536C13.5419 282.431 8.12838 273.681 10.2019 265.075C12.9601 253.647 25.3491 249.288 35.4947 253.74C35.5782 253.772 35.6489 253.786 35.7212 253.792C35.3298 255.772 35.1475 257.769 35.2312 259.613C35.2716 260.543 36.853 260.677 36.9098 259.709C37.0074 257.982 37.2151 256.276 37.5801 254.6C49.2537 255.921 51.06 269.187 45.2695 277.564Z" fill="#173B1A"/>
<path d="M34.2998 300.179C33.8777 296.499 25.0731 295.701 22.4501 296.312C22.2963 296.347 22.1821 296.431 22.0758 296.516C22.0347 296.476 21.9967 296.42 21.9477 296.377C18.7162 293.386 12.2729 297.124 9.77097 299.512C8.59964 300.632 7.37102 301.879 7.88457 303.611C7.94065 303.785 8.02032 303.963 8.09212 304.14C4.41952 305.494 0.710487 310.578 4.14043 313.64C2.6082 318.354 4.60835 323.914 9.16624 326.207C10.6761 326.965 12.9457 327.379 13.839 325.504C14.2824 324.562 14.0091 323.318 13.9386 322.333C13.8089 320.684 13.6508 319.267 14.0326 317.757C15.912 317.574 16.6497 315.955 18.4596 314.951C20.282 315.695 22.1224 315.545 23.4309 313.253C23.4682 313.186 23.4883 313.125 23.4926 313.061C23.878 313.135 24.295 313.004 24.4624 312.644C25.4458 313.381 26.8747 313.25 27.9844 312.322C28.5283 311.873 28.952 311.286 29.3361 310.65C32.8332 311.131 32.5049 318.183 35.3781 319.652C37.3451 320.661 38.6905 318.221 39.3084 316.798C41.6949 311.255 40.1754 302.916 34.2998 300.179ZM11.7003 319.648C11.7156 321.34 13.1976 325.445 9.87757 324.387C6.20489 323.211 4.68984 317.843 5.07333 314.343C7.07384 315.685 9.59497 316.866 11.9428 317.467C11.7695 318.152 11.6906 318.855 11.7003 319.648ZM15.8312 314.956C15.2459 315.324 14.6896 315.543 14.1545 315.651C13.7404 315.261 13.0235 315.172 12.6637 315.681C11.6479 315.534 10.6599 315.073 9.56976 314.593C8.71273 314.215 7.88057 313.793 7.06387 313.333C5.87981 312.663 4.7652 310.791 5.06402 309.331C5.37806 307.793 7.57132 306.536 8.77613 305.497C9.9917 307.437 11.958 309.335 13.2271 310.788C14.1623 311.859 15.5376 313.227 17.0251 314.183C16.6415 314.395 16.2866 314.669 15.8312 314.956ZM22.6634 312.117C22.6708 312.29 22.7157 312.437 22.7888 312.565C22.7606 312.584 22.7261 312.594 22.6964 312.621C19.0031 315.937 15.0081 309.934 13.0813 307.578C11.7136 305.918 9.28426 303.841 10.6666 301.293C11.2894 300.141 13.3142 299.08 14.3744 298.535C15.4879 297.967 17.4412 297.023 18.7916 297.17C22.0995 297.533 22.2782 300.741 22.4503 303.141C22.6574 306.118 22.5961 309.134 22.6634 312.117ZM24.5378 311.37C24.5968 307.481 25.1996 301.625 23.1912 298.005C24.4559 298.005 25.7204 297.964 26.9785 298.167C28.0464 298.341 29.1449 298.651 30.1498 299.066C31.3674 299.563 32.1679 299.685 32.1019 300.953C32.0124 302.723 30.2322 304.965 29.428 306.507C28.8846 307.544 26.81 312.952 24.5378 311.37ZM37.9104 314.831C37.6595 315.663 37.3267 316.456 36.8931 317.22C36.0897 317.873 35.6277 317.604 35.4884 316.426C33.9623 314.826 32.9176 309.303 29.8998 309.593C30.176 309.05 30.4287 308.504 30.6959 308.009C31.7332 306.063 33.0263 304.062 33.8934 302.026C35.919 304.377 37.8214 306.352 38.3073 309.702C38.5489 311.405 38.4107 313.173 37.9104 314.831Z" fill="#173B1A"/>
<path d="M102.239 356.824C105.271 350.434 108.265 344.405 108.329 337.204C108.336 336.112 107.239 335.875 106.494 336.311C106.623 335.772 106.693 335.199 106.666 334.581C108.852 338.252 114.411 337.353 115.384 333.086C116.39 328.687 112.732 326.127 108.977 326.094C111.395 322.327 112.834 317.082 108.246 314.358C105.984 313.015 102.914 313.914 101.632 315.901C100.795 314.067 100.036 311.921 98.0844 311.674C95.24 311.319 93.0682 315.248 91.8579 317.918C89.6392 315.596 86.6989 313.46 83.4198 314.678C81.1078 315.536 79.6384 317.732 80.0802 320.045C79.0126 320.165 77.9554 320.442 76.9558 320.885C76.2737 316.061 70.8542 313.919 67.1203 317.276C66.9243 314.072 64.1926 311.365 60.6811 311.338C54.9542 311.291 52.1704 316.358 51.6109 321.357C47.7545 318.685 42.1345 319.393 40.3201 324.468C40.019 325.307 40.0934 327.157 40.4872 328.833C37.5432 327.602 34.0323 327.445 31.5629 329.749C29.7103 331.48 29.0072 334.101 29.7709 336.395C27.4099 336.452 25.0015 337.218 24.1164 339.642C23.5324 341.226 23.8725 343.095 25.0712 344.11C22.5205 345.738 20.7653 349.201 23.0266 351.809C24.6281 353.653 27.2757 353.716 29.0227 352.447C31.0444 357.685 38.8192 357.859 40.6924 351.89C40.8715 352.145 41.0897 352.367 41.2985 352.595C40.7155 352.319 39.9481 352.954 40.3796 353.633C48.5666 366.477 59.4356 375.075 71.6148 383.903C74.8706 386.263 77.991 388.817 80.2009 392.239C82.0855 395.149 82.9518 398.515 84.6375 401.526C86.7855 405.352 90.6427 409.159 95.4245 408.313C108.165 406.063 98.7617 388.454 97.6718 381.732C96.2292 372.869 98.4631 364.783 102.239 356.824ZM83.5553 317.013C85.5713 316.294 87.2556 316.571 88.5927 317.841C89.7285 318.591 90.5767 319.563 91.4848 320.563C91.9087 321.029 92.8626 320.822 93.0806 320.244C94.0529 317.707 96.4419 312.066 99.3964 315.224C100.107 315.981 100.479 316.967 101.026 317.848C101.015 318.287 101.081 318.748 101.242 319.22C101.551 320.153 102.715 319.791 102.846 318.984C102.945 318.897 103.024 318.782 103.064 318.659C105.847 315.411 107.802 315.3 108.916 318.355C109.337 319.383 109.344 320.404 108.934 321.427C108.539 323.635 107.336 325.173 105.851 326.819C105.144 327.604 106.004 328.807 106.98 328.49C109.168 327.763 112.158 327.999 113.191 330.589C114.439 333.711 109.89 336.976 107.775 333.401C107.431 332.82 106.808 333.001 106.528 333.437C106.47 333.148 106.405 332.85 106.309 332.546C105.937 331.348 104.156 331.991 104.487 333.189C106.177 339.382 97.43 341.745 95.7508 335.496C95.508 334.601 94.0271 334.706 93.9134 335.63C93.4866 339.228 89.8584 340.141 87.5755 338.361C89.0682 336.888 89.4233 334.378 87.6377 332.221C89.6409 330.471 90.3431 327.18 88.8804 324.408C87.4844 321.755 85.0137 320.355 82.3473 320.051L83.5553 317.013ZM92.5743 355.917C86.9665 360.608 84.2559 350.203 82.0102 345.574C82.7421 345.291 83.4241 344.803 84.0022 344.05C85.0713 342.658 85.2684 341.007 84.6987 339.608C85.2171 339.586 85.6971 339.466 86.139 339.291C88.6452 342.109 93.0898 341.615 94.9552 338.427C95.6641 339.486 96.6034 340.198 97.6398 340.619C97.5868 340.682 97.5211 340.726 97.4729 340.807C94.9065 345.214 96.6441 352.51 92.5743 355.917ZM40.0528 350.347C39.641 350.324 39.2117 350.518 39.0813 351.024C37.6884 356.156 30.8426 355.312 30.5416 350.122C30.468 348.9 28.8881 349.01 28.5566 350.007C27.6979 352.631 23.7215 351.127 24.001 348.334C24.1816 346.557 25.7233 345.379 27.172 344.639C27.4241 344.517 27.5061 344.304 27.4827 344.087C27.5314 343.836 27.4591 343.577 27.2097 343.39C25.8036 342.392 25.3961 340.534 26.9919 339.203C28.0734 338.294 30.1277 338.431 31.3761 338.599C32.2268 338.715 33.0706 337.727 32.4625 336.949C30.6474 334.607 31.9074 331.342 34.5429 330.204C36.6895 329.273 39.0749 329.849 41.1479 330.731C41.8718 332.177 42.9599 332.836 44.37 331.2C45.0141 330.443 43.9148 329.504 43.2184 330.193C42.0269 329.604 41.5672 328.691 41.8189 327.475C41.6029 326.356 41.799 325.301 42.4134 324.318C44.668 321.058 48.8983 320.702 51.6595 323.847C52.2686 324.536 53.3775 324.245 53.3666 323.247C53.3315 319.887 54.0626 316.193 57.158 314.238C61.2486 311.652 66.2104 314.473 65.2024 319.345C65.0256 320.216 66.394 320.734 66.7264 319.86C66.8578 319.518 66.9405 319.175 67.006 318.837C67.1237 318.819 67.2381 318.776 67.3396 318.673C71.3904 315.491 74.0495 316.634 75.3169 322.102C75.2634 322.842 75.9659 323.386 76.6484 322.979C78.8992 321.636 81.4791 321.164 84.0106 322.25C84.6353 322.648 85.2693 323.04 85.894 323.438C89.1318 326.439 88.1163 329.115 82.8695 331.478C81.7603 331.222 81.5003 332.861 82.5408 333.177C83.8882 333.592 85.1007 333.525 86.1383 333.138C85.0885 334.6 84.0451 336.07 82.9953 337.532C81.9193 337.063 81.2811 338.506 82.2056 339.125C84.0681 341.517 83.4295 342.667 80.2884 342.581C78.4103 343.98 76.7878 343.805 75.432 342.041C74.9471 341.637 74.1363 341.864 74.0257 342.519C73.4801 345.718 71.0171 347.061 68.7241 346.683C68.6249 345.636 67.4673 345.42 66.8198 345.898C65.84 345.227 65.0337 344.166 64.6726 342.7C64.5452 342.178 63.7633 342.255 63.5994 342.68C63.2287 342.193 62.3367 342.501 62.6125 343.142C64.5774 347.831 58.5917 348.614 56.2446 346.618C54.4377 345.077 54.0342 342.861 53.9761 340.59C53.9598 339.999 53.0573 339.645 52.6961 340.163C50.854 342.809 46.706 344.005 44.0795 341.555C41.3899 339.052 42.564 335.093 44.7019 332.773C45.1778 332.253 44.4785 331.482 43.8996 331.859C40.4886 334.096 39.9666 339.323 42.7504 342.309C44.6832 344.381 47.457 344.762 49.9012 343.938C49.9319 344.074 49.9877 344.208 50.0922 344.342C51.884 346.721 51.8237 350.405 49.1892 352.213C46.5267 354.039 42.9334 352.748 41.2916 350.227C40.9712 349.733 40.2512 349.912 40.0528 350.347ZM51.7834 343.193C51.7438 343.144 51.6981 343.127 51.6555 343.094C51.981 342.888 52.3017 342.665 52.5955 342.411C53.0312 346.021 55.2038 350.015 59.3131 349.651C61.9526 349.42 64.1458 347.151 64.1366 344.669C64.6719 345.866 65.4803 346.749 66.4314 347.357C66.6114 349.758 66.6688 352.16 66.4403 354.564C66.315 355.886 66.1286 357.229 65.8523 358.53C65.3688 360.859 65.4876 361.258 62.897 362.037C60.2374 362.836 59.9639 362.31 57.985 360.646C57.2063 359.99 56.4698 359.284 55.7536 358.558C54.0618 356.844 52.6598 354.981 51.3027 353.013C53.8036 350.462 54.1619 345.954 51.7834 343.193ZM99.3108 400.922C97.3036 402.525 95.2869 404.134 93.2718 405.734C91.3365 405.278 89.8142 404.29 88.705 402.77C85.0363 398.707 84.1824 392.789 80.6334 388.528C77.2696 384.491 72.7447 381.69 68.4578 378.755C58.1277 371.673 49.3492 362.981 41.7428 353.04C43.8975 354.934 47.1863 355.521 49.7934 354.108C52.312 358.422 58.9343 367.757 64.4495 365.357C66.7214 364.369 67.4802 361.839 67.9911 359.621C68.846 355.878 69.0734 352.046 68.8406 348.231C71.4429 348.572 74.245 347.205 75.3539 344.131C76.7676 345.09 78.5004 345.833 80.1487 345.875C82.4312 350.861 83.6466 361.32 91.4302 359.383C98.9644 357.512 96.833 347.023 99.706 341.916C99.8785 341.615 99.8831 341.338 99.8265 341.083C102.152 341.166 104.525 340.034 105.77 338.031C105.042 350.309 95.7676 360.076 94.7135 372.437C94.286 377.43 94.8027 382.434 96.2497 387.226C97.0406 389.843 98.2549 392.338 98.9407 394.992C99.3386 396.562 100.024 399.347 99.3108 400.922Z" fill="#173B1A"/>
<path d="M169.312 60.7333C164.286 51.8378 150.687 56.9659 143.714 60.3653C135.038 64.5938 127.648 71.2008 122.849 79.5575C123.086 75.2952 122.956 67.8695 117.94 70.856C112.444 74.1252 111.993 84.172 113.39 89.5175C113.351 89.5099 113.311 89.5023 113.272 89.4947C113.071 89.2273 112.713 89.0928 112.347 89.3402C112.338 89.3465 112.336 89.3544 112.329 89.3529C111.722 89.3252 111.313 89.7111 111.17 90.1975C106.303 93.8005 102.714 98.687 98.9853 103.449C94.6289 109.011 90.4492 114.713 86.4353 120.529C78.549 131.936 71.3426 143.792 64.74 155.986C64.3595 156.687 64.8547 157.501 65.5722 157.673C69.4458 158.569 71.7568 155.777 74.5538 153.34C77.9102 150.416 81.205 147.431 84.4333 144.367C92.319 136.885 99.7982 128.974 106.843 120.693C110.129 116.824 113.316 112.88 116.405 108.851C118.641 105.939 121.926 102.454 122.446 98.6298C122.496 98.2477 122.517 97.8847 122.519 97.5343C126.835 100.866 133.973 102.435 138.328 99.3696C139.963 98.2172 140.984 96.3098 140.097 94.3594C139.519 93.0888 138.349 92.3892 137.039 91.9889C145.686 91.3693 154.038 88.1388 160.822 82.5977C166.901 77.6218 173.921 68.8789 169.312 60.7333ZM118.116 102.451C116.887 105.346 113.898 108.227 111.94 110.713C107.672 116.112 103.22 121.37 98.6012 126.474C94.2229 131.305 89.6834 136 85.0032 140.537C82.6624 142.809 80.2883 145.042 77.8731 147.235C75.7938 149.125 71.4774 154.311 67.8431 155.256C71.3024 148.933 74.9368 142.717 78.7335 136.59C78.7584 137.305 78.8508 138.008 79.0561 138.676C79.2565 139.327 80.248 139.094 80.2046 138.433C80.1183 137.192 79.8658 136.009 79.8864 134.765C82.576 130.479 85.324 126.23 88.1887 122.052C88.4954 121.605 88.8164 121.17 89.1231 120.723C89.0954 121.583 89.1843 122.473 89.7866 123.071C90.087 123.374 90.7273 123.269 90.8897 122.852C91.2344 121.956 90.8592 120.986 90.8627 120.04C90.8632 119.363 91.0646 118.659 91.0572 117.98C93.7514 114.177 96.4898 110.399 99.3056 106.685C99.5237 106.401 99.745 106.101 99.9647 105.809C99.945 107.429 100.164 109.078 100.968 110.237C101.407 110.877 102.324 110.484 102.324 109.766C102.319 108.696 101.839 107.632 101.694 106.568C101.561 105.612 101.529 104.643 101.56 103.678C104.715 99.4333 107.978 95.0548 111.904 91.588C111.95 91.605 111.978 91.6269 112.025 91.636C113.413 91.8881 115.032 91.9974 116.262 92.725C118.881 94.2844 119.241 99.8046 118.116 102.451ZM155.054 83.7743C147.82 88.184 139.815 89.915 131.415 89.6846C130.107 89.6519 129.961 91.9246 131.283 92.0091C131.839 92.0433 132.399 92.0618 132.95 92.0788C132.932 92.3853 133.099 92.7031 133.448 92.7544C135.151 93.0187 141.042 93.9466 136.53 97.9119C135.4 98.9008 132.261 98.6361 130.92 98.4826C127.217 98.0517 124.626 96.1794 121.751 93.9994C121.672 93.9434 121.589 93.9109 121.505 93.8784C120.119 91.7253 117.457 90.5086 114.671 89.8143C114.829 89.6735 114.933 89.4733 114.892 89.2206C114.254 84.6747 114.531 80.208 116.594 76.038C116.918 75.3746 117.621 73.6012 118.264 73.3096L120.714 73.8898C120.734 74.2117 120.743 74.54 120.763 74.862C121.442 76.4948 120.74 79.8267 120.881 81.6735C120.95 82.5355 122.209 82.7791 122.588 82.1263C122.758 82.0938 122.92 82.011 123.036 81.8375C127.391 75.3123 132.667 69.5937 139.307 65.3464C145.452 61.4196 161.284 53.3947 167.013 61.3573C173.015 69.6827 161.316 79.9599 155.054 83.7743Z" fill="#173B1A"/>
<path d="M160.618 152.379C155.558 152.893 154.562 159.938 159.08 161.889C157.636 163.193 156.387 164.885 155.242 166.54C154.602 165.886 153.701 165.483 152.6 165.604C151.434 165.73 150.326 166.478 149.789 167.525C149.016 169.031 149.824 170.673 149.383 172.236C149.38 172.251 149.386 172.261 149.383 172.276C149.305 172.343 149.227 172.409 149.168 172.504C146.375 177.031 136.877 178.212 132.406 180.488C128.912 182.268 125.763 184.579 123.616 187.917C119.393 194.476 121.166 201.804 127.455 206.195C133.868 210.667 142.556 210.423 148.683 205.538C151.916 202.956 153.909 199.36 155.165 195.483C156.818 190.401 156.203 183.037 158.92 178.357C160.8 177.244 163.668 176.844 163.415 174.143C163.25 172.341 161.737 171.77 160.191 171.871C160.786 171.162 161.358 170.441 161.879 169.685C162.242 169.159 162.677 168.599 163.019 168.012C164.093 169.207 165.408 170.213 167.12 170.054C168.864 169.894 170.395 168.518 170.872 166.856C171.909 163.181 168.901 160.893 165.738 160.583C167.679 156.92 165.479 151.884 160.618 152.379ZM158.377 170.704C158.441 171.263 158.01 171.93 157.763 172.405C157.724 172.479 157.709 172.558 157.703 172.63C157.656 172.662 157.61 172.685 157.564 172.717C156.811 173.232 157.413 174.295 158.237 174.088C159.052 173.878 160.442 173.021 161.243 173.649C162.843 174.906 160.133 176.054 159.367 176.469C159.193 176.566 159.026 176.672 158.866 176.78C158.767 176.785 158.657 176.805 158.543 176.889C154.454 179.891 154.894 187.271 153.786 191.773C152.551 196.805 150.507 201.721 145.991 204.649C140.597 208.15 133.254 207.896 128.145 203.938C117.124 195.408 127.881 184.598 136.823 180.975C141.551 179.059 148.293 178.291 150.971 173.432C151.147 173.115 151.128 172.834 151.019 172.593C151.473 171.555 151.227 170.593 151.216 169.465C151.196 167.381 153.295 167.159 154.144 168.123C154.12 168.167 154.088 168.202 154.064 168.246C153.783 168.64 154.122 169.122 154.495 169.096C154.494 169.308 154.46 169.53 154.37 169.782C154.012 170.749 155.112 171.598 155.891 170.819C156.47 170.229 158.181 168.977 158.377 170.704ZM163.154 160.948C162.59 161.459 163.138 162.634 163.91 162.481C165.802 162.105 168.193 162.315 168.922 164.618C169.367 167.462 168.114 168.541 165.162 167.856C164.607 167.479 164.072 167.082 163.549 166.663C163.56 166.607 163.577 166.562 163.578 166.513C163.651 165.923 163.013 165.637 162.588 166.02C161.757 166.773 161.361 167.977 160.784 168.934C160.518 169.381 160.223 169.813 159.928 170.237C159.959 169.697 159.832 169.174 159.444 168.691C158.521 167.558 157.295 167.737 156.194 168.324C156.136 168.076 156.052 167.839 155.95 167.607C156.583 166.865 157.216 166.122 157.863 165.391C158.793 164.339 159.878 163.374 160.637 162.191C160.777 161.973 160.733 161.736 160.598 161.547C160.775 161.181 160.708 160.727 160.199 160.49C156.597 158.822 157.789 153.505 161.907 154.236C165.293 154.826 165.305 158.982 163.154 160.948Z" fill="#173B1A"/>
<path d="M95.4342 268.488C95.4309 268.463 95.4167 268.452 95.4134 268.427C96.4401 265.272 95.0012 262.04 92.0094 260.213C89.3315 258.577 85.927 258.587 82.9762 257.771C78.1052 256.421 74.1002 253.842 69.7518 251.394C69.6273 251.32 69.5141 251.315 69.4121 251.336C66.0426 249.395 60.9903 250.963 59.0676 254.279C56.9833 257.882 58.8688 263.697 63.3867 263.878C61.4174 270.049 51.77 276.431 53.3942 283.934C53.7565 285.603 54.1407 286.232 55.7497 287.025C58.8196 288.533 60.0246 287.281 63.7666 289.996C65.6558 291.365 67.1037 293.286 68.9774 294.693C82.5555 304.892 87.2532 283.02 86.2847 273.351C88.1155 274.432 90.4128 274.746 92.3788 273.821C94.3541 272.889 95.7385 270.669 95.4342 268.488ZM91.1279 272.273C89.2216 272.933 87.2528 272.144 85.5152 271.383C84.9355 271.132 84.445 271.853 84.8972 272.3C84.9035 272.309 84.9114 272.311 84.9177 272.32C84.7678 272.462 84.6638 272.662 84.6529 272.93C84.5151 278.28 84.9575 286.492 81.5646 291.123C73.5263 302.092 67.9378 288.976 61.5052 286.376C58.9395 285.341 56.3398 286.421 55.3608 282.625C54.6654 279.937 58.2587 275.198 59.739 273.241C62.0405 270.202 64.2305 267.909 64.6538 263.992C64.6776 263.785 64.6185 263.627 64.5282 263.503C64.6256 263.253 64.5766 262.958 64.2836 262.827C60.9879 261.39 58.8818 257.98 61.4033 254.69C63.8747 251.448 67.1298 252.673 70.3253 253.659C70.4559 253.7 70.5815 253.684 70.6896 253.631C73.1473 255.731 75.9909 257.227 79.0787 258.347C84.9143 260.447 94.3968 260.104 93.9842 268.012C93.85 268.157 93.7618 268.361 93.776 268.624C93.8339 270.349 92.7615 271.716 91.1279 272.273Z" fill="#173B1A"/>
<path d="M89.4605 262.583C83.4121 259.854 76.6104 258.53 70.4002 256.3C70.2474 256.246 70.1077 256.252 69.9775 256.292C68.0884 254.67 64.452 254.023 62.9253 256.347C61.3752 258.707 63.4275 261.299 65.6502 262.251C66.3542 267.299 64.0529 270.632 60.9825 274.313C59.5478 276.035 57.5055 278.071 56.921 280.332C55.915 284.266 59.341 284.693 62.4396 285.251C65.7754 287.578 68.9841 290.181 72.4031 292.246C74.573 293.556 76.6466 293.761 78.5549 291.911C83.6022 287.038 83.6092 276.081 83.5281 269.627C83.5159 268.931 82.3717 268.857 82.2928 269.56C81.5953 275.862 82.0334 283.38 78.7887 289.101C75.9512 294.108 71.2836 289.345 68.0808 287.175C65.8088 285.634 63.4739 284.334 60.9396 283.305C59.1324 281.976 58.7736 280.12 60.6187 276.952C61.6198 275.236 63.3094 273.841 64.4317 272.174C66.4539 269.187 67.6183 265.953 66.5001 262.497C66.646 262.46 66.7549 262.277 66.6503 262.143C65.5896 260.836 62.7203 259.008 64.1362 257.046C65.686 254.898 68.2713 257.055 70.0245 257.525C70.0481 257.529 70.0669 257.517 70.0904 257.521C72.9373 259.043 76.1711 259.873 79.2453 260.81C82.458 261.791 85.6732 262.927 88.9765 263.567C90.3392 264.157 91.0406 265.296 90.8552 266.802C90.7071 267.989 89.9078 270.307 88.4043 270.065C86.5926 269.772 85.0739 268.091 83.1599 268.283C82.9526 268.3 82.805 268.557 82.9412 268.739C83.9424 270.058 86.3308 270.871 87.8812 271.335C89.2852 271.753 90.3214 271.374 91.0675 270.091C92.3263 267.887 93.0101 262.919 89.4605 262.583Z" fill="#173B1A"/>
<path d="M63.6823 164.708C63.5458 164.486 63.3332 164.404 63.1274 164.413C60.2498 159.972 55.446 156.546 50.0111 156.465C47.2033 156.428 44.7226 156.935 41.9432 156.16C39.6675 155.524 37.7401 154.311 35.6627 153.24C32.9107 151.818 30.6738 150.854 27.6405 151.181C27.5775 151.169 27.5052 151.163 27.4299 151.173C25.9493 151.319 24.2624 152.91 23.9479 154.367C23.6762 155.644 24.2471 156.742 25.3621 157.178C25.3921 157.445 25.5836 157.678 25.9053 157.618C26.8782 157.439 27.8289 157.46 28.7661 157.592C27.7568 171.325 29.3804 185.535 30.0537 199.259C30.0809 199.835 30.8407 200.251 31.3222 199.871C42.0403 191.33 49.8218 178.736 58.0935 167.91C58.1881 167.969 58.2843 168.021 58.3789 168.08C58.3764 168.177 58.399 168.271 58.5063 168.349C59.6492 169.231 61.1661 169.362 62.3913 168.554C63.4959 167.822 64.4566 165.935 63.6823 164.708ZM29.8998 162.781C31.9642 162.022 34.001 164.146 33.9493 166.184C33.8905 168.343 32.1651 169.037 30.4041 169.324C30.2648 167.135 30.1081 164.951 29.8998 162.781ZM31.2816 191.1C31.244 190.114 31.2065 189.127 31.1767 188.143C31.6819 188.02 32.2743 188.29 32.5709 188.739C32.95 189.31 33.0623 189.952 33.1073 190.605C32.5232 190.671 31.938 190.787 31.4037 191.018C31.3489 191.048 31.3192 191.075 31.2816 191.1ZM47.4286 179.424C47.4159 179.405 47.4111 179.388 47.3969 179.377C46.9399 178.913 46.4752 178.448 46.0182 177.984C45.7653 177.731 44.7568 176.997 44.8562 176.568C44.9112 176.326 45.3887 176.051 45.5478 175.861C45.5805 175.819 45.5975 175.773 45.6302 175.73C46.6727 176.373 47.6231 177.111 48.5098 177.968C48.1468 178.453 47.7838 178.938 47.4286 179.424ZM49.256 176.938C48.1465 175.883 46.9327 174.987 45.5926 174.238C45.2694 174.053 44.7115 174.28 44.6904 174.684C44.6364 175.595 43.2459 175.824 43.5626 176.97C43.7217 177.54 44.313 177.899 44.7347 178.25C45.4375 178.834 46.1418 179.411 46.8446 179.996C46.8794 180.027 46.9171 180.043 46.9549 180.058C42.2778 186.35 37.3546 192.479 31.5949 197.493C31.4901 195.8 31.4182 194.105 31.3479 192.402C31.4976 192.472 31.6752 192.482 31.8725 192.39C32.5007 192.095 33.0994 191.868 33.7964 191.766C34.115 191.722 34.4118 191.453 34.3657 191.101C34.1946 189.877 33.9518 188.223 32.6307 187.755C32.1505 187.58 31.6268 187.504 31.1655 187.61C30.9736 182.025 30.8255 176.423 30.5079 170.854C33.2454 171.212 35.6817 168.11 35.3325 165.529C34.9981 163.041 32.2189 160.537 29.7996 161.823C29.6526 160.432 29.5057 159.041 29.3179 157.65C34.2068 158.612 38.6818 162.979 43.8897 163.432C46.4001 163.657 49.7061 162.722 52.0681 163.587C53.8522 164.234 55.2294 165.634 56.6996 166.849C54.1921 170.109 51.7437 173.527 49.256 176.938ZM61.5949 167.315C61.1887 167.685 60.6572 167.86 60.1138 167.885C60.0694 167.819 60.0171 167.752 59.9288 167.702C59.4493 167.397 59.0198 167.045 58.6169 166.682C58.525 166.313 58.2137 166.024 57.8661 165.965C56.7198 164.805 55.6862 163.569 54.1325 162.827C51.055 161.359 47.3017 162.118 44.0563 161.685C37.8187 160.862 32.4614 154.35 26.0222 156.466C25.2433 156.021 25.4879 154.673 25.9164 154.103C26.4867 153.349 27.4733 153.099 28.0249 152.357C28.0903 152.272 28.1243 152.181 28.1504 152.088C33.7502 153.677 38.5363 158.039 44.3695 158.507C47.1014 158.725 49.7777 157.84 52.5106 158.475C56.5479 159.411 59.4012 162.46 62.1027 165.365C62.1834 165.454 62.2654 165.495 62.3567 165.529C62.3504 165.772 62.344 166.016 62.2732 166.255C62.1532 166.664 61.9105 167.033 61.5949 167.315Z" fill="#173B1A"/>
<path d="M43.4569 166.09C43.4488 165.795 43.2103 165.594 42.9475 165.518C41.7135 165.149 40.3714 164.832 39.0737 164.834C38.6495 164.834 38.4587 165.229 38.5049 165.581C37.4624 166.962 38.3644 169.258 40.06 169.562C42.0244 169.909 43.5184 167.881 43.4569 166.09ZM40.3905 168.402C39.1963 168.374 38.8474 167.099 39.1462 166.145C40.1715 166.287 41.1619 166.397 42.1689 166.632C42.022 167.518 41.3332 168.421 40.3905 168.402Z" fill="#173B1A"/>
<path d="M53.0589 167.492C52.827 165.571 50.4523 163.675 48.5262 164.436C48.3318 164.513 48.2215 164.704 48.207 164.905C46.7551 165.114 45.6842 166.473 45.6668 167.955C45.643 169.933 47.5425 171.206 49.3761 171.218C51.373 171.229 53.3173 169.615 53.0589 167.492ZM49.3889 169.76C48.2957 169.801 47.1292 169.168 46.9257 168.027C46.7222 166.886 47.5517 165.635 48.7167 165.518C48.7576 165.517 48.7716 165.487 48.7982 165.476C49.8891 165.826 51.0757 165.893 51.5362 167.181C52.0544 168.636 50.7366 169.711 49.3889 169.76Z" fill="#173B1A"/>
<path d="M41.107 172.333C40.7901 171.905 40.4679 171.63 39.9561 171.449C39.3688 171.238 38.9371 172.036 39.5155 172.335C39.6431 172.393 39.7426 172.469 39.8327 172.552C39.1228 173.1 38.4495 173.712 37.7713 174.307C37.4276 174.607 36.9724 175.188 36.5604 175.378C35.9417 175.666 35.5644 175.381 35.2744 174.982C36.7596 174.054 38.0562 172.877 39.1473 171.497C39.6228 170.895 38.7523 170.123 38.2469 170.711C37.0211 172.154 35.5968 173.274 33.9419 174.194C33.6037 174.382 33.5768 174.858 33.7562 175.154C34.4167 176.252 35.5239 177.446 36.9101 176.776C37.5946 176.443 38.1748 175.764 38.7278 175.267C39.512 174.546 40.3561 173.852 41.0581 173.05C41.2265 172.854 41.2623 172.543 41.107 172.333Z" fill="#173B1A"/>
<path d="M41.5213 181.363C40.6639 179.68 37.9449 178.256 36.2071 179.478C34.2817 179.35 33.1726 181.877 33.5043 183.663C33.9739 186.169 36.475 187.918 38.9644 187.029C41.2076 186.231 42.66 183.575 41.5213 181.363ZM39.4417 184.984C38.1994 186.049 36.532 185.979 35.4949 184.677C35.042 184.108 34.7641 183.393 34.7329 182.669C34.7009 181.822 35.1076 180.775 35.9032 180.374C35.9872 180.488 36.1196 180.563 36.3142 180.527C37.5903 180.342 38.7163 180.258 39.7154 181.251C40.8408 182.35 40.5872 183.998 39.4417 184.984Z" fill="#173B1A"/>
<path d="M99.8516 180.171C100.411 179.178 100.642 177.647 100.057 176.58C108.562 172.351 111.724 159.801 102.419 154.255C95.0671 149.871 82.1389 156.214 83.2923 165.306C82.245 165.153 81.218 165.231 80.4014 166.036C79.5738 166.855 79.2438 168.097 79.5414 169.215C79.7809 170.086 80.4464 170.737 81.2436 171.087C78.4288 175.723 76.0508 180.591 73.7546 185.499C71.6323 190.058 68.4429 195.324 67.5863 200.298C67.5469 200.544 67.6763 200.887 67.8971 201.011C70.9763 202.766 74.7699 198.131 76.9981 196.441C83.0651 191.821 88.7319 186.782 94.1628 181.444C94.758 181.91 95.506 182.177 96.3198 182.188C97.7591 182.214 99.1446 181.421 99.8516 180.171ZM82.1448 190.379C80.1332 192.046 72.7725 199.303 70.8268 198.184C68.8811 197.065 79.4813 176.947 82.2163 171.373C82.471 171.406 82.7366 171.425 82.9863 171.399C82.7892 172.544 83.132 173.851 83.868 174.728C84.9554 176.023 87.1528 176.685 88.9303 176.27C88.8656 177.237 89.3715 178.249 90.275 178.766C90.9214 179.136 91.9966 179.23 92.9536 179.007C92.9508 179.317 92.9952 179.635 93.1041 179.958C93.1553 180.115 93.2238 180.267 93.2938 180.411C89.6972 183.86 85.9929 187.191 82.1448 190.379ZM97.3328 180.369C96.6996 180.605 95.7931 180.609 95.2126 180.236C94.558 179.824 93.9697 178.69 94.6742 178.043C94.8038 177.921 94.8531 177.751 94.8442 177.586C94.8657 177.517 94.8888 177.44 94.9025 177.369C94.9464 177.1 94.7137 176.827 94.4481 176.808C93.483 176.735 92.7298 177.634 91.7289 177.62C90.7123 177.603 89.7403 176.427 90.4715 175.516C90.4918 175.496 90.5263 175.486 90.5466 175.465C90.9933 175.054 90.6831 174.423 90.1097 174.434C88.5436 174.474 87.0896 175.115 85.6272 174.154C84.3682 173.323 84.1736 171.841 84.6716 170.575C84.8479 170.381 84.9989 170.149 85.1166 169.878C85.1615 169.772 85.1562 169.673 85.1336 169.579C85.1351 169.571 85.1366 169.564 85.1318 169.546C85.1255 169.537 85.1206 169.52 85.1143 169.51C85.0833 169.333 84.9301 169.197 84.7307 169.216C84.5828 169.179 84.4351 169.183 84.2958 169.27C83.8344 169.589 83.1476 169.807 82.5301 169.794C82.4197 169.731 82.2924 169.715 82.1795 169.75C81.6226 169.634 81.1679 169.285 81.0941 168.528C80.9476 166.966 82.2265 166.471 83.4986 166.391C83.4971 166.399 83.5034 166.408 83.5034 166.408C83.5938 166.785 84.1659 166.822 84.2166 166.391C84.2227 166.36 84.2288 166.328 84.2349 166.297C84.4822 166.157 84.5368 165.833 84.3485 165.625C85.648 158.362 93.0065 151.496 100.781 155.089C110.255 159.468 106.844 171.741 98.8651 175.402C98.2744 175.672 98.307 176.347 98.6376 176.705C98.7581 177.389 98.991 177.956 98.8273 178.675C98.6264 179.46 98.0977 180.084 97.3328 180.369Z" fill="#173B1A"/>
<path d="M76.4972 193.383C76.9218 192.454 76.9081 191.26 76.9646 190.251C77.0224 189.193 77.0064 188.137 76.9323 187.087C76.9008 186.575 76.0195 186.575 76.0149 187.105C76.02 188.175 75.9749 189.251 75.8747 190.317C75.7834 191.295 75.4975 192.308 75.5775 193.287C75.6292 193.778 76.3221 193.782 76.4972 193.383Z" fill="#173B1A"/>
<path d="M80.7396 189.414C80.8514 188.204 80.685 186.956 80.7167 185.738C80.7499 184.512 80.8318 183.288 80.9703 182.066C81.0283 181.555 80.2753 181.483 80.1873 181.98C79.7619 184.305 79.2561 187.087 79.7578 189.428C79.8664 189.963 80.6835 189.999 80.7396 189.414Z" fill="#173B1A"/>
<path d="M85.4989 185.309C85.7406 183.259 85.6393 181.126 85.6453 179.071C85.6509 178.452 84.7122 178.327 84.6706 178.964C84.5486 181.07 84.3186 183.228 84.4338 185.331C84.4785 185.944 85.435 185.892 85.4989 185.309Z" fill="#173B1A"/>
<path d="M114.175 197.023C113.912 196.695 113.56 196.619 113.235 196.695C113.223 194.816 110.049 193.296 108.602 192.763C108.984 192.013 109.364 191.27 109.805 190.556C110.162 189.972 111.056 189.191 111.155 188.508C111.296 187.532 110.115 186.928 109.328 186.865C106.299 186.622 105.531 191.092 105.805 193.429C105.793 193.41 105.788 193.393 105.774 193.382C104.518 192.029 102.656 191.743 101.114 192.627C101.066 192.577 101.017 192.535 100.939 192.52C95.2021 191.426 87.8114 193.146 85.663 199.314C83.6597 205.071 87.7341 210.453 92.4724 213.206C98.5746 216.753 106.175 217.661 111.778 212.74C116.417 208.668 118.159 202.111 114.175 197.023ZM105.218 194.017C105.493 194.242 105.794 194.08 105.875 193.826C105.944 194.019 106.246 194.061 106.276 193.822C106.481 192.467 106.833 191.025 107.371 189.767C107.759 188.855 109.125 187.324 109.995 188.39C108.933 189.791 107.941 191.289 107.236 192.906C107.136 193.132 107.186 193.337 107.304 193.483C107.322 193.772 107.503 194.06 107.911 194.187C108.602 194.411 110.683 195.165 111.071 195.901C111.774 197.244 109.583 195.874 109.167 195.622C108.875 195.443 108.355 195.603 108.234 195.931C108.074 196.381 107.937 196.836 107.809 197.285C107.384 196.697 106.961 196.101 106.544 195.514C106.3 195.173 105.751 195.1 105.472 195.445C105.238 195.726 105 195.99 104.756 196.237C104.935 195.651 105.01 195.095 104.83 194.676C104.533 194.015 103.568 193.649 102.666 193.376C103.516 193.158 104.394 193.344 105.218 194.017ZM110.453 211.406C105.883 215.499 99.2246 214.912 94.1136 212.104C88.7314 209.137 84.6823 203.286 88.7881 197.333C91.1906 193.857 96.542 193.652 100.368 193.275C100.226 193.59 100.271 193.99 100.65 194.137C101.121 194.318 103.179 194.773 103.409 195.185C103.73 195.761 102.691 197.592 102.485 198.147C102.252 198.763 102.867 199.38 103.469 199.007C104.407 198.421 105.195 197.766 105.933 196.987L107.587 199.314C107.927 199.796 108.721 199.656 108.836 199.058C108.95 198.428 109.104 197.845 109.284 197.252C110.263 197.76 111.749 198.341 112.6 197.91C112.624 197.955 112.632 197.998 112.671 198.046C116.159 202.499 114.292 207.972 110.453 211.406Z" fill="#173B1A"/>
<path d="M176.781 55.4069C177.592 62.434 178.237 69.1353 182 75.2815C182.57 76.2158 183.631 75.8337 184.032 75.0708C184.208 75.5945 184.45 76.1146 184.8 76.623C181.002 74.664 176.759 78.3715 178.195 82.5086C179.671 86.7681 184.12 87.0089 187.331 85.0517C187.274 89.5203 188.825 94.7407 194.16 94.6226C196.79 94.5685 198.916 92.1813 198.958 89.815C200.644 90.9246 202.424 92.3542 204.208 91.5245C206.807 90.3221 206.575 85.8303 206.181 82.931C209.291 83.7285 212.912 83.9887 215.055 81.2212C216.567 79.2699 216.646 76.6253 215.046 74.9039C215.893 74.2356 216.642 73.4423 217.251 72.532C220.38 76.2626 226.108 75.2088 227.506 70.3878C229.367 72.9999 233.117 73.8563 236.108 72.0199C240.995 69.0326 240.677 63.2515 238.503 58.7183C243.192 58.9404 247.588 55.3686 246.444 50.1048C246.255 49.2277 245.213 47.6961 243.995 46.4893C247.146 45.9731 250.205 44.2478 251.08 40.9902C251.734 38.5384 250.948 35.9384 249.091 34.4041C251.064 33.1051 252.702 31.1781 252.177 28.6614C251.835 27.0123 250.557 25.6063 249.002 25.3788C250.306 22.6448 249.96 18.7837 246.665 17.7626C244.332 17.0419 242.048 18.3869 241.244 20.3935C236.758 17.0122 230.066 20.9801 231.636 27.0363C231.349 26.9155 231.045 26.8404 230.751 26.759C231.393 26.6875 231.708 25.7365 230.983 25.3923C217.242 18.8167 203.465 17.2766 188.466 16.2344C184.448 15.9547 180.453 15.4344 176.766 13.701C173.624 12.2281 171.111 9.82429 168.086 8.16998C164.242 6.06358 158.957 4.86956 155.342 8.11913C145.722 16.7667 163.023 26.7404 167.498 31.8656C173.388 38.619 175.765 46.6591 176.781 55.4069ZM213.695 79.3098C212.359 80.9851 210.788 81.6437 208.983 81.2701C207.627 81.2361 206.387 80.8574 205.095 80.4931C204.492 80.3193 203.789 80.9993 203.908 81.6097C204.427 84.2804 205.379 90.3232 201.204 89.2133C200.195 88.9447 199.363 88.3105 198.434 87.845C198.213 87.4677 197.914 87.1161 197.527 86.7964C196.775 86.1695 195.978 87.0842 196.295 87.8473C196.254 87.978 196.253 88.1084 196.284 88.2449C195.644 92.4782 194.041 93.5958 191.474 91.5977C190.571 90.9498 190.03 90.0781 189.831 88.9953C189.003 86.9093 189.206 84.9741 189.598 82.7815C189.783 81.7403 188.416 81.1738 187.757 81.9603C186.279 83.7386 183.622 85.1173 181.379 83.4675C178.663 81.4814 180.806 76.307 184.484 78.218C185.076 78.5286 185.513 78.0419 185.524 77.5218C185.726 77.7405 185.938 77.9529 186.183 78.1634C187.134 78.9839 188.295 77.4951 187.39 76.6508C182.677 72.2875 188.856 65.6582 193.584 70.0654C194.268 70.7037 195.466 69.8259 195.067 68.9815C193.522 65.7045 196.117 63.008 198.995 63.3121C198.504 65.3466 199.538 67.6764 202.191 68.5569C201.421 71.1006 202.562 74.267 205.276 75.8447C207.864 77.3572 210.702 77.2374 213.119 76.0896L213.695 79.3098ZM185.461 51.073C187.735 44.1288 195.541 51.5223 199.899 54.2586C199.427 54.8853 199.106 55.6556 199.012 56.6082C198.836 58.3611 199.549 59.8617 200.764 60.7496C200.34 61.0429 199.994 61.4002 199.707 61.7853C196.087 60.7176 192.58 63.4904 192.682 67.1818C191.519 66.6549 190.346 66.5585 189.243 66.7367C189.26 66.6502 189.289 66.5824 189.282 66.4914C189.137 61.38 183.81 56.1061 185.461 51.073ZM232.974 28.0052C233.33 27.8128 233.594 27.4153 233.447 26.9134C231.91 21.8264 238.168 18.917 241.165 23.1606C241.871 24.1539 243.16 23.2283 242.908 22.2087C242.252 19.5278 246.42 18.6943 247.661 21.2191C248.453 22.8167 247.765 24.6418 246.926 26.0296C246.781 26.2709 246.82 26.4906 246.95 26.6626C247.043 26.9008 247.235 27.085 247.55 27.105C249.268 27.209 250.596 28.5676 249.953 30.5402C249.514 31.883 247.702 32.8543 246.549 33.3736C245.77 33.7289 245.572 35.0042 246.494 35.3457C249.265 36.3716 249.929 39.8128 248.297 42.1734C246.971 44.0952 244.641 44.8765 242.412 45.2203C241.034 44.3742 239.758 44.3885 239.434 46.5288C239.284 47.5116 240.72 47.7242 240.944 46.7801C242.266 46.6525 243.143 47.1812 243.569 48.349C244.346 49.1846 244.732 50.1814 244.735 51.3487C244.548 55.3106 241.151 57.8518 237.142 56.6435C236.264 56.3757 235.472 57.218 236.004 58.0552C237.813 60.8939 239.148 64.4079 237.547 67.7046C235.439 72.0618 229.739 72.2969 228.017 67.6227C227.713 66.7888 226.279 67.0742 226.452 67.9891C226.522 68.3453 226.628 68.684 226.753 69.01C226.665 69.0828 226.589 69.1823 226.553 69.3223C224.801 74.1643 221.942 74.5985 217.968 70.639C217.623 69.9766 216.742 69.8879 216.376 70.6003C215.175 72.9299 213.241 74.7015 210.517 75.1129C209.776 75.1081 209.034 75.1033 208.293 75.0985C203.958 74.2677 203.4 71.459 206.603 66.6692C207.678 66.298 207.036 64.7702 205.985 65.0564C204.627 65.4136 203.627 66.1096 202.959 66.992C203.07 65.194 203.181 63.396 203.3 61.5995C204.467 61.4335 204.24 59.8639 203.129 59.8284C200.287 58.7888 200.216 57.4695 202.93 55.8815C203.777 53.6955 205.251 52.9935 207.338 53.7644C207.967 53.8453 208.527 53.2275 208.278 52.6164C207.048 49.6123 208.426 47.1701 210.573 46.28C211.211 47.1134 212.305 46.6887 212.606 45.939C213.795 45.9897 215.041 46.4674 216.119 47.5164C216.503 47.8926 217.127 47.4095 217.041 46.9686C217.611 47.185 218.21 46.4523 217.635 46.0474C213.488 43.1071 218.154 39.2775 221.2 39.7282C223.548 40.0765 225.06 41.7481 226.316 43.6476C226.645 44.1436 227.602 43.9616 227.626 43.3299C227.791 40.1144 230.673 36.9024 234.204 37.5858C237.813 38.2923 238.911 42.2744 238.321 45.3668C238.187 46.0589 239.192 46.3433 239.485 45.7146C241.198 42.0072 238.878 37.299 234.93 36.2411C232.191 35.5072 229.644 36.6543 228.004 38.6378C227.909 38.5379 227.786 38.457 227.627 38.3935C224.855 37.3268 222.955 34.1604 224.231 31.2333C225.529 28.2779 229.252 27.4644 231.983 28.7435C232.519 29.0104 233.038 28.4745 232.974 28.0052ZM226.804 40.2824C226.858 40.3009 226.908 40.2943 226.965 40.2971C226.799 40.6485 226.648 41.0029 226.535 41.3807C224.251 38.5482 220.303 36.3073 217.009 38.7866C214.888 40.3835 214.227 43.4622 215.551 45.5624C214.468 44.8307 213.307 44.5081 212.183 44.4946C210.756 42.5538 209.439 40.5448 208.364 38.3865C207.77 37.1946 207.225 35.9632 206.765 34.7155C205.948 32.4849 205.634 32.2119 207.415 30.1741C209.247 28.0889 209.759 28.392 212.316 28.7563C213.324 28.9024 214.321 29.1035 215.311 29.344C217.649 29.9107 219.83 30.7408 222.02 31.6949C221.248 35.1765 223.325 39.2012 226.804 40.2824ZM155.935 16.4422C156.796 14.0142 157.648 11.5925 158.51 9.16454C160.396 8.52591 162.209 8.55857 163.949 9.26254C169.214 10.7709 173.071 15.336 178.333 17.0722C183.325 18.7236 188.641 18.6999 193.835 18.9298C206.345 19.4739 218.398 22.2062 230.111 26.6106C227.28 26.1444 224.177 27.3798 222.713 29.9686C218.292 27.6443 207.741 23.2201 204.325 28.1809C202.918 30.2258 203.609 32.7666 204.358 34.9269C205.615 38.5482 207.443 41.9209 209.662 45.043C207.271 46.1388 205.619 48.7728 206.305 51.9736C204.596 51.912 202.737 52.1969 201.319 53.0322C196.741 50.0003 190.182 41.771 184.603 47.5372C179.2 53.109 186.558 60.8808 186.819 66.7408C186.834 67.0864 186.975 67.3259 187.16 67.5085C185.148 68.6695 183.732 70.8842 183.733 73.2424C177.851 62.4433 180.551 49.2498 174.916 38.1884C172.638 33.7251 169.548 29.7491 165.788 26.4513C163.73 24.6495 161.38 23.1748 159.396 21.2815C158.211 20.1546 156.157 18.158 155.935 16.4422Z" fill="#173B1A"/>
<path d="M123.942 232.106C126.267 231.602 128.578 231.045 130.897 230.531C131.502 230.396 131.584 229.636 131.335 229.196C130.146 227.073 127.86 225.309 125.395 225.061C125.1 225.028 124.855 225.111 124.674 225.247C124.571 225.105 124.393 225.013 124.215 225.003C123.923 224.996 123.685 225.129 123.395 225.024C123.173 224.949 122.977 224.78 122.833 224.597C122.675 224.404 122.552 224.151 122.503 223.897C122.517 223.867 122.539 223.839 122.547 223.799C122.611 223.551 122.674 223.31 122.739 223.061C122.812 222.978 122.832 222.875 122.809 222.781C123.529 220.114 124.388 217.742 126.151 215.464C126.433 215.103 126.49 214.469 126.069 214.159C123.806 212.53 120.872 212.762 118.701 214.496C116.134 216.545 115.606 220.033 115.724 223.132C113.28 222.439 110.656 222.38 108.165 222.852C107.547 222.969 106.993 223.556 107.261 224.236C107.855 225.721 108.729 227.106 109.824 228.281C103.19 229.421 99.1332 236.934 98.7917 243.632C98.454 250.437 100.266 264.136 108.608 266.101C116.694 268.001 126.266 255.305 129.698 249.67C133.37 243.681 133.516 231.838 123.942 232.106ZM109.743 224.651C112.253 224.247 114.677 224.496 117.194 225.105C117.942 225.291 118.337 224.135 117.631 223.819C117.503 223.762 117.365 223.719 117.229 223.66C117.262 223.576 117.288 223.484 117.283 223.385C117.301 221.095 117.594 218.443 119.197 216.656C120.393 215.321 122.399 214.526 124.095 215.165C122.312 217.675 120.976 220.615 120.827 223.703C120.802 224.213 121.164 224.454 121.568 224.475C121.952 225.692 123.437 226.705 124.326 226.118C124.367 226.453 124.598 226.775 125.039 226.901C126.693 227.376 128.022 228.058 129.113 229.248C127.066 229.92 125.015 230.568 122.977 231.275C122.444 231.458 122.604 232.402 123.19 232.279C123.216 232.276 123.25 232.266 123.277 232.255C122.931 232.482 122.786 232.935 122.872 233.335C122.78 233.473 122.709 233.63 122.696 233.824C122.605 235.43 122.144 236.842 121.343 238.156C120.134 236.396 118.924 234.636 117.713 232.884C117.4 232.432 116.827 232.361 116.368 232.624C114.979 233.432 113.552 234.102 112.087 234.675C113.096 233.467 114.16 232.311 115.174 231.079C115.227 231.016 115.255 230.956 115.276 230.886C115.712 230.449 115.784 229.696 115.034 229.355C114.898 229.296 114.782 229.224 114.654 229.167C114.696 228.865 114.545 228.509 114.192 228.433C113.802 228.341 113.426 228.301 113.044 228.252C111.675 227.317 110.554 226.154 109.743 224.651ZM105.161 260.979C98.2277 251.943 98.9309 232.203 111.661 229.877C112.259 230.286 112.904 230.623 113.575 230.908C111.608 232.216 110.069 234.056 108.684 235.983C108.124 236.772 108.762 237.818 109.737 237.542C112.152 236.867 114.421 235.894 116.605 234.685C117.92 236.579 119.235 238.466 120.55 240.36C120.882 240.833 121.667 240.952 122.049 240.454C123.517 238.56 124.278 236.569 124.483 234.243C141.477 238.176 114.128 272.661 105.161 260.979Z" fill="#173B1A"/>
<path d="M109.001 241.127C107.592 241.532 106.079 242.944 106.478 244.547C106.63 245.156 107.438 244.945 107.579 244.467C107.735 243.958 107.749 243.463 108.007 242.974C108.278 242.456 108.695 242.031 109.237 241.801C109.664 241.622 109.449 241.002 109.001 241.127Z" fill="#173B1A"/>
<path d="M113.129 244.391C111.996 245.184 111.41 246.441 111.446 247.819C111.468 248.59 112.718 248.497 112.647 247.725C112.546 246.685 112.961 245.762 113.739 245.072C114.124 244.73 113.545 244.096 113.129 244.391Z" fill="#173B1A"/>
<path d="M110.232 254.43C109.559 253.647 109.271 252.522 109.947 251.641C110.264 251.229 109.686 250.717 109.341 251.108C108.372 252.193 108.337 254.104 109.591 254.999C109.949 255.256 110.578 254.831 110.232 254.43Z" fill="#173B1A"/>
<path d="M152.84 127.172C152.803 127.148 152.773 127.134 152.737 127.111C153.313 124.766 151.208 122.025 149.588 120.529C147.575 118.662 144.982 117.687 142.267 117.676C142.553 117.291 142.854 116.917 143.187 116.548C144.257 115.36 146.575 114.43 147.065 112.909C147.777 110.705 144.808 108.931 143.067 108.945C139.947 108.962 137.47 112.064 135.991 114.479C135.656 115.026 135.386 115.578 135.148 116.135C135.068 116.087 134.989 116.031 134.886 116.011C129.607 114.622 123.939 116.21 120.177 120.092C118.942 120.065 117.687 120.222 116.435 120.624C110.329 122.617 107.881 128.352 108.038 134.372C108.173 139.579 109.221 144.914 109.878 150.076C110.391 154.092 110.342 158.684 111.656 162.561C112.908 166.255 116.985 169.092 120.137 165.581C120.429 165.254 119.995 164.754 119.629 165.002C113.442 169.23 112.713 154.443 112.433 152.137C111.938 148.035 111.435 143.931 110.957 139.824C110.356 134.706 109.474 128.889 113.764 125.02C118.47 120.773 124.162 122.601 127.838 126.837C127.227 127.086 126.619 127.36 126.048 127.699C123.13 127.852 122.196 130.698 121.378 133.404C119.291 140.311 118.391 147.578 118.7 154.794C118.93 160.183 120.987 176.239 129.903 168.198C130.042 168.069 130.17 167.915 130.303 167.777C129.909 171.838 134.842 172.401 137.726 170.152C141.687 167.051 144.669 161.468 147.537 157.396C150.263 153.517 153.231 149.563 155.218 145.24C157.827 139.56 158.627 131.335 152.84 127.172ZM141.791 119.289C144.216 119.408 146.452 120.42 148.197 122.112C149.043 122.928 149.773 123.918 150.259 124.991C150.412 125.339 150.518 125.678 150.631 126.018C148.861 125.382 146.984 125.345 145.26 125.86C145.24 125.799 145.236 125.733 145.2 125.669C143.994 123.51 142.163 122.258 139.902 121.845C140.299 120.885 140.762 119.971 141.29 119.094C141.425 119.202 141.589 119.283 141.791 119.289ZM134.404 123.522C134.817 123.455 135.195 123.186 135.263 122.75C135.749 119.817 136.566 117.071 138.334 114.638C139.023 113.695 140.042 112.391 141.038 111.8C142.848 110.453 143.939 110.468 144.293 111.842C144.774 112.433 144.579 112.852 143.707 113.1C142.651 114.593 140.997 115.676 139.928 117.24C138.857 118.811 138.061 120.477 137.43 122.264C137.144 123.065 137.599 123.79 138.47 123.803C140.659 123.835 142.235 124.883 143.313 126.691C142.372 127.251 141.524 128.009 140.838 128.937C138.121 126.282 134.038 125.328 130.165 126.113C129.856 125.563 129.497 125.053 129.119 124.564C130.879 124.195 132.633 123.816 134.404 123.522ZM128.138 123.477C126.556 121.914 124.571 120.828 122.42 120.347C125.904 117.945 130.098 117.141 134.359 118.145C134.137 118.787 133.931 119.433 133.697 120.089C133.12 121.724 133.205 121.707 131.751 122.389C130.673 122.898 129.357 123.166 128.138 123.477ZM129.819 164.501C129.203 165.957 127.978 166.47 126.152 166.036C123.734 167.403 122.434 166.785 122.246 164.17C121.243 160.875 121.115 156.942 121.033 153.532C120.955 150.686 121.36 129.957 126.592 129.95C127.228 129.95 127.58 129.398 127.606 128.841C128.167 128.639 128.746 128.474 129.318 128.34C129.669 128.424 130.044 128.341 130.32 128.142C132.551 127.782 134.818 128.001 136.966 129.085C141.966 131.628 142.143 136.655 140.904 141.458C139.192 148.111 135.346 154.662 132.081 160.655C131.435 161.844 130.801 163.557 129.819 164.501ZM149.273 150.495C147.102 153.787 144.828 157.019 142.506 160.208C141.437 161.682 140.354 163.146 139.251 164.588L137.928 166.323C136.716 168.455 134.691 168.757 131.849 167.211C131.879 166.883 131.732 166.634 131.521 166.503C135.081 162.272 137.275 156.038 139.468 151.282C141.785 146.263 144.847 140.222 143.759 134.504C143.496 133.123 143.019 131.921 142.381 130.876C146.739 123.192 154.607 130.859 154.84 136.526C155.058 141.684 151.996 146.371 149.273 150.495Z" fill="#173B1A"/>
<path d="M165.53 243.834C165.692 243.335 165.87 242.839 166.077 242.357C167.282 239.465 169.28 237.232 171.007 234.678C171.522 233.913 170.727 232.706 169.842 233.359C168.122 234.617 166.717 236.312 165.618 238.237C163.783 231.909 158.026 226.03 151.189 227.457C150.526 227.597 150.019 228.152 150.271 228.87C152.425 235.153 157.187 240.228 163.62 242.15C163.721 242.178 163.804 242.17 163.881 242.152C163.668 242.788 163.493 243.439 163.328 244.085C152.896 238.117 139.871 242.687 135.79 254.161C131.964 264.909 138.847 276.522 149.474 279.794C159.97 283.024 171.925 277.072 176.513 267.279C180.936 257.789 176.986 244.933 165.53 243.834ZM163.964 241.091C163.599 240.914 163.26 240.726 162.905 240.535C162.24 239.166 161.084 237.971 160.146 236.786C159.006 235.342 157.872 233.907 156.712 232.483C156.368 232.065 155.68 232.503 156.008 232.958C157.056 234.458 158.124 235.938 159.198 237.427C159.533 237.892 159.861 238.388 160.197 238.885C156.845 236.515 154.263 233.371 152.743 229.422C155.896 229.322 158.702 230.844 160.7 233.418C162.525 235.753 163.128 238.498 164.228 241.117C164.21 241.171 164.183 241.223 164.165 241.277C164.121 241.211 164.062 241.134 163.964 241.091ZM172.592 269.115C167.516 276.456 157.504 280.377 148.937 277.087C140.864 273.983 135.451 265.233 137.524 256.626C140.282 245.198 152.671 240.839 162.817 245.291C162.9 245.324 162.971 245.337 163.043 245.343C162.652 247.324 162.47 249.32 162.553 251.164C162.594 252.094 164.175 252.229 164.232 251.26C164.33 249.533 164.537 247.827 164.902 246.152C176.577 247.465 178.392 260.732 172.592 269.115Z" fill="#173B1A"/>
<path d="M188.521 358.959C184.489 353.315 176.903 354.148 170.957 355.274C171.058 354.16 171.286 353.151 171.643 352.192C172.073 352.161 172.467 351.854 172.407 351.32C172.389 351.121 172.347 350.917 172.311 350.722C172.851 349.701 173.532 348.715 174.363 347.709C174.82 347.161 174.112 346.265 173.507 346.735C172.795 347.291 172.177 347.955 171.649 348.701C169.956 345.224 165.873 343.006 162.088 342.959C161.478 342.947 161.076 343.677 161.276 344.205C162.744 348.128 165.984 351.121 170.045 352.103C169.688 353.397 169.549 354.749 169.656 356.051C169.641 356.088 169.616 356.133 169.608 356.172C165.302 353.503 160.545 351.44 155.936 353.877C151.046 356.464 150.009 362.921 149.783 367.879C149.531 373.485 150.25 380.943 154.462 385.193C157.841 388.605 163.238 389.217 166.555 385.567C167.588 389.251 171.674 389.854 175.1 388.216C180.62 385.58 185.235 379.187 187.891 373.85C190.14 369.357 191.704 363.426 188.521 358.959ZM163.58 344.945C166.894 345.488 169.102 347.866 170.447 350.908C170.446 350.916 170.444 350.924 170.435 350.93C167.365 349.928 164.92 347.848 163.58 344.945ZM187.288 370.013C186.136 373.347 184.257 376.395 182.075 379.154C181.286 380.152 180.454 381.125 179.565 382.047C177.687 383.992 169.849 391.737 167.509 384.307C167.363 383.839 166.761 383.828 166.483 384.125C166.16 383.94 165.739 383.924 165.383 384.247C157.599 391.373 152.714 379.551 151.911 374.296C151.325 370.454 151.332 366.286 152.254 362.491C155.71 348.26 167.986 358.102 175.559 361.681C176.36 362.056 176.909 360.906 176.163 360.459C174.663 359.565 173.027 358.408 171.298 357.266C174.064 356.716 176.804 356.218 179.631 356.537C187.122 357.374 189.476 363.68 187.288 370.013Z" fill="#173B1A"/>
<path d="M97.6982 228.587C94.4256 226.061 89.8103 222.883 85.6302 222.474C85.3174 222.446 85.0089 222.607 84.8062 222.853C84.7707 222.447 84.4759 222.03 83.9495 222.01C83.3728 221.996 82.8788 222.146 82.4404 222.387C82.0431 221.911 81.3626 221.632 80.7738 221.428C80.1393 221.208 79.2703 220.933 78.5884 221.169C78.8337 220.702 78.7906 220.082 78.1728 219.774C74.1147 217.765 69.3358 216.318 64.7554 216.713C64.37 216.385 63.7599 216.292 63.3872 216.742C61.4147 219.134 59.6523 221.706 57.9546 224.323C58.1403 222.099 58.6374 219.951 59.3449 217.771C59.4094 217.775 59.4754 217.772 59.5426 217.72C59.9399 217.437 60.445 217.315 60.9311 217.417C61.3858 217.513 61.6918 217.956 62.1659 217.909C62.3575 217.889 62.5749 217.735 62.6003 217.52C62.672 216.685 61.6833 216.355 60.9887 216.319C60.5282 216.295 60.0984 216.407 59.7211 216.628C59.9764 216.237 59.9589 215.695 59.4091 215.458C56.1291 214.024 51.8275 213.779 48.2881 214.065C48.0557 214.085 47.9058 214.227 47.8236 214.399C47.5767 214.368 47.3179 214.44 47.1092 214.718C47.0655 214.775 47.0204 214.839 46.9673 214.902C46.0552 214.261 44.7025 213.999 43.7397 214.041C43.7316 213.999 43.7328 213.95 43.7168 213.906C43.8097 213.68 43.7326 213.403 43.4241 213.311C37.6487 211.533 23.0967 215.22 24.2632 223.401C24.311 223.745 24.5276 223.974 24.778 224.072C25.2868 226.797 27.8559 228.869 30.6279 230.23C38.0961 233.886 46.6836 236.144 54.7804 237.817C63.2611 239.572 71.9282 240.49 80.596 240.52C87.2497 240.542 94.1353 240.21 99.5921 236.004C99.9846 235.704 100.079 235.298 100.013 234.926C101.43 232.451 99.82 230.23 97.6982 228.587ZM78.3458 222.084C78.8494 222.476 79.6136 222.575 80.1888 222.849C80.5244 223.012 80.8449 223.253 81.1823 223.449C80.8157 223.868 80.4824 224.326 80.1584 224.777C79.2129 226.079 78.3257 227.417 77.437 228.762C77.4575 226.506 77.7705 224.299 78.3458 222.084ZM45.1977 215.319C45.571 215.456 45.8866 215.681 46.2022 215.905C44.4973 218.137 42.8303 220.385 41.1602 222.648C41.5445 220.03 42.3459 217.533 43.405 215.054C43.5149 215.034 43.6233 215.022 43.7349 215.036C44.2187 215.023 44.7474 215.158 45.1977 215.319ZM98.3773 234.186C88.3052 240.739 73.0135 238.424 61.8199 236.731C55.9291 235.844 50.1111 234.539 44.3912 232.853C38.972 231.257 27.8772 229.012 26.2089 222.496C28.504 216.413 36.4424 215.363 42.3826 214.35C40.385 217.757 39.3782 221.569 39.1452 225.514C39.1013 226.289 40.0865 227.059 40.688 226.269C43.2901 222.815 45.9428 219.396 48.4724 215.895C48.6157 215.703 48.6553 215.498 48.6446 215.301C51.7835 215.777 54.9492 216.537 58.086 216.94C56.2688 220.301 55.6223 224.19 55.8393 228.002C55.9012 229.115 57.3048 229.199 57.8213 228.385C60.0614 224.821 62.5367 221.432 64.8699 217.934C69.0548 218.867 73.0114 219.714 76.955 221.513C75.7394 224.844 75.2648 228.35 75.6122 231.91C75.7193 232.959 76.9737 233.054 77.4841 232.272C78.4319 230.832 79.386 229.401 80.3181 227.957C81.1116 226.724 82.3192 223.604 84.0901 223.645C84.3179 223.648 84.4808 223.565 84.5995 223.458C84.6211 223.641 84.7101 223.814 84.9184 223.96C87.0455 225.449 89.627 226.234 91.8941 227.505C94.0431 228.712 98.8914 230.98 98.6703 234.063C98.5653 234.1 98.4712 234.122 98.3773 234.186Z" fill="#173B1A"/>
<path d="M159.456 316.216C163.086 315.466 163.114 306.635 162.271 304.073C162.219 303.924 162.135 303.81 162.029 303.724C162.071 303.675 162.119 303.636 162.154 303.585C164.842 300.107 160.562 294.016 157.962 291.726C156.749 290.659 155.397 289.549 153.72 290.204C153.552 290.269 153.377 290.374 153.206 290.455C151.533 286.917 146.147 283.671 143.404 287.351C138.569 286.235 133.21 288.715 131.329 293.459C130.705 295.035 130.49 297.327 132.438 298.055C133.413 298.415 134.636 298.04 135.608 297.869C137.235 297.596 138.644 297.314 140.179 297.562C140.522 299.416 142.21 300.012 143.363 301.728C142.779 303.606 143.095 305.429 145.486 306.528C145.553 306.558 145.616 306.57 145.681 306.574C145.638 306.966 145.805 307.365 146.186 307.504C145.544 308.547 145.801 309.959 146.817 310.988C147.317 311.485 147.937 311.866 148.6 312.19C148.424 315.713 141.374 316.014 140.167 319.003C139.337 321.054 141.879 322.174 143.357 322.672C149.07 324.561 157.24 322.315 159.456 316.216ZM138.081 295.418C136.393 295.581 132.431 297.417 133.194 294.024C134.046 290.256 139.257 288.286 142.775 288.363C141.616 290.472 140.66 293.094 140.265 295.474C139.57 295.356 138.872 295.335 138.081 295.418ZM143.117 299.118C142.694 298.563 142.43 298.031 142.279 297.504C142.627 297.057 142.652 296.336 142.118 296.02C142.177 294.995 142.546 293.973 142.927 292.848C143.23 291.96 143.578 291.089 143.97 290.243C144.528 289.004 146.3 287.732 147.778 287.895C149.334 288.074 150.778 290.14 151.924 291.26C150.1 292.636 148.382 294.768 147.044 296.157C146.062 297.183 144.819 298.672 144.002 300.236C143.744 299.884 143.441 299.556 143.117 299.118ZM146.539 305.68C146.363 305.703 146.221 305.765 146.099 305.847C146.08 305.819 146.062 305.783 146.034 305.761C142.406 302.375 148.043 297.868 150.218 295.735C151.758 294.23 153.608 291.626 156.273 292.778C157.478 293.297 158.713 295.225 159.343 296.228C160.011 297.288 161.119 299.15 161.085 300.506C161.012 303.838 157.831 304.291 155.457 304.672C152.517 305.148 149.508 305.349 146.539 305.68ZM147.455 307.481C151.337 307.196 157.22 307.282 160.654 304.968C160.761 306.229 160.918 307.483 160.827 308.755C160.747 309.841 160.533 310.95 160.208 311.997C159.826 313.253 159.767 314.065 158.501 314.114C156.734 314.18 154.347 312.6 152.737 311.938C151.644 311.473 146.077 309.882 147.455 307.481ZM145.178 321.107C144.33 320.935 143.502 320.66 142.714 320.304C142.001 319.562 142.218 319.073 143.382 318.834C144.845 317.175 150.256 315.652 149.7 312.664C150.268 312.888 150.832 313.095 151.352 313.318C153.379 314.184 155.482 315.292 157.593 315.978C155.425 318.202 153.629 320.27 150.337 321.053C148.638 321.442 146.864 321.458 145.178 321.107Z" fill="#173B1A"/>
<path d="M126.006 288.103C125.744 287.775 125.391 287.699 125.066 287.775C125.055 285.896 121.881 284.376 120.434 283.843C120.816 283.093 121.196 282.35 121.636 281.636C121.994 281.052 122.888 280.271 122.987 279.588C123.127 278.612 121.947 278.008 121.159 277.945C118.13 277.702 117.363 282.172 117.637 284.509C117.624 284.49 117.619 284.473 117.605 284.462C116.349 283.11 114.487 282.823 112.945 283.707C112.898 283.657 112.849 283.615 112.77 283.6C107.034 282.506 99.643 284.226 97.4946 290.395C95.4912 296.151 99.5656 301.533 104.304 304.286C110.406 307.833 118.006 308.741 123.61 303.82C128.257 299.75 129.991 293.191 126.006 288.103ZM117.058 285.099C117.332 285.323 117.633 285.161 117.715 284.908C117.783 285.101 118.085 285.143 118.115 284.904C118.32 283.548 118.673 282.107 119.21 280.848C119.599 279.936 120.964 278.405 121.835 279.471C120.772 280.873 119.781 282.37 119.076 283.988C118.975 284.213 119.025 284.419 119.144 284.564C119.161 284.853 119.342 285.141 119.75 285.269C120.441 285.493 122.523 286.246 122.911 286.982C123.613 288.326 121.423 286.955 121.006 286.703C120.715 286.525 120.194 286.685 120.073 287.012C119.913 287.463 119.776 287.918 119.648 288.366C119.224 287.778 118.8 287.182 118.384 286.596C118.139 286.255 117.591 286.181 117.312 286.527C117.078 286.808 116.839 287.072 116.595 287.319C116.774 286.733 116.849 286.176 116.669 285.758C116.373 285.097 115.407 284.731 114.505 284.458C115.349 284.23 116.235 284.417 117.058 285.099ZM122.293 302.488C117.723 306.581 111.064 305.994 105.953 303.185C100.571 300.218 96.5217 294.368 100.627 288.414C103.03 284.938 108.381 284.734 112.208 284.356C112.065 284.671 112.11 285.072 112.49 285.218C112.961 285.399 115.018 285.855 115.249 286.266C115.57 286.843 114.53 288.673 114.325 289.229C114.091 289.845 114.706 290.461 115.309 290.089C116.246 289.503 117.034 288.848 117.772 288.068L119.427 290.396C119.766 290.878 120.56 290.738 120.676 290.14C120.79 289.509 120.943 288.927 121.123 288.333C122.102 288.841 123.589 289.423 124.439 288.991C124.463 289.037 124.471 289.079 124.511 289.128C128 293.573 126.131 299.053 122.293 302.488Z" fill="#173B1A"/>
<path d="M140.841 347.161C143.167 346.656 145.477 346.1 147.796 345.586C148.402 345.45 148.483 344.691 148.234 344.251C147.046 342.128 144.76 340.364 142.295 340.115C141.999 340.083 141.754 340.166 141.573 340.302C141.47 340.16 141.292 340.068 141.114 340.058C140.822 340.051 140.584 340.184 140.294 340.079C140.072 340.003 139.877 339.835 139.732 339.652C139.574 339.458 139.452 339.206 139.403 338.952C139.417 338.922 139.439 338.893 139.446 338.854C139.511 338.606 139.574 338.365 139.638 338.116C139.711 338.032 139.731 337.93 139.708 337.836C140.429 335.169 141.287 332.797 143.05 330.519C143.332 330.158 143.39 329.524 142.968 329.214C140.705 327.585 137.772 327.817 135.6 329.551C133.033 331.6 132.505 335.088 132.624 338.187C130.179 337.493 127.555 337.434 125.065 337.907C124.447 338.024 123.893 338.61 124.161 339.29C124.754 340.776 125.629 342.161 126.723 343.336C120.089 344.475 116.033 351.988 115.691 358.687C115.353 365.491 117.166 379.191 125.508 381.156C133.593 383.055 143.165 370.359 146.597 364.725C150.269 358.736 150.415 346.892 140.841 347.161ZM126.642 339.705C129.152 339.302 131.576 339.551 134.094 340.16C134.841 340.346 135.236 339.19 134.53 338.874C134.403 338.817 134.264 338.773 134.129 338.715C134.161 338.631 134.187 338.538 134.182 338.439C134.201 336.15 134.494 333.498 136.096 331.711C137.293 330.376 139.299 329.581 140.995 330.219C139.212 332.73 137.876 335.67 137.727 338.758C137.702 339.267 138.063 339.509 138.467 339.53C138.852 340.746 140.336 341.76 141.225 341.173C141.266 341.507 141.498 341.83 141.938 341.956C143.593 342.431 144.921 343.112 146.013 344.303C143.965 344.975 141.914 345.623 139.876 346.33C139.343 346.512 139.503 347.457 140.09 347.334C140.115 347.331 140.149 347.321 140.176 347.31C139.83 347.537 139.685 347.99 139.771 348.39C139.679 348.527 139.608 348.685 139.595 348.878C139.505 350.485 139.044 351.897 138.243 353.21C137.033 351.45 135.823 349.691 134.612 347.938C134.3 347.486 133.726 347.416 133.267 347.678C131.879 348.487 130.452 349.157 128.986 349.73C129.995 348.522 131.059 347.365 132.073 346.133C132.126 346.07 132.154 346.01 132.175 345.941C132.611 345.503 132.683 344.75 131.933 344.409C131.798 344.35 131.681 344.279 131.554 344.222C131.596 343.92 131.444 343.564 131.092 343.488C130.702 343.396 130.326 343.356 129.944 343.306C128.574 342.372 127.453 341.209 126.642 339.705ZM122.06 376.034C115.127 366.998 115.83 347.258 128.56 344.932C129.158 345.341 129.803 345.678 130.474 345.963C128.507 347.271 126.968 349.111 125.584 351.038C125.023 351.827 125.661 352.873 126.637 352.596C129.052 351.921 131.321 350.949 133.505 349.74C134.819 351.634 136.135 353.52 137.449 355.415C137.782 355.887 138.567 356.006 138.948 355.509C140.417 353.615 141.177 351.624 141.383 349.298C158.376 353.231 131.027 387.716 122.06 376.034Z" fill="#173B1A"/>
<path d="M125.901 356.182C124.492 356.586 122.979 357.999 123.378 359.602C123.53 360.211 124.338 360 124.479 359.521C124.635 359.013 124.649 358.518 124.907 358.029C125.178 357.511 125.595 357.085 126.137 356.856C126.563 356.677 126.349 356.056 125.901 356.182Z" fill="#173B1A"/>
<path d="M130.028 359.446C128.896 360.238 128.31 361.496 128.345 362.873C128.367 363.645 129.617 363.552 129.546 362.779C129.445 361.74 129.861 360.817 130.639 360.127C131.023 359.785 130.444 359.151 130.028 359.446Z" fill="#173B1A"/>
<path d="M127.132 369.484C126.459 368.701 126.171 367.577 126.847 366.696C127.164 366.284 126.585 365.772 126.241 366.162C125.272 367.248 125.237 369.158 126.491 370.054C126.849 370.311 127.478 369.886 127.132 369.484Z" fill="#173B1A"/>
</svg>
