<svg width="57" height="62" viewBox="0 0 57 62" fill="none" xmlns="http://www.w3.org/2000/svg">
<path d="M34.3772 3.76172C34.0407 3.76172 33.7609 3.95743 33.5999 4.08789C33.4106 4.24117 33.2285 4.43746 33.0696 4.63086C32.7819 4.981 32.5117 5.3996 32.3704 5.69727L32.012 6.24805L31.9915 6.27832L31.9749 6.31152L30.8479 8.60938L30.0481 9.95117H30.0471L30.0452 9.95508L28.927 11.8623L28.9221 11.8701L28.9182 11.8789L28.6643 12.3438L27.635 14.0967C26.4094 16.1759 25.7282 18.5284 25.6516 20.9355L25.6448 21.416V52.1416L25.6487 52.1777C25.7168 52.7342 25.8538 53.2798 26.0549 53.8027C26.0543 53.85 26.0574 53.8971 26.0608 53.9443C26.0543 54.0393 26.0546 54.1348 26.0647 54.2295L26.0754 54.3359L26.1243 54.4326C26.4127 55.0117 26.7884 55.5432 27.2385 56.0078L27.2502 56.0195C28.1656 56.9141 29.3334 57.5067 30.5959 57.7168L30.6448 57.7246H48.5334C49.17 57.7052 49.7969 57.5602 50.3772 57.2979C50.9575 57.0354 51.4803 56.6605 51.9153 56.1953C52.3502 55.7301 52.6894 55.1835 52.9124 54.5869C53.1325 53.9977 53.2341 53.3708 53.2141 52.7422L53.2151 52.7432L53.3459 21.2656V21.2598C53.3329 18.8675 52.7371 16.5143 51.6096 14.4043L51.6077 14.3994L46.8284 5.63184C46.6759 5.3092 46.353 4.8858 46.0383 4.55469C45.8654 4.37279 45.6708 4.19306 45.4768 4.05371C45.3133 3.93629 45.0375 3.76188 44.7239 3.76172H34.3772ZM22.5266 18.6709C22.5193 17.7888 22.6865 16.9154 23.0178 16.1006L23.1702 15.7549L26.843 8.69434L26.9104 8.56445V8.15527L28.5022 5.26562L28.5071 5.25488L28.5129 5.24414L29.1614 3.94434L29.4182 3.49805L29.4211 3.49121C29.508 3.33474 29.6054 3.18445 29.7122 3.04102L29.8225 2.90039L30.0959 2.58496L30.1028 2.57715C30.6053 1.97581 31.2301 1.48835 31.9358 1.14746C32.6413 0.806619 33.4113 0.619557 34.1946 0.599609H44.6917C45.7454 0.616563 46.7735 0.928302 47.6594 1.49902C48.5454 2.06981 49.2543 2.87755 49.7053 3.83008L49.7083 3.83594L49.7112 3.84277L55.717 15.7666V15.7676C56.1702 16.6688 56.404 17.6642 56.3987 18.6729V53.4961C56.4316 55.3745 55.7249 57.1906 54.4309 58.5527C53.1369 59.9148 51.3594 60.7139 49.4817 60.7773H30.677C29.7169 60.8058 28.7605 60.6407 27.8655 60.292L27.844 60.2832L27.8215 60.2773L27.6145 60.2061C27.4105 60.1281 27.215 60.0284 27.0315 59.9092L27.0178 59.9004L27.0022 59.8916L26.6956 59.7168V59.7158L26.6848 59.71L26.5364 59.625C26.3902 59.5368 26.2495 59.4393 26.1165 59.332L26.0979 59.3164L26.0774 59.3027L25.7932 59.0986C25.5151 58.8871 25.2547 58.6531 25.0139 58.3994L25.009 58.3936L25.0032 58.3887C24.3354 57.7191 23.7891 56.9395 23.3889 56.085L23.2268 55.7139L23.2239 55.7061L23.1038 55.4102C22.99 55.1123 22.8939 54.808 22.8147 54.499L22.8137 54.4951L22.7209 54.1191C22.6365 53.7468 22.5709 53.3703 22.5237 52.9912C22.5158 52.8789 22.5163 52.7656 22.5247 52.6533L22.5276 52.6104L22.5247 52.5664C22.5147 52.4269 22.5147 52.2869 22.5247 52.1475L22.5266 52.126V18.6709Z" fill="#D4AF37" stroke="#F9F9F9" stroke-width="1.2"/>
<path d="M20.0713 5.06177C20.8334 4.91206 21.6194 4.93158 22.373 5.11938L22.3838 5.12231L24.3203 5.56665C24.3328 5.63776 24.3444 5.7291 24.3457 5.83813C24.3495 6.15351 24.2829 6.54804 24.083 6.92212L23.9883 7.0813C23.7459 7.44916 23.4743 7.72623 23.2676 7.86938C23.2456 7.88457 23.2241 7.89428 23.207 7.90454L23.1025 7.87915L21.9619 7.59399H21.9609C21.6523 7.51609 21.354 7.62163 21.1777 7.69849C20.9706 7.78884 20.7624 7.91819 20.5781 8.0481C20.2221 8.29904 19.8741 8.6109 19.6895 8.81958L17.668 10.9934L11.0996 17.2786L10.9746 17.3977L10.9326 17.5647L3.52344 46.9387L3.51367 46.9778L3.50879 47.0178C3.36324 48.3137 3.65606 49.6213 4.33984 50.7317L4.34961 50.7483L4.36035 50.7639C5.02854 51.7083 5.96961 52.4266 7.05664 52.8225L7.08594 52.8333L7.11719 52.8411L18.4932 55.6682L18.5088 55.6721L18.5254 55.675C18.5303 55.6766 18.5845 55.6947 18.6787 55.7786C18.7731 55.8626 18.8794 55.9879 18.9795 56.1506C19.1823 56.4805 19.3237 56.8993 19.332 57.2913C19.342 57.7611 19.285 58.164 19.1963 58.426C19.1803 58.4732 19.1615 58.5099 19.1475 58.5403L6.37598 55.3586H6.375C5.49612 55.1422 4.66484 54.7642 3.92383 54.2444L3.90723 54.2327L3.89062 54.2229L3.71973 54.1125C3.5523 53.9982 3.39419 53.8705 3.24707 53.7307L3.23242 53.7161L3.21582 53.7034L3.00586 53.5217C2.52359 53.0881 2.10668 52.5864 1.76758 52.0325L1.76465 52.0286C0.820615 50.5123 0.432888 48.7153 0.666992 46.9446L0.667969 46.9338C0.696682 46.6805 0.743205 46.4288 0.806641 46.1819V46.1799L7.99609 17.8147C8.22116 16.9656 8.64199 16.181 9.22363 15.5227L9.22266 15.5217L14.2383 9.98169L14.2432 9.97778L17.1406 6.70923L17.4707 6.39966L17.4727 6.39771C17.6277 6.25104 17.7908 6.11309 17.9619 5.9856L17.9629 5.98657C18.5895 5.5276 19.3091 5.21149 20.0713 5.06177ZM38.3525 47.7141L37.8232 47.6506C37.0358 47.5572 36.2699 47.3353 35.5557 46.9944L35.2529 46.8411C34.6702 46.5205 34.1739 46.0635 33.8066 45.509C33.5379 45.079 33.3734 44.5932 33.3242 44.0901H36.6445L36.6973 44.0803C36.7495 44.0709 36.8027 44.0689 36.8555 44.0706C36.9006 44.1055 36.9445 44.1419 36.9844 44.1829C37.1347 44.3664 37.3027 44.5349 37.4883 44.6829L37.502 44.6936L37.5156 44.7034C37.7763 44.8881 38.0698 45.0204 38.3799 45.0969V45.0979C38.3812 45.0983 38.3825 45.0985 38.3838 45.0989C38.3906 45.1005 38.3975 45.1031 38.4043 45.1047V45.1038C38.7513 45.1988 39.1102 45.2411 39.4697 45.2297C40.0635 45.2537 40.6549 45.15 41.2061 44.928L41.207 44.929C41.4662 44.832 41.6908 44.6605 41.8535 44.4368L41.8545 44.4377C42.0172 44.214 42.1107 43.9466 42.123 43.6702V43.6565C42.1276 43.4476 42.0841 43.2405 41.9961 43.051C41.9081 42.8614 41.7779 42.6941 41.6152 42.5627L41.5908 42.5432L41.5654 42.5266L41.2939 42.3665C41.017 42.2181 40.7221 42.1052 40.416 42.0305H40.415C39.7854 41.8615 39.1471 41.7265 38.5029 41.6262H38.5039C37.5806 41.4805 36.68 41.2152 35.8252 40.8372L35.8184 40.8342L35.8105 40.8313L35.5791 40.7258C35.0512 40.4625 34.5973 40.0691 34.2607 39.5813C33.9006 39.0346 33.7146 38.3912 33.7275 37.7366V37.5315C33.7394 37.1124 33.8278 36.6983 33.9883 36.3098C34.17 35.8699 34.4406 35.4722 34.7832 35.1418C35.6352 34.3596 36.7138 33.8681 37.8633 33.7395L38.3965 33.6799V31.6829H40.5068V33.6594L40.9912 33.7542C41.8078 33.9138 42.5898 34.2183 43.2988 34.6536C43.8455 35.0183 44.3174 35.4849 44.6895 36.0266L44.6924 36.0305C44.9292 36.3685 45.0755 36.7605 45.1201 37.1692H41.6865L41.6309 37.179C41.5895 37.1867 41.5477 37.189 41.5059 37.1877C41.4955 37.1778 41.4857 37.1674 41.4775 37.1555C41.2961 36.8304 41.0178 36.5697 40.6787 36.4133H40.6797C40.2572 36.2177 39.7967 36.1165 39.3311 36.1165C38.8656 36.1165 38.4058 36.2178 37.9834 36.4133L37.9414 36.4329L37.9043 36.4573C37.7 36.5926 37.5331 36.7785 37.4209 36.9963C37.3155 37.2009 37.2629 37.4278 37.2637 37.6575H37.2627C37.2553 37.8433 37.2874 38.0287 37.3564 38.2014C37.4255 38.3742 37.5305 38.5309 37.6641 38.6604L37.6836 38.679L37.7051 38.6965C38.0132 38.9446 38.3712 39.1234 38.7539 39.2229V39.2239C39.1542 39.3351 39.7433 39.4939 40.4697 39.6301L40.4902 39.634L40.5098 39.636C41.5763 39.7619 42.6207 40.0352 43.6123 40.4475C44.2282 40.716 44.7557 41.1525 45.1357 41.7063C45.4225 42.1983 45.5854 42.751 45.6113 43.3176L45.6143 43.5637V43.5735C45.6097 44.2334 45.417 44.8783 45.0596 45.4329C44.6565 46.0278 44.1084 46.5104 43.4668 46.8342L43.459 46.8381C42.6852 47.2434 41.8468 47.5113 40.9814 47.6301L40.4629 47.7014V49.6633H38.3525V47.7141Z" fill="#D4AF37" stroke="#F9F9F9" stroke-width="1.2"/>
</svg>
