<svg width="43" height="61" viewBox="0 0 43 61" fill="none" xmlns="http://www.w3.org/2000/svg">
<path d="M9.89677 50.3785C14.8103 50.3785 18.7935 46.3953 18.7935 41.4817C18.7935 36.5682 14.8103 32.585 9.89677 32.585C4.98322 32.585 1 36.5682 1 41.4817C1 46.3953 4.98322 50.3785 9.89677 50.3785Z" stroke="#D4AF37" stroke-width="2" stroke-miterlimit="10"/>
<path d="M33.1031 59.2752C38.0166 59.2752 41.9998 55.292 41.9998 50.3785C41.9998 45.4649 38.0166 41.4817 33.1031 41.4817C28.1895 41.4817 24.2063 45.4649 24.2063 50.3785C24.2063 55.292 28.1895 59.2752 33.1031 59.2752Z" stroke="#D4AF37" stroke-width="2" stroke-miterlimit="10"/>
<path d="M15.972 26.0779L9.82013 32.2395L3.66821 26.0779H15.972Z" stroke="#D4AF37" stroke-width="2" stroke-miterlimit="10"/>
<path d="M9.8967 25.7421C12.4356 25.7421 14.4938 23.6839 14.4938 21.1449C14.4938 18.606 12.4356 16.5478 9.8967 16.5478C7.35777 16.5478 5.29956 18.606 5.29956 21.1449C5.29956 23.6839 7.35777 25.7421 9.8967 25.7421Z" stroke="#D4AF37" stroke-width="2" stroke-miterlimit="10"/>
<path d="M39.2548 34.3125L33.1028 40.4644L26.9509 34.3125H39.2548Z" stroke="#D4AF37" stroke-width="2" stroke-miterlimit="10"/>
<path d="M33.1799 33.967C35.7188 33.967 37.7771 31.9088 37.7771 29.3699C37.7771 26.8309 35.7188 24.7727 33.1799 24.7727C30.641 24.7727 28.5828 26.8309 28.5828 29.3699C28.5828 31.9088 30.641 33.967 33.1799 33.967Z" stroke="#D4AF37" stroke-width="2" stroke-miterlimit="10"/>
<path d="M13.4094 1C13.4094 1 12.632 3.9368 10.1847 2.95787C10.1847 2.95787 4.41667 -1.14981 3.53371 4.03277C3.53371 4.03277 3.34176 7.74696 7.73736 7.65098C7.73736 7.65098 9.59925 8.62992 9.88717 10.3862V16.5478" stroke="#D4AF37" stroke-width="2" stroke-miterlimit="10"/>
<path d="M36.8269 10.0023C36.8269 10.0023 36.0495 12.9391 33.6022 11.9602C33.6022 11.9602 27.8341 7.85251 26.9512 13.0351C26.9512 13.0351 26.7592 16.7493 31.1548 16.6533C31.1548 16.6533 33.0167 17.6322 33.3047 19.3886V25.5501" stroke="#D4AF37" stroke-width="2" stroke-miterlimit="10"/>
</svg>
