<?xml version="1.0" encoding="UTF-8"?>
<svg id="Layer_1" data-name="Layer 1" xmlns="http://www.w3.org/2000/svg" xmlns:xlink="http://www.w3.org/1999/xlink" viewBox="0 0 720 720">
  <defs>
    <style>
      .cls-1 {
        fill: url(#linear-gradient-2);
      }

      .cls-2 {
        fill: #fff;
      }

      .cls-3 {
        fill: url(#linear-gradient);
      }
    </style>
    <linearGradient id="linear-gradient" x1="235.58" y1="359.17" x2="663.23" y2="359.17" gradientUnits="userSpaceOnUse">
      <stop offset="0" stop-color="#f7a400"/>
      <stop offset=".3" stop-color="#e89000"/>
      <stop offset=".92" stop-color="#c45f00"/>
      <stop offset="1" stop-color="#bf5800"/>
    </linearGradient>
    <linearGradient id="linear-gradient-2" x1="55.12" y1="360" x2="218.77" y2="360" xlink:href="#linear-gradient"/>
  </defs>
  <g>
    <path d="M662.75,344.55c-2.89-1.42-5.76-1.29-8.72-.13-2.22,.87-3.18,2.35-3.48,4.74-.79,6.33-1.57,12.68-2.91,18.9-1.02,4.78-2.8,9.4-4.43,14.02-.32,.92-1.51,1.53-2.29,2.28-.51-.96-1.39-1.9-1.46-2.89-.21-2.93-.27-5.89-.07-8.81,.66-10.08,1.47-20.15,2.2-30.23,.23-3.21-.56-4.26-3.68-4.99-.74-.17-1.52-.3-2.28-.28-4.83,.18-9.88,1.96-9.53,8.85,.24,4.65-.12,9.34-.25,14-.02,.75-.13,1.56-.43,2.23-3.23,7.16-6.47,14.31-9.78,21.43-.53,1.14-1.31,2.2-2.13,3.17-1.28,1.51-2.23,1.31-2.78-.63-.38-1.34-.61-2.76-.67-4.15-.61-14.29,.48-28.51,1.94-42.71,.05-.48,.85-1.22,1.35-1.27,1.84-.15,3.72,.07,5.56-.11,1.36-.14,2.81-.46,3.99-1.12,2.42-1.35,2.4-3.96-.05-5.26-1.25-.66-2.76-.96-4.19-1.1-1.82-.18-3.67-.05-5.78-.05,.33-1.77,.61-3.26,.88-4.75,.56-3.05-.14-4.82-2.46-6.28-2.82-1.77-5.73-2.03-8.72-.46-2.83,1.48-3.42,4.12-3.53,6.97-.06,1.7-.01,3.4-.01,5.12h-5l-.07,.22c-.78,2.59-2.98,4.54-5.58,5.91,.43,.09,.88,.27,1.36,.59,.87,.58,2.2,.55,3.33,.62,1.64,.09,3.29,.02,5.02,.02,.04,.67,.12,1.11,.08,1.54-.4,5.23-.73,10.46-1.24,15.68-.33,3.35-.61,6.77-1.54,9.98-1.3,4.53-3.08,8.93-4.86,13.3-.88,2.17-2.1,4.24-3.41,6.18-.99,1.46-2.41,1.28-3.11-.35-.51-1.2-.76-2.58-.85-3.89-.61-8.61,.49-17.1,2.11-25.54,.49-2.55,.02-4.72-2.1-6.32-2.61-1.99-5.44-2.78-8.6-1.29-3.03,1.43-3.51,4.14-3.6,7.06-.06,2.1,.31,4.36-.31,6.29-2.22,6.95-5.67,13.28-10.78,18.57-.67,.7-1.83,.94-2.76,1.39-.4-.91-1.06-1.78-1.18-2.71-.86-6.79-.52-13.53,1.18-20.17,.65-2.55-.44-4.37-3.03-4.97-3.97-.92-9.76,1.2-11.76,4.78-2.36,4.22-4.3,8.67-6.41,13.02-.33,.68-.57,1.39-.86,2.08-.33-1.83-.38-3.57-.12-5.26,.91-5.87,1.97-11.71,2.91-17.58,.74-4.59-2.1-7.31-6.72-6.52-5.71,.97-8.23,3.74-8.92,9.81-.38,3.35-.31,6.84-1.23,10.03-1.62,5.63-3.73,11.12-5.86,16.59-.82,2.11-2.07,4.12-3.46,5.93-1.53,1.99-3.41,1.62-4.1-.79-.63-2.19-1.05-4.49-1.19-6.77-1.06-17.19,.71-34.25,2.49-51.3,.6-5.72,1.44-11.41,2.01-17.13,.14-1.39,.03-3.05-.61-4.23-1.42-2.61-5.33-3.87-8.44-3.13-3.24,.78-5.14,2.83-5.45,6.32-.68,7.77-1.23,15.55-1.85,23.32-.36,4.52-.75,9.04-1.12,13.39-2.17-1.17-4.04-2.73-6.16-3.23-7.27-1.74-13.56,.24-18.45,5.99-5.73,6.75-7.49,14.81-7.35,23.42,.12,7.02,1.84,13.54,6.42,19.05,3.73,4.49,9.89,6.18,15.38,4.36,4.54-1.51,7.45-4.78,9.7-8.8,.32-.58,.65-1.15,1.14-2.05,.33,1.01,.5,1.66,.76,2.29,.93,2.23,1.7,4.56,2.9,6.65,1.95,3.4,4.93,4.48,8.8,3.96,4.12-.56,7.34-2.56,9.85-5.71,2.02-2.53,3.82-5.23,5.85-8.03,0,1.62-.17,3.13,.05,4.59,.22,1.45,.44,3.23,1.36,4.18,2.36,2.43,5.45,2.49,8.56,1.48,2.81-.91,4.06-2.92,4.46-5.83,.81-5.91,2.39-11.63,4.86-17.08,.39-.87,1.04-1.61,1.57-2.42,.24,.07,.48,.14,.71,.22,0,1.37,.02,2.75,0,4.12-.08,4.19,.31,8.26,2.11,12.15,2.81,6.09,11.31,7.43,15.71,2.98,2.19-2.22,4.15-4.68,6.17-7.07,.74-.87,1.37-1.84,2.21-2.96,.33,2.18,.47,4.04,.91,5.83,.45,1.85,1.03,3.7,1.81,5.43,2.54,5.58,11.14,10.03,17.38,3,2.02-2.27,3.56-4.96,5.29-7.48,.44-.64,.77-1.36,1.39-2.47,.15,.9,.2,1.2,.25,1.51,.67,4.31,1.5,8.57,4.09,12.24,1.26,1.79,2.86,3.13,5.11,3.38,3.62,.4,6.86-.64,9.62-2.95,4.01-3.34,6.69-7.69,8.97-12.31,.3-.6,.58-1.19,1.06-2.18,.42,2.09,.59,3.73,1.1,5.26,1.48,4.49,4.67,7.28,9.22,8.31,4.67,1.07,7.46-1.68,9.66-5.28,.98-1.6,1.84-3.26,2.88-5.1,0,1.79,.08,3.32-.01,4.83-.74,13.03-1.52,26.05-2.26,39.08-.17,3.07,1.05,4.12,4.05,3.59,6.38-1.14,11.4-7.15,11.53-13.89,.2-10.18,.16-20.36,.57-30.52,.54-13.29,1.4-26.56,2.16-39.84,.1-1.8-.48-3.11-2.12-3.92Zm-172.61,30.85c-1.09,3.67-2.99,7.14-4.79,10.56-.97,1.84-2.63,3.19-5,2.9-2.38-.29-3.66-1.91-4.49-3.98-1.49-3.69-1.68-7.57-1.55-11.48,.22-5.41,1.1-10.71,3.48-15.6,1.01-2.08,2.42-4.12,4.11-5.67,3.16-2.88,6.99-1.64,8.46,2.37,2.57,7,1.8,14.03-.23,20.9Zm-42.69-31.04c-6.36-3.81-15.67-4.36-21.92,2.94-5.48,6.39-7.66,13.85-7.92,22.62,.15,1.36,.2,3.29,.59,5.16,1.48,6.99,4.92,12.64,12.13,14.71,7.71,2.23,14.71,.68,20.22-5.54,6.41-7.23,8.09-15.74,6.41-25.03-1.13-6.22-3.92-11.52-9.51-14.86Zm-23.76,18.22v-4.05l2.77-2.02,2.77,2.02v4.05l-2.77,2.02-2.77-2.02Zm4.84,19.29l-3.1-1.47-.76-3.98,2.34-2.5,3.1,1.47,.76,3.98-2.34,2.5Zm5.49-4.09c-2.8-6.23-2.98-12.77-1.9-19.36,.41-2.47,1.18-4.99,2.31-7.22,1.66-3.28,4.95-3.27,6.96-.15,2.76,4.28,3.4,9.16,3.66,14.11,.03,.63,0,1.27,0,1.91-.04,2.78-.31,6.4-1.26,10.02-.35,1.35-1.01,3.36-2.56,4.25-.49,.28-1.08,.47-1.77,.52-2.86,.23-4.39-1.75-5.44-4.09Zm14.9,5.03c-2.66,3-5.75,4.83-9.23,5.48v-4.27c.96-.08,1.84-.35,2.61-.79,2.25-1.29,3.12-3.8,3.58-5.58,.82-3.16,1.27-6.7,1.33-10.54v-.62c.02-.49,.02-.97,0-1.45-.26-5.06-.94-10.41-4.01-15.18-.93-1.45-2.16-2.46-3.51-2.96v-2.99c2.3,.29,4.6,1.08,6.64,2.31,4.58,2.74,7.35,7.12,8.48,13.38,1.67,9.25-.25,16.84-5.9,23.21Zm136.55-58.78c.38-1.66,.25-2.21,.86-2.87-3.76-1-5.64-.64-9.54,.02-.42,1.04-.15,1.29-.12,2.83,3.48,.06,5.2-.21,8.81,.03Zm-1.82,4.65c-.34,0-.66,.02-.97,.02-.31,0-.6,.01-.88,.02-.28,0-.55,0-.81,0-1.32,0-2.49-.04-4.16-.19,.27,3.85,1.79,6.44,2.58,9.42,.84-1.93,1.53-3.61,2.39-5.52,.17-.38,.36-.77,.55-1.17,.38-.8,.81-1.66,1.3-2.59Zm-2.63,10.11c1.92-.3,3.24-.61,4.79-1.25,.52-.21,1.06-.46,1.67-.76,1.1-1.26,1.98-2.34,2.74-3.35s1.38-1.95,1.96-2.91c.39-.64,.75-1.29,1.11-1.98-.72-.06-1.33-.08-1.88-.08-.55,0-1.06,.02-1.56,.05-1.01,.05-2.03,.14-3.51,.14-1.23,2.49-2.28,4.39-3.35,6.36-.64,1.18-1.29,2.4-1.98,3.77Zm10.11-14.02c-.38-.35-.71-.65-1-.91s-.56-.5-.81-.72c-.12-.11-.24-.21-.36-.32-.35-.31-.67-.6-1.03-.93-.03,.06-.05,.12-.07,.18-.11,.37-.08,.83-.14,1.69,0,.14-.02,.3-.04,.47,.72,.08,1.26,.15,1.78,.23,.52,.08,1.01,.17,1.65,.3Zm-22.98,8.58c.6,1.27,1.42,2.6,2.43,4.06,2.54,1.1,3.83,1.41,6.43,1.58-.83-1.96-1.53-3.66-2.03-5.47-.44-1.59-.72-3.25-.78-5.25-.75-.09-1.41-.16-2.03-.23-1.23-.14-2.26-.28-3.35-.51-.54-.12-1.1-.25-1.7-.43-.14,.87-.16,1.71-.08,2.53,.13,1.24,.5,2.45,1.1,3.72Zm3.96-9.25c.14,0,.27-.02,.41-.03,.27-.02,.55-.03,.86-.05,.31-.01,.64-.02,1.02-.03,.02-.15,.03-.28,.05-.41,.03-.25,.07-.46,.1-.65,.07-.37,.13-.63,.2-.89,.02-.07,.03-.13,.05-.2-.11,.07-.21,.14-.31,.2-.7,.45-1.28,.82-1.99,1.21-.32,.18-.67,.37-1.07,.58-.2,.1-.41,.21-.64,.33,.17,0,.33-.02,.48-.02,.3-.02,.58-.03,.85-.05Zm-166.46,68.58c-.03-.27-.09-.54-.16-.82-.03-.13-.08-.26-.11-.39-.08-.26-.16-.51-.28-.76-.1-.25-.22-.5-.35-.73-.07-.12-.14-.24-.21-.35-.13-.22-.27-.42-.42-.63-.01-.02-.02-.04-.04-.05-.07-.1-.15-.2-.23-.29-.09-.1-.17-.2-.26-.3-.09-.1-.17-.18-.27-.28-.18-.18-.38-.37-.59-.53-.21-.18-.41-.34-.64-.48-.22-.16-.45-.3-.68-.42-.47-.26-.97-.47-1.49-.63-.13-.03-.26-.08-.39-.11-.09-.03-.17-.05-.27-.08v-4.04c3.02-.77,5.23-3.52,5.23-6.77s-2.21-6.01-5.23-6.79v-3c3.02-.82,5.23-3.56,5.23-6.8s-2.21-6-5.23-6.79v-3.02c3.02-.79,5.23-3.55,5.23-6.79s-2.21-6-5.23-6.79v-3.02c3.02-.79,5.23-3.54,5.23-6.79s-2.21-5.99-5.23-6.81v-2.99c3.02-.8,5.23-3.55,5.23-6.79s-2.21-6.02-5.23-6.81c-.36-1.54-1.67-2.26-3.12-2.58-.16-.03-.33-.07-.49-.09-1.97-.3-3.98,.05-3.98,.05-.15,.04-.3,.1-.46,.15-1.15,.42-2.23,1.12-5.94,5.47-2.55,2.98-3.83,4.46-4.51,5.75-.88,1.64-1.92,4.21-2.2,7.68-.53,.78-1.08,1.58-1.61,2.38-.52,.78-1.03,1.57-1.55,2.36-1.91,.88-4.67,3.84-7.9,9.12-3.23,5.29-4.72,9.21-4.52,11.06-.91,1.53-1.75,3.16-2.65,4.73-2.04,1.6-5.11,4.6-7.42,9.3-2.31,4.72-4.04,8.8-3.88,11.09-.97,1.68-1.73,2.59-2.84,4.12-1.9,.66-4.35,2.49-7.61,6.08-3.26,3.59-3.4,5.17-4.94,8.81-1.74,1.63-3.66,3.08-5.16,4.04-1.72-1.45-4.75-1.37-8.99-.07-.74,.23-1.45,.47-2.12,.76h-.01c-3.63-3.01-13.59-11.5-16.86-16.8-.77-1.28-1.54-2.59-2.3-3.88-4.6-7.78-9.04-15.65-13.36-23.59-6.85-12.64-13.14-25.59-21.56-37.33-5.54-7.74-11.73-14.87-19.79-20.14-1.7-1.11-3.51-1.97-6.26-1.14,1.67,2.48,3.12,4.68,4.64,6.84,5.5,7.77,11.22,15.4,16.44,23.36,2.63,3.99,5.11,8.15,3.72,13.65-1.17,4.66-1.02,9.64-1.71,14.44-1.87,13.11-4.49,26.05-8.22,38.77-1.54,5.26-2.75,10.61-4.06,15.93-.49,1.97,.47,3.26,2.1,4.28,4.83,3,12.22,1.53,15.08-3.39,1.85-3.17,3.4-6.61,4.53-10.11,2.81-8.67,3.02-17.72,3.13-26.75,.07-5.05,0-10.11,.03-15.16,.01-.82,.21-1.63,.34-2.65,.35,.34,.47,.4,.52,.5,.27,.51,.52,1.03,.77,1.55,3.79,7.98,7.91,15.75,12.45,23.28,.86,1.42,1.73,2.83,2.61,4.23,0,0,14.81,23.27,20.74,25.19,.15,.04,.3,.09,.45,.12,2.03,.98,5.29,1.18,8.8-.46,5.5-2.58,8.73-6.4,9.39-9.38,1.47-1,2.88-2.01,4.41-3.41,1.72,.45,5.05-1.65,9.09-6.68s4.49-7.47,4.86-9.92c.79-1.35,2.02-2.87,2.87-4.3,2.12-1.35,4.79-4.93,7.49-10.05,2.7-5.12,4.06-9.09,3.99-11.03,.86-1.52,1.74-3.09,2.65-4.6,1.9-1.36,4.33-3.76,7.55-8.68,3.22-4.92,4.43-8.37,4.59-10.68,.98-1.47,1.97-2.9,2.99-4.34,3.9-1.73,6.78-3.55,8.72-4.93,1.38-.98,2.26-1.73,3.06-2.84,.91,1.71,2.49,2.99,4.4,3.5v2.99c-3.02,.83-5.22,3.58-5.22,6.81s2.2,6,5.22,6.79v3.02c-3.02,.79-5.22,3.55-5.22,6.79s2.2,6,5.22,6.79v3.02c-3.02,.79-5.22,3.54-5.22,6.79s2.2,5.99,5.22,6.8v3c-3.02,.78-5.22,3.53-5.22,6.79s2.2,6,5.22,6.77v4.04c-.1,.02-.18,.04-.27,.08-.13,.03-.26,.08-.39,.11-.52,.16-1.02,.37-1.49,.63-.12,.07-.24,.14-.35,.21-.12,.07-.23,.14-.34,.22-.23,.14-.43,.3-.64,.48-.1,.09-.2,.17-.3,.26-.1,.09-.18,.17-.28,.27-.1,.1-.18,.18-.27,.28-.09,.11-.17,.21-.26,.3-.08,.1-.16,.2-.23,.29-.02,.01-.03,.03-.04,.05-.16,.21-.3,.41-.42,.63-.07,.11-.14,.23-.21,.35-.12,.24-.24,.48-.35,.73-.1,.24-.2,.5-.28,.76-.03,.13-.08,.26-.11,.39-.07,.26-.12,.53-.16,.82-.04,.27-.08,.55-.09,.84-.02,.14-.02,.28-.02,.42,0,.86,.13,1.7,.38,2.47,.15,.52,.36,1.02,.63,1.49,1.41,2.59,4.15,4.35,7.3,4.35,4.59,0,8.3-3.72,8.3-8.3,0-.14,0-.28-.01-.42,0-.28-.03-.55-.09-.84Zm-86.05,7.64c-3.47,1.4-6.22,.38-5.97-1.68,.26-2.06,2.95-3.95,5.86-4.93,2.91-.98,5.18-.75,5.46,.9,.27,1.66-1.88,4.3-5.35,5.72Zm22.26-18.44c-1.2,1.58-2.42,2.54-3.34,2.96,.52-.6,1.03-1.18,1.51-1.76-.24-.55-.54-1.07-.93-1.51-.37,.43-.77,.91-1.21,1.38,.43-1.2,.88-2.23,1.67-3.06,1.24-1.3,3.42-3.13,3.89-2.45,.46,.67,.27,1.98-1.6,4.45Zm14.62-23.2c-.95,1.86-1.89,3.23-2.95,4.41,.38-.74,.77-1.47,1.15-2.2-.41-.15-.82-.33-1.22-.53-.25,.47-.92,1.92-1.21,2.13,.77-1.68,.96-3.16,1.78-4.79,1.29-2.53,3.26-4.78,3.96-4.6,.71,.2-.04,2.67-1.52,5.58Zm14.27-24.74c-1.16,1.9-2.17,2.98-3.09,3.89,.4-.65,.8-1.3,1.21-1.97-.42-.14-.83-.32-1.23-.48-.4,.66-.8,1.34-1.22,2,.34-1.18,.84-2.48,2.05-4.45,1.85-3.02,3.62-4.84,4.2-4.43s-.14,2.51-1.92,5.43Zm19.68-25.33c0,.32,.02,.63,.07,.93-.35,.38-.73,.74-1.12,1.08-1.14,.97-3.4,2.26-4.72,2.79,.35-.36,.71-.73,1.09-1.11,.27-.26,.53-.51,.79-.75-.1-.39-.34-1.1-.79-1.18-.29-.07-.51,.15-1.28,.71-.5,.36-.92,.63-1.18,.79,.17-.41,.48-1.03,.98-1.7,.86-1.15,1.72-1.67,2.49-2.3,.78-.63,1.84-1.66,2.84-3.36,.23,.16,.85,.59,1.66,.79-.52,.98-.82,2.11-.82,3.3Zm3.61,0c0-1.88,1.54-3.43,3.4-3.43s3.43,1.55,3.43,3.43c0,1.2-.66,2.28-1.62,2.89v-1.4h-3.61v1.4c-.98-.61-1.61-1.7-1.61-2.89Zm0,16.6c0-1.89,1.54-3.4,3.4-3.4s3.43,1.51,3.43,3.4c0,1.21-.66,2.28-1.62,2.88v-1.37h-3.61v1.37c-.98-.6-1.61-1.67-1.61-2.88Zm0,16.61c0-1.88,1.54-3.4,3.4-3.4s3.43,1.52,3.43,3.4c0,1.23-.66,2.28-1.62,2.88v-1.37h-3.61v1.37c-.98-.6-1.61-1.65-1.61-2.88Zm0,16.61c0-1.88,1.54-3.43,3.4-3.43s3.43,1.55,3.43,3.43c0,1.2-.66,2.26-1.62,2.89v-1.4h-3.61v1.4c-.98-.63-1.61-1.7-1.61-2.89Zm0,16.6c0-1.87,1.54-3.42,3.4-3.42s3.43,1.55,3.43,3.42c0,1.21-.66,2.28-1.62,2.88v-1.39h-3.61v1.39c-.98-.6-1.61-1.67-1.61-2.88Zm3.4,23.62c-2.56,0-4.67-2.1-4.67-4.68s2.11-4.7,4.67-4.7,4.72,2.1,4.72,4.7-2.11,4.68-4.72,4.68Z"/>
    <path class="cls-3" d="M661.1,342.9c-2.89-1.42-5.76-1.29-8.72-.13-2.22,.87-3.18,2.35-3.48,4.74-.79,6.33-1.57,12.68-2.91,18.9-1.02,4.78-2.8,9.4-4.43,14.02-.32,.92-1.51,1.53-2.29,2.28-.51-.96-1.39-1.9-1.46-2.89-.21-2.93-.27-5.89-.07-8.81,.66-10.08,1.47-20.15,2.2-30.23,.23-3.21-.56-4.26-3.68-4.99-.74-.17-1.52-.3-2.28-.28-4.83,.18-9.88,1.96-9.53,8.85,.24,4.65-.12,9.34-.25,14-.02,.75-.13,1.56-.43,2.23-3.23,7.16-6.47,14.31-9.78,21.43-.53,1.14-1.31,2.2-2.13,3.17-1.28,1.51-2.23,1.31-2.78-.63-.38-1.34-.61-2.76-.67-4.15-.61-14.29,.48-28.51,1.94-42.71,.05-.48,.85-1.22,1.35-1.27,1.84-.15,3.72,.07,5.56-.11,1.36-.14,2.81-.46,3.99-1.12,2.42-1.35,2.4-3.96-.05-5.26-1.25-.66-2.76-.96-4.19-1.1-1.82-.18-3.67-.05-5.78-.05,.33-1.77,.61-3.26,.88-4.75,.56-3.05-.14-4.82-2.46-6.28-2.82-1.77-5.73-2.03-8.72-.46-2.83,1.48-3.42,4.12-3.53,6.97-.06,1.7-.01,3.4-.01,5.12h-5l-.07,.22c-.78,2.59-2.98,4.54-5.58,5.91,.43,.09,.88,.27,1.36,.59,.87,.58,2.2,.55,3.33,.62,1.64,.09,3.29,.02,5.02,.02,.04,.67,.12,1.11,.08,1.54-.4,5.23-.73,10.46-1.24,15.68-.33,3.35-.61,6.77-1.54,9.98-1.3,4.53-3.08,8.93-4.86,13.3-.88,2.17-2.1,4.24-3.41,6.18-.99,1.46-2.41,1.28-3.11-.35-.51-1.2-.76-2.58-.85-3.89-.61-8.61,.49-17.1,2.11-25.54,.49-2.55,.02-4.72-2.1-6.32-2.61-1.99-5.44-2.78-8.6-1.29-3.03,1.43-3.51,4.14-3.6,7.06-.06,2.1,.31,4.36-.31,6.29-2.22,6.95-5.67,13.28-10.78,18.57-.67,.7-1.83,.94-2.76,1.39-.4-.91-1.06-1.78-1.18-2.71-.86-6.79-.52-13.53,1.18-20.17,.65-2.55-.44-4.37-3.03-4.97-3.97-.92-9.76,1.2-11.76,4.78-2.36,4.22-4.3,8.67-6.41,13.02-.33,.68-.57,1.39-.86,2.08-.33-1.83-.38-3.57-.12-5.26,.91-5.87,1.97-11.71,2.91-17.58,.74-4.59-2.1-7.31-6.72-6.52-5.71,.97-8.23,3.74-8.92,9.81-.38,3.35-.31,6.84-1.23,10.03-1.62,5.63-3.73,11.12-5.86,16.59-.82,2.11-2.07,4.12-3.46,5.93-1.53,1.99-3.41,1.62-4.1-.79-.63-2.19-1.05-4.49-1.19-6.77-1.06-17.19,.71-34.25,2.49-51.3,.6-5.72,1.44-11.41,2.01-17.13,.14-1.39,.03-3.05-.61-4.23-1.42-2.61-5.33-3.87-8.44-3.13-3.24,.78-5.14,2.83-5.45,6.32-.68,7.77-1.23,15.55-1.85,23.32-.36,4.52-.75,9.04-1.12,13.39-2.17-1.17-4.04-2.73-6.16-3.23-7.27-1.74-13.56,.24-18.45,5.99-5.73,6.75-7.49,14.81-7.35,23.42,.12,7.02,1.84,13.54,6.42,19.05,3.73,4.49,9.89,6.18,15.38,4.36,4.54-1.51,7.45-4.78,9.7-8.8,.32-.58,.65-1.15,1.14-2.05,.33,1.01,.5,1.66,.76,2.29,.93,2.23,1.7,4.56,2.9,6.65,1.95,3.4,4.93,4.48,8.8,3.96,4.12-.56,7.34-2.56,9.85-5.71,2.02-2.53,3.82-5.23,5.85-8.03,0,1.62-.17,3.13,.05,4.59,.22,1.45,.44,3.23,1.36,4.18,2.36,2.43,5.45,2.49,8.56,1.48,2.81-.91,4.06-2.92,4.46-5.83,.81-5.91,2.39-11.63,4.86-17.08,.39-.87,1.04-1.61,1.57-2.42,.24,.07,.48,.14,.71,.21,0,1.37,.02,2.75,0,4.12-.08,4.19,.31,8.26,2.11,12.15,2.81,6.09,11.31,7.43,15.71,2.98,2.19-2.22,4.15-4.68,6.17-7.07,.74-.87,1.37-1.84,2.21-2.96,.33,2.18,.47,4.04,.91,5.83,.45,1.85,1.03,3.7,1.81,5.43,2.54,5.58,11.14,10.03,17.38,3,2.02-2.27,3.56-4.96,5.29-7.48,.44-.64,.77-1.36,1.39-2.47,.15,.9,.2,1.2,.25,1.51,.67,4.31,1.5,8.57,4.09,12.24,1.26,1.79,2.86,3.13,5.11,3.38,3.62,.4,6.86-.64,9.62-2.95,4.01-3.34,6.69-7.69,8.97-12.31,.3-.6,.58-1.19,1.06-2.18,.42,2.09,.59,3.73,1.1,5.26,1.48,4.49,4.67,7.28,9.22,8.31,4.67,1.07,7.46-1.68,9.66-5.28,.98-1.6,1.84-3.26,2.88-5.1,0,1.79,.08,3.32-.01,4.83-.74,13.03-1.52,26.05-2.26,39.08-.17,3.07,1.05,4.12,4.05,3.59,6.38-1.14,11.4-7.15,11.53-13.89,.2-10.18,.16-20.36,.57-30.52,.54-13.29,1.4-26.56,2.16-39.84,.1-1.8-.48-3.11-2.12-3.92Zm-172.61,30.85c-1.09,3.67-2.99,7.14-4.79,10.56-.97,1.84-2.63,3.19-5,2.9-2.38-.29-3.66-1.91-4.49-3.98-1.49-3.69-1.68-7.57-1.55-11.48,.22-5.41,1.1-10.71,3.48-15.6,1.01-2.08,2.42-4.12,4.11-5.67,3.16-2.88,6.99-1.64,8.46,2.37,2.57,7,1.8,14.03-.23,20.9Zm-42.69-31.04c-6.36-3.81-15.67-4.36-21.92,2.94-5.48,6.39-7.66,13.85-7.92,22.62,.15,1.36,.2,3.29,.59,5.16,1.48,6.99,4.92,12.64,12.13,14.71,7.71,2.23,14.71,.68,20.22-5.54,6.4-7.23,8.09-15.74,6.41-25.03-1.13-6.22-3.92-11.52-9.51-14.86Zm-23.76,18.22v-4.05l2.77-2.02,2.77,2.02v4.05l-2.77,2.02-2.77-2.02Zm4.84,19.29l-3.1-1.47-.76-3.98,2.34-2.5,3.1,1.47,.76,3.98-2.34,2.5Zm5.49-4.09c-2.8-6.23-2.98-12.77-1.9-19.36,.41-2.47,1.18-4.99,2.31-7.22,1.66-3.28,4.95-3.27,6.96-.15,2.76,4.28,3.4,9.16,3.66,14.11,.03,.63,0,1.27,0,1.91-.04,2.78-.31,6.4-1.26,10.02-.35,1.35-1.01,3.36-2.56,4.25-.49,.28-1.08,.47-1.77,.52-2.86,.23-4.39-1.75-5.44-4.09Zm14.9,5.03c-2.66,3-5.75,4.83-9.23,5.48v-4.27c.96-.08,1.84-.35,2.61-.79,2.25-1.29,3.12-3.8,3.58-5.58,.82-3.16,1.27-6.7,1.33-10.54v-.62c.02-.49,.02-.97,0-1.45-.26-5.06-.94-10.41-4.01-15.18-.93-1.45-2.16-2.46-3.51-2.96v-2.99c2.3,.29,4.6,1.08,6.64,2.31,4.58,2.74,7.35,7.12,8.48,13.38,1.67,9.25-.25,16.84-5.9,23.21Zm132.89-54.09c-.28,0-.55,0-.81,0-1.32,0-2.49-.04-4.16-.19,.27,3.85,1.79,6.44,2.58,9.42,1.35-3.09,2.28-5.55,4.24-9.28-.68,.02-1.29,.03-1.85,.04Zm-.79,10.07c2.25-.35,3.66-.71,5.59-1.6,.28-.13,.56-.26,.87-.41,2.2-2.51,3.55-4.34,4.7-6.26,.39-.64,.75-1.29,1.11-1.98-.72-.06-1.33-.08-1.88-.08-.55,0-1.06,.02-1.56,.05-1.01,.05-2.03,.14-3.51,.14-1.23,2.49-2.28,4.39-3.35,6.36-.64,1.18-1.29,2.4-1.98,3.77Zm8.69-15.31c-.4-.36-.75-.66-1.08-.96-.23-.2-.45-.4-.68-.62-.03,.06-.05,.12-.07,.18-.05,.19-.07,.39-.09,.66-.01,.27-.02,.6-.05,1.03,0,.14-.02,.3-.04,.47,1.45,.17,2.16,.28,3.44,.54-.57-.52-1.02-.93-1.42-1.29Zm-4.24,.55c.38-1.66,.25-2.21,.86-2.87-3.76-1-5.64-.64-9.54,.02-.42,1.04-.15,1.29-.12,2.83,3.48,.06,5.2-.21,8.81,.03Zm-17.31,9.32c.6,1.27,1.42,2.6,2.43,4.06,2.54,1.1,3.83,1.41,6.43,1.58-.39-.92-.75-1.78-1.08-2.62-.33-.84-.62-1.67-.86-2.51-.49-1.69-.8-3.45-.86-5.58-2.98-.35-4.67-.48-7.08-1.17-.14,.87-.16,1.71-.08,2.53,.13,1.24,.5,2.45,1.1,3.72Zm6.25-9.35c.07-.59,.13-.99,.2-1.32,.02-.08,.03-.16,.05-.23,.05-.22,.1-.4,.15-.6-.68,.44-1.23,.79-1.83,1.15-.46,.27-.94,.54-1.54,.85-.2,.1-.41,.21-.64,.33,.17,0,.33-.02,.48-.02,1.06-.06,1.8-.13,3.13-.16Zm-168.74,68.68c-.03-.27-.09-.54-.16-.82-.03-.13-.08-.26-.11-.39-.08-.26-.16-.51-.28-.76-.1-.25-.22-.5-.35-.73-.07-.12-.14-.24-.21-.35-.13-.22-.27-.42-.42-.63-.01-.02-.02-.04-.04-.05-.07-.1-.15-.2-.23-.29-.09-.1-.17-.2-.26-.3-.09-.1-.17-.18-.27-.28-.18-.18-.38-.37-.59-.53-.21-.18-.41-.34-.64-.48-.22-.16-.45-.3-.68-.42-.47-.26-.97-.47-1.49-.63-.13-.03-.26-.08-.39-.11-.09-.03-.17-.05-.27-.08v-4.04c3.02-.77,5.23-3.52,5.23-6.77s-2.21-6.01-5.23-6.79v-3c3.02-.82,5.23-3.56,5.23-6.8s-2.21-6-5.23-6.79v-3.02c3.02-.79,5.23-3.55,5.23-6.79s-2.21-6-5.23-6.79v-3.02c3.02-.79,5.23-3.54,5.23-6.79s-2.21-5.99-5.23-6.81v-2.99c3.02-.8,5.23-3.55,5.23-6.79s-2.21-6.02-5.23-6.81c-.36-1.54-1.67-2.26-3.12-2.58-.16-.03-.33-.07-.49-.09-1.97-.3-3.98,.05-3.98,.05-.15,.04-.3,.1-.46,.15-1.15,.42-2.23,1.12-5.94,5.47-2.55,2.98-3.83,4.46-4.51,5.75-.88,1.64-1.92,4.21-2.2,7.68-.53,.78-1.08,1.58-1.61,2.38-.52,.78-1.03,1.57-1.55,2.36-1.91,.88-4.67,3.84-7.9,9.12-3.23,5.29-4.72,9.21-4.52,11.06-.91,1.53-1.75,3.16-2.65,4.73-2.04,1.6-5.11,4.6-7.42,9.3-2.31,4.72-4.04,8.8-3.88,11.09-.97,1.68-1.73,2.59-2.84,4.12-1.9,.66-4.35,2.49-7.61,6.08s-3.4,5.17-4.94,8.81c-1.74,1.63-3.66,3.08-5.16,4.04-1.72-1.45-4.75-1.37-8.99-.07-.74,.23-1.45,.47-2.12,.76h-.01c-3.63-3.01-13.59-11.5-16.86-16.8-.77-1.28-1.54-2.59-2.3-3.88-4.6-7.78-9.04-15.65-13.36-23.59-6.85-12.64-13.14-25.59-21.56-37.33-5.54-7.74-11.73-14.87-19.79-20.14-1.7-1.11-3.51-1.97-6.26-1.14,1.67,2.48,3.12,4.68,4.64,6.84,5.5,7.77,11.22,15.4,16.44,23.36,2.63,3.99,5.11,8.15,3.72,13.65-1.17,4.66-1.02,9.64-1.71,14.44-1.87,13.11-4.49,26.05-8.22,38.77-1.54,5.26-2.75,10.61-4.06,15.93-.49,1.97,.47,3.26,2.1,4.28,4.83,3,12.22,1.53,15.08-3.39,1.85-3.17,3.4-6.61,4.53-10.11,2.81-8.67,3.02-17.72,3.13-26.75,.07-5.05,0-10.11,.03-15.16,.01-.82,.21-1.63,.34-2.65,.35,.34,.47,.4,.52,.5,.27,.51,.52,1.03,.77,1.55,3.79,7.98,7.91,15.75,12.45,23.28,.86,1.42,1.73,2.83,2.61,4.23,0,0,14.81,23.27,20.74,25.19,.15,.04,.3,.09,.45,.12,2.03,.98,5.29,1.18,8.8-.46,5.5-2.58,8.73-6.4,9.39-9.38,1.47-1,2.88-2.01,4.41-3.41,1.72,.45,5.05-1.65,9.09-6.68s4.49-7.47,4.86-9.92c.79-1.35,2.02-2.87,2.87-4.3,2.12-1.35,4.79-4.93,7.49-10.05,2.7-5.12,4.06-9.09,3.99-11.03,.86-1.52,1.74-3.09,2.65-4.6,1.9-1.36,4.33-3.76,7.55-8.68,3.22-4.92,4.43-8.37,4.59-10.68,.98-1.47,1.97-2.9,2.99-4.34,3.9-1.73,6.78-3.55,8.72-4.93,1.38-.98,2.26-1.73,3.06-2.84,.91,1.71,2.49,2.99,4.4,3.5v2.99c-3.02,.83-5.22,3.58-5.22,6.81s2.2,6,5.22,6.79v3.02c-3.02,.79-5.22,3.55-5.22,6.79s2.2,6,5.22,6.79v3.02c-3.02,.79-5.22,3.54-5.22,6.79s2.2,5.99,5.22,6.8v3c-3.02,.78-5.22,3.53-5.22,6.79s2.2,6,5.22,6.77v4.04c-.1,.02-.18,.04-.27,.08-.13,.03-.26,.08-.39,.11-.52,.16-1.02,.37-1.49,.63-.12,.07-.24,.14-.35,.21-.12,.07-.23,.14-.34,.22-.23,.14-.43,.3-.64,.48-.1,.09-.2,.17-.3,.26-.1,.09-.18,.17-.28,.27-.1,.1-.18,.18-.27,.28-.09,.11-.17,.21-.26,.3-.08,.1-.16,.2-.23,.29-.02,.01-.03,.03-.04,.05-.16,.21-.3,.41-.42,.63-.07,.11-.14,.23-.21,.35-.12,.24-.24,.48-.35,.73-.1,.24-.2,.5-.28,.76-.03,.13-.08,.26-.11,.39-.07,.26-.12,.53-.16,.82-.04,.27-.08,.55-.09,.84-.02,.14-.02,.28-.02,.42,0,.86,.13,1.7,.38,2.47,.15,.52,.36,1.02,.63,1.49,1.41,2.59,4.15,4.35,7.3,4.35,4.59,0,8.3-3.72,8.3-8.3,0-.14,0-.28-.01-.42,0-.28-.03-.55-.09-.84Zm-86.05,7.64c-3.47,1.4-6.22,.38-5.97-1.68,.26-2.06,2.95-3.95,5.86-4.93,2.91-.98,5.18-.75,5.46,.9,.27,1.66-1.88,4.3-5.35,5.72Zm22.26-18.44c-1.2,1.58-2.42,2.54-3.34,2.96,.52-.6,1.03-1.18,1.51-1.76-.24-.55-.54-1.07-.93-1.51-.37,.43-.77,.91-1.21,1.38,.43-1.2,.88-2.23,1.67-3.06,1.24-1.3,3.42-3.13,3.89-2.45,.46,.67,.27,1.98-1.6,4.45Zm14.62-23.2c-.95,1.86-1.89,3.23-2.95,4.41,.38-.74,.77-1.47,1.15-2.2-.41-.15-.82-.33-1.22-.53-.25,.47-.92,1.92-1.21,2.13,.77-1.68,.96-3.16,1.78-4.79,1.29-2.53,3.26-4.78,3.96-4.6,.71,.2-.04,2.67-1.52,5.58Zm14.27-24.74c-1.16,1.9-2.17,2.98-3.09,3.89,.4-.65,.8-1.3,1.21-1.97-.42-.14-.83-.32-1.23-.48-.4,.66-.8,1.34-1.22,2,.34-1.18,.84-2.48,2.05-4.45,1.85-3.02,3.62-4.84,4.2-4.43s-.14,2.51-1.92,5.43Zm19.68-25.33c0,.32,.02,.63,.07,.93-.35,.38-.73,.74-1.12,1.08-1.14,.97-3.4,2.26-4.72,2.79,.35-.36,.71-.73,1.09-1.11,.27-.26,.53-.51,.79-.75-.1-.39-.34-1.1-.79-1.18-.29-.07-.51,.15-1.28,.71-.5,.36-.92,.63-1.18,.79,.17-.41,.48-1.03,.98-1.7,.86-1.15,1.72-1.67,2.49-2.3,.78-.63,1.84-1.66,2.84-3.36,.23,.16,.85,.59,1.66,.79-.52,.98-.82,2.11-.82,3.3Zm3.61,0c0-1.88,1.54-3.43,3.4-3.43s3.43,1.55,3.43,3.43c0,1.2-.66,2.28-1.62,2.89v-1.4h-3.61v1.4c-.98-.61-1.61-1.7-1.61-2.89Zm0,16.6c0-1.89,1.54-3.4,3.4-3.4s3.43,1.51,3.43,3.4c0,1.21-.66,2.28-1.62,2.88v-1.37h-3.61v1.37c-.98-.6-1.61-1.67-1.61-2.88Zm0,16.61c0-1.88,1.54-3.4,3.4-3.4s3.43,1.52,3.43,3.4c0,1.23-.66,2.28-1.62,2.88v-1.37h-3.61v1.37c-.98-.6-1.61-1.65-1.61-2.88Zm0,16.61c0-1.88,1.54-3.43,3.4-3.43s3.43,1.55,3.43,3.43c0,1.2-.66,2.26-1.62,2.89v-1.4h-3.61v1.4c-.98-.63-1.61-1.7-1.61-2.89Zm0,16.6c0-1.87,1.54-3.42,3.4-3.42s3.43,1.55,3.43,3.42c0,1.21-.66,2.28-1.62,2.88v-1.39h-3.61v1.39c-.98-.6-1.61-1.67-1.61-2.88Zm3.4,23.62c-2.56,0-4.67-2.1-4.67-4.68s2.11-4.7,4.67-4.7,4.72,2.1,4.72,4.7-2.11,4.68-4.72,4.68Z"/>
  </g>
  <circle class="cls-1" cx="136.94" cy="360" r="81.83"/>
  <g>
    <path d="M187.05,392.43c0-.17-.02-.33-.05-.49-.02-.16-.05-.32-.1-.48-.02-.08-.04-.15-.06-.23-.04-.15-.1-.3-.17-.45-.06-.15-.13-.29-.2-.43-.04-.07-.08-.14-.12-.2-.08-.13-.16-.25-.25-.37,0-.01-.01-.03-.03-.03-.04-.06-.09-.12-.13-.17-.05-.06-.1-.12-.15-.18-.05-.06-.1-.11-.16-.17-.11-.11-.22-.22-.35-.31-.12-.11-.24-.2-.38-.28-.13-.1-.26-.18-.4-.25-.28-.15-.57-.28-.88-.37-.08-.02-.15-.04-.23-.06-.05-.02-.1-.03-.16-.04v-2.38c1.78-.45,3.08-2.07,3.08-3.99s-1.3-3.54-3.08-4v-1.77c1.78-.48,3.08-2.1,3.08-4s-1.3-3.53-3.08-4v-1.78c1.78-.47,3.08-2.09,3.08-4s-1.3-3.53-3.08-4v-1.78c1.78-.47,3.08-2.09,3.08-4s-1.3-3.53-3.08-4.01v-1.76c1.78-.47,3.08-2.09,3.08-4s-1.3-3.54-3.08-4.01c-.21-.91-.99-1.33-1.84-1.52-.1-.02-.19-.04-.29-.05-1.16-.18-2.34,.03-2.34,.03-.09,.03-.18,.06-.27,.09-.68,.25-1.31,.66-3.5,3.22-1.5,1.75-2.25,2.62-2.65,3.38-.52,.97-1.13,2.48-1.29,4.52-.31,.46-.63,.93-.95,1.4-.31,.46-.61,.92-.91,1.39-1.13,.52-2.75,2.26-4.65,5.37-1.9,3.12-2.78,5.42-2.66,6.51-.54,.9-1.03,1.86-1.56,2.78-1.2,.94-3.01,2.71-4.37,5.48-1.36,2.78-2.38,5.18-2.28,6.53-.57,.99-1.02,1.52-1.67,2.42-1.12,.39-2.56,1.47-4.48,3.58-1.92,2.11-2,3.05-2.91,5.19-1.02,.96-2.16,1.81-3.04,2.38-1.01-.85-2.8-.81-5.29-.04-.44,.13-.85,.28-1.25,.45h0c-2.14-1.77-8-6.77-9.92-9.89-.45-.75-.91-1.52-1.36-2.28-2.71-4.58-5.32-9.21-7.86-13.89-4.03-7.44-7.73-15.07-12.69-21.98-3.26-4.56-6.9-8.75-11.65-11.85-1-.65-2.07-1.16-3.68-.67,.99,1.46,1.84,2.76,2.73,4.02,3.24,4.57,6.6,9.07,9.68,13.75,1.55,2.35,3.01,4.8,2.19,8.04-.69,2.74-.6,5.67-1,8.5-1.1,7.72-2.64,15.33-4.84,22.82-.91,3.1-1.62,6.24-2.39,9.38-.29,1.16,.28,1.92,1.23,2.52,2.84,1.77,7.19,.9,8.88-2,1.09-1.87,2-3.89,2.67-5.95,1.66-5.11,1.78-10.43,1.84-15.74,.04-2.97,0-5.95,.02-8.92,0-.48,.12-.96,.2-1.56,.2,.2,.28,.24,.31,.29,.16,.3,.31,.61,.45,.91,2.23,4.7,4.66,9.27,7.33,13.7,.51,.84,1.02,1.66,1.54,2.49,0,0,8.72,13.7,12.21,14.83,.09,.03,.18,.05,.26,.07,1.2,.58,3.12,.7,5.18-.27,3.24-1.52,5.14-3.77,5.53-5.52,.86-.59,1.7-1.18,2.6-2.01,1.01,.26,2.97-.97,5.35-3.93,2.37-2.96,2.64-4.4,2.86-5.84,.47-.79,1.19-1.69,1.69-2.53,1.25-.79,2.82-2.9,4.41-5.92s2.39-5.35,2.35-6.49c.51-.9,1.02-1.82,1.56-2.71,1.12-.8,2.55-2.21,4.45-5.11,1.89-2.9,2.61-4.93,2.7-6.29,.58-.86,1.16-1.71,1.76-2.55,2.3-1.02,3.99-2.09,5.13-2.9,.81-.58,1.33-1.02,1.8-1.67-.22-.42-.38-.89-.44-1.39-.2,.22-.43,.44-.66,.63-.67,.57-2,1.33-2.78,1.64,.2-.21,.42-.43,.64-.65,.16-.15,.31-.3,.47-.44-.06-.23-.2-.65-.47-.7-.17-.04-.3,.09-.75,.42-.29,.21-.54,.37-.7,.47,.1-.24,.28-.61,.58-1,.51-.68,1.01-.99,1.47-1.36,.46-.37,1.08-.98,1.67-1.98,.13,.1,.5,.35,.98,.47-.31,.58-.48,1.24-.48,1.94,0,.19,.01,.37,.04,.55,.49-.52,.89-1.14,1.19-1.84-.01,.06,0,.1,.02,.12,.06,.04,.22-.12,.5-.45-.06,.85-.3,2.26-1.27,3.57,.54,1,1.47,1.76,2.59,2.06v1.76c-1.78,.49-3.07,2.1-3.07,4.01s1.29,3.53,3.07,4v1.78c-1.78,.47-3.07,2.09-3.07,4s1.29,3.53,3.07,4v1.78c-1.78,.47-3.07,2.09-3.07,4s1.29,3.53,3.07,4v1.77c-1.78,.46-3.07,2.08-3.07,4s1.29,3.53,3.07,3.99v2.38c-.06,.01-.11,.03-.16,.04-.08,.02-.15,.04-.23,.06-.31,.1-.6,.22-.88,.37-.07,.04-.14,.08-.2,.12-.07,.04-.13,.08-.2,.13-.13,.08-.26,.18-.38,.28-.06,.05-.12,.1-.18,.15-.06,.05-.11,.1-.17,.16s-.11,.11-.16,.17c-.05,.06-.1,.12-.15,.18-.04,.06-.1,.12-.13,.17-.01,0-.02,.02-.03,.03-.1,.12-.18,.24-.25,.37-.04,.06-.08,.13-.12,.2-.07,.14-.14,.28-.2,.43-.06,.14-.12,.29-.17,.45-.02,.08-.04,.15-.06,.23-.04,.15-.07,.31-.1,.48-.03,.16-.04,.33-.05,.49-.01,.08-.01,.17-.01,.25,0,.51,.08,1,.22,1.45,.09,.31,.21,.6,.37,.88,.83,1.52,2.44,2.56,4.3,2.56,2.7,0,4.89-2.19,4.89-4.89,0-.08,0-.17,0-.25Zm-50.71,4c-2.04,.83-3.66,.22-3.51-.99,.15-1.22,1.73-2.32,3.45-2.9,1.71-.58,3.05-.44,3.21,.53,.16,.98-1.11,2.53-3.15,3.37Zm13.1-10.86c-.7,.93-1.43,1.5-1.96,1.74,.31-.35,.61-.7,.89-1.04-.14-.33-.32-.63-.55-.89-.22,.26-.45,.54-.71,.81,.26-.7,.52-1.31,.99-1.8,.73-.77,2.02-1.84,2.29-1.44,.27,.4,.16,1.16-.94,2.62Zm8.6-13.66c-.56,1.09-1.11,1.9-1.73,2.6,.22-.44,.45-.86,.68-1.29-.24-.09-.48-.19-.72-.31-.15,.28-.54,1.13-.71,1.25,.45-.99,.56-1.86,1.05-2.82,.76-1.49,1.92-2.81,2.33-2.71,.42,.12-.03,1.57-.9,3.28Zm8.4-14.56c-.68,1.12-1.28,1.75-1.82,2.29,.24-.38,.47-.77,.71-1.16-.25-.08-.49-.19-.72-.28-.24,.39-.47,.79-.72,1.18,.2-.7,.49-1.46,1.21-2.62,1.09-1.78,2.13-2.85,2.47-2.61,.34,.24-.08,1.48-1.13,3.2Zm13.71-14.91c0-1.11,.91-2.02,2-2.02s2.02,.91,2.02,2.02c0,.7-.39,1.34-.95,1.7v-.83h-2.12v.83c-.58-.36-.95-1-.95-1.7Zm0,9.77c0-1.11,.91-2,2-2s2.02,.89,2.02,2c0,.71-.39,1.34-.95,1.7v-.81h-2.12v.81c-.58-.35-.95-.99-.95-1.7Zm0,9.78c0-1.11,.91-2,2-2s2.02,.9,2.02,2c0,.72-.39,1.34-.95,1.7v-.81h-2.12v.81c-.58-.35-.95-.97-.95-1.7Zm0,9.78c0-1.11,.91-2.02,2-2.02s2.02,.91,2.02,2.02c0,.7-.39,1.33-.95,1.7v-.83h-2.12v.83c-.58-.37-.95-1-.95-1.7Zm0,9.77c0-1.1,.91-2.02,2-2.02s2.02,.91,2.02,2.02c0,.71-.39,1.34-.95,1.7v-.82h-2.12v.82c-.58-.35-.95-.99-.95-1.7Zm2,13.9c-1.51,0-2.75-1.23-2.75-2.76s1.24-2.76,2.75-2.76,2.78,1.23,2.78,2.76-1.24,2.76-2.78,2.76Z"/>
    <path class="cls-2" d="M186.03,391.41c0-.17-.02-.33-.05-.49-.02-.16-.05-.32-.1-.48-.02-.08-.04-.15-.06-.23-.04-.15-.1-.3-.17-.45-.06-.15-.13-.29-.2-.43-.04-.07-.08-.14-.12-.2-.08-.13-.16-.25-.25-.37,0-.01-.01-.03-.03-.03-.04-.06-.09-.12-.13-.17-.05-.06-.1-.12-.15-.18-.05-.06-.1-.11-.16-.17-.11-.11-.22-.22-.35-.31-.12-.11-.24-.2-.38-.28-.13-.1-.26-.18-.4-.25-.28-.15-.57-.28-.88-.37-.08-.02-.15-.04-.23-.06-.05-.02-.1-.03-.16-.04v-2.38c1.78-.45,3.08-2.07,3.08-3.99s-1.3-3.54-3.08-4v-1.77c1.78-.48,3.08-2.1,3.08-4s-1.3-3.53-3.08-4v-1.78c1.78-.47,3.08-2.09,3.08-4s-1.3-3.53-3.08-4v-1.78c1.78-.47,3.08-2.09,3.08-4s-1.3-3.53-3.08-4.01v-1.76c1.78-.47,3.08-2.09,3.08-4s-1.3-3.54-3.08-4.01c-.21-.91-.99-1.33-1.84-1.52-.1-.02-.19-.04-.29-.05-1.16-.18-2.34,.03-2.34,.03-.09,.03-.18,.06-.27,.09-.68,.25-1.31,.66-3.5,3.22-1.5,1.75-2.25,2.62-2.65,3.38-.52,.97-1.13,2.48-1.29,4.52-.31,.46-.63,.93-.95,1.4-.31,.46-.61,.92-.91,1.39-1.13,.52-2.75,2.26-4.65,5.37-1.9,3.12-2.78,5.42-2.66,6.51-.54,.9-1.03,1.86-1.56,2.78-1.2,.94-3.01,2.71-4.37,5.48-1.36,2.78-2.38,5.18-2.28,6.53-.57,.99-1.02,1.52-1.67,2.42-1.12,.39-2.56,1.47-4.48,3.58-1.92,2.11-2,3.05-2.91,5.19-1.02,.96-2.16,1.81-3.04,2.38-1.01-.85-2.8-.81-5.29-.04-.44,.13-.85,.28-1.25,.45h0c-2.14-1.77-8-6.77-9.92-9.89-.45-.75-.91-1.52-1.36-2.28-2.71-4.58-5.32-9.21-7.86-13.89-4.03-7.44-7.73-15.07-12.69-21.98-3.26-4.56-6.9-8.75-11.65-11.85-1-.65-2.07-1.16-3.68-.67,.99,1.46,1.84,2.76,2.73,4.02,3.24,4.57,6.6,9.07,9.68,13.75,1.55,2.35,3.01,4.8,2.19,8.04-.69,2.74-.6,5.67-1,8.5-1.1,7.72-2.64,15.33-4.84,22.82-.91,3.1-1.62,6.24-2.39,9.38-.29,1.16,.28,1.92,1.23,2.52,2.84,1.77,7.19,.9,8.88-2,1.09-1.87,2-3.89,2.67-5.95,1.66-5.11,1.78-10.43,1.84-15.74,.04-2.97,0-5.95,.02-8.92,0-.48,.12-.96,.2-1.56,.2,.2,.28,.24,.31,.29,.16,.3,.31,.61,.45,.91,2.23,4.7,4.66,9.27,7.33,13.7,.51,.84,1.02,1.66,1.54,2.49,0,0,8.72,13.7,12.21,14.83,.09,.03,.18,.05,.26,.07,1.2,.58,3.12,.7,5.18-.27,3.24-1.52,5.14-3.77,5.53-5.52,.86-.59,1.7-1.18,2.6-2.01,1.01,.26,2.97-.97,5.35-3.93,2.37-2.96,2.64-4.4,2.86-5.84,.47-.79,1.19-1.69,1.69-2.53,1.25-.79,2.82-2.9,4.41-5.92s2.39-5.35,2.35-6.49c.51-.9,1.02-1.82,1.56-2.71,1.12-.8,2.55-2.21,4.45-5.11,1.89-2.9,2.61-4.93,2.7-6.29,.58-.86,1.16-1.71,1.76-2.55,2.3-1.02,3.99-2.09,5.13-2.9,.81-.58,1.33-1.02,1.8-1.67-.22-.42-.38-.89-.44-1.39-.2,.22-.43,.44-.66,.63-.67,.57-2,1.33-2.78,1.64,.2-.21,.42-.43,.64-.65,.16-.15,.31-.3,.47-.44-.06-.23-.2-.65-.47-.7-.17-.04-.3,.09-.75,.42-.29,.21-.54,.37-.7,.47,.1-.24,.28-.61,.58-1,.51-.68,1.01-.99,1.47-1.36,.46-.37,1.08-.98,1.67-1.98,.13,.1,.5,.35,.98,.47-.31,.58-.48,1.24-.48,1.94,0,.19,.01,.37,.04,.55,.49-.52,.89-1.14,1.19-1.84-.01,.06,0,.1,.02,.12,.06,.04,.22-.12,.5-.45-.06,.85-.3,2.26-1.27,3.57,.54,1,1.47,1.76,2.59,2.06v1.76c-1.78,.49-3.07,2.1-3.07,4.01s1.29,3.53,3.07,4v1.78c-1.78,.47-3.07,2.09-3.07,4s1.29,3.53,3.07,4v1.78c-1.78,.47-3.07,2.09-3.07,4s1.29,3.53,3.07,4v1.77c-1.78,.46-3.07,2.08-3.07,4s1.29,3.53,3.07,3.99v2.38c-.06,.01-.11,.03-.16,.04-.08,.02-.15,.04-.23,.06-.31,.1-.6,.22-.88,.37-.07,.04-.14,.08-.2,.12-.07,.04-.13,.08-.2,.13-.13,.08-.26,.18-.38,.28-.06,.05-.12,.1-.18,.15-.06,.05-.11,.1-.17,.16s-.11,.11-.16,.17c-.05,.06-.1,.12-.15,.18-.04,.06-.1,.12-.13,.17-.01,0-.02,.02-.03,.03-.1,.12-.18,.24-.25,.37-.04,.06-.08,.13-.12,.2-.07,.14-.14,.28-.2,.43-.06,.14-.12,.29-.17,.45-.02,.08-.04,.15-.06,.23-.04,.15-.07,.31-.1,.48-.03,.16-.04,.33-.05,.49-.01,.08-.01,.17-.01,.25,0,.51,.08,1,.22,1.45,.09,.31,.21,.6,.37,.88,.83,1.52,2.44,2.56,4.3,2.56,2.7,0,4.89-2.19,4.89-4.89,0-.08,0-.17,0-.25Zm-50.71,4c-2.04,.83-3.66,.22-3.51-.99,.15-1.22,1.73-2.32,3.45-2.9,1.71-.58,3.05-.44,3.21,.53,.16,.98-1.11,2.53-3.15,3.37Zm13.1-10.86c-.7,.93-1.43,1.5-1.96,1.74,.31-.35,.61-.7,.89-1.04-.14-.33-.32-.63-.55-.89-.22,.26-.45,.54-.71,.81,.26-.7,.52-1.31,.99-1.8,.73-.77,2.02-1.84,2.29-1.44,.27,.4,.16,1.16-.94,2.62Zm8.6-13.66c-.56,1.09-1.11,1.9-1.73,2.6,.22-.44,.45-.86,.68-1.29-.24-.09-.48-.19-.72-.31-.15,.28-.54,1.13-.71,1.25,.45-.99,.56-1.86,1.05-2.82,.76-1.49,1.92-2.81,2.33-2.71,.42,.12-.03,1.57-.9,3.28Zm8.4-14.56c-.68,1.12-1.28,1.75-1.82,2.29,.24-.38,.47-.77,.71-1.16-.25-.08-.49-.19-.72-.28-.24,.39-.47,.79-.72,1.18,.2-.7,.49-1.46,1.21-2.62,1.09-1.78,2.13-2.85,2.47-2.61,.34,.24-.08,1.48-1.13,3.2Zm13.71-14.91c0-1.11,.91-2.02,2-2.02s2.02,.91,2.02,2.02c0,.7-.39,1.34-.95,1.7v-.83h-2.12v.83c-.58-.36-.95-1-.95-1.7Zm0,9.77c0-1.11,.91-2,2-2s2.02,.89,2.02,2c0,.71-.39,1.34-.95,1.7v-.81h-2.12v.81c-.58-.35-.95-.99-.95-1.7Zm0,9.78c0-1.11,.91-2,2-2s2.02,.9,2.02,2c0,.72-.39,1.34-.95,1.7v-.81h-2.12v.81c-.58-.35-.95-.97-.95-1.7Zm0,9.78c0-1.11,.91-2.02,2-2.02s2.02,.91,2.02,2.02c0,.7-.39,1.33-.95,1.7v-.83h-2.12v.83c-.58-.37-.95-1-.95-1.7Zm0,9.77c0-1.1,.91-2.02,2-2.02s2.02,.91,2.02,2.02c0,.71-.39,1.34-.95,1.7v-.82h-2.12v.82c-.58-.35-.95-.99-.95-1.7Zm2,13.9c-1.51,0-2.75-1.23-2.75-2.76s1.24-2.76,2.75-2.76,2.78,1.23,2.78,2.76-1.24,2.76-2.78,2.76Z"/>
    <g>
      <path d="M170.42,328.44c1.48,.51,2.84,.97,4.4,1.5-2.67,2.82-5.2,5.48-7.96,8.4,.54-3.74,2.32-6.65,3.56-9.9Z"/>
      <path d="M175.1,329.43c-2.88-1-5.35-1.86-8.02-2.8,1.63-1.11,3.03-2.14,4.53-2.99,.27-.15,1.21,.3,1.4,.68,.75,1.53,1.31,3.14,2.1,5.1Z"/>
      <path d="M180.41,331.02c-3.92,2.32-7.84,4.65-11.76,6.97-.08-.11-.16-.22-.24-.32,.59-.53,1.17-1.08,1.77-1.6,1.93-1.68,3.83-3.39,5.81-5.02,.42-.35,1.08-.49,1.65-.55,.86-.08,1.73,0,2.6,.02,.06,.17,.12,.33,.17,.5Z"/>
      <path d="M166.33,338.25c-.94-4.17-1.88-8.33-2.82-12.51,2.2,.61,2.5,.93,2.75,3.04,.37,3.13,1.01,6.25,.07,9.47Z"/>
      <path d="M177.78,324.54c-3.75-1.24-7.5-2.47-11.26-3.71,.03-.19,.05-.38,.08-.57,.74-.03,1.55-.27,2.22-.07,2.52,.78,5.01,1.68,7.49,2.61,.64,.24,1.17,.76,1.75,1.15-.09,.19-.18,.39-.27,.58Z"/>
      <path d="M160.98,323.27c1.82-.79,3.36-1.45,5.09-2.2-.12,1.72-.23,3.23-.35,4.96-1.58-.92-3.01-1.75-4.74-2.75Z"/>
      <path d="M175.82,329.69c-.73-1.99-1.34-3.66-2.03-5.54,1.6,.36,3.02,.67,4.66,1.04-.88,1.5-1.68,2.86-2.64,4.5Z"/>
      <path d="M179.01,325.66c.89,1.44,1.68,2.73,2.63,4.27-1.82-.02-3.35-.04-5.13-.07,.87-1.46,1.64-2.75,2.5-4.2Z"/>
      <path d="M166.62,321.47c1.46,.53,2.72,.98,4.18,1.51-1.55,1.06-2.9,1.99-4.45,3.05,.1-1.6,.18-3.01,.28-4.56Z"/>
      <path d="M164.03,331.29c-.83-2.17-1.67-4.35-2.52-6.58,1.39,.41,2.3,2.75,2.52,6.58Z"/>
      <polygon points="166.53 327.17 169.55 328.35 167.59 333.7 166.53 327.17"/>
    </g>
    <g>
      <path class="cls-2" d="M170.42,327.41c1.48,.51,2.84,.97,4.4,1.5-2.67,2.82-5.2,5.48-7.96,8.4,.54-3.74,2.32-6.65,3.56-9.9Z"/>
      <path class="cls-2" d="M175.1,328.4c-2.88-1-5.35-1.86-8.02-2.8,1.63-1.11,3.03-2.14,4.53-2.99,.27-.15,1.21,.3,1.4,.68,.75,1.53,1.31,3.14,2.1,5.1Z"/>
      <path class="cls-2" d="M180.41,329.98c-3.92,2.32-7.84,4.65-11.76,6.97-.08-.11-.16-.22-.24-.32,.59-.53,1.17-1.08,1.77-1.6,1.93-1.68,3.83-3.39,5.81-5.02,.42-.35,1.08-.49,1.65-.55,.86-.08,1.73,0,2.6,.02,.06,.17,.12,.33,.17,.5Z"/>
      <path class="cls-2" d="M166.33,337.22c-.94-4.17-1.88-8.33-2.82-12.51,2.2,.61,2.5,.93,2.75,3.04,.37,3.13,1.01,6.25,.07,9.47Z"/>
      <path class="cls-2" d="M177.78,323.5c-3.75-1.24-7.5-2.47-11.26-3.71,.03-.19,.05-.38,.08-.57,.74-.03,1.55-.27,2.22-.07,2.52,.78,5.01,1.68,7.49,2.61,.64,.24,1.17,.76,1.75,1.15-.09,.19-.18,.39-.27,.58Z"/>
      <path class="cls-2" d="M160.98,322.23c1.82-.79,3.36-1.45,5.09-2.2-.12,1.72-.23,3.23-.35,4.96-1.58-.92-3.01-1.75-4.74-2.75Z"/>
      <path class="cls-2" d="M175.82,328.65c-.73-1.99-1.34-3.66-2.03-5.54,1.6,.36,3.02,.67,4.66,1.04-.88,1.5-1.68,2.86-2.64,4.5Z"/>
      <path class="cls-2" d="M179.01,324.62c.89,1.44,1.68,2.73,2.63,4.27-1.82-.02-3.35-.04-5.13-.07,.87-1.46,1.64-2.75,2.5-4.2Z"/>
      <path class="cls-2" d="M166.62,320.44c1.46,.53,2.72,.98,4.18,1.51-1.55,1.06-2.9,1.99-4.45,3.05,.1-1.6,.18-3.01,.28-4.56Z"/>
      <path class="cls-2" d="M164.03,330.25c-.83-2.17-1.67-4.35-2.52-6.58,1.39,.41,2.3,2.75,2.52,6.58Z"/>
      <polygon class="cls-2" points="166.53 326.14 169.55 327.32 167.59 332.66 166.53 326.14"/>
    </g>
  </g>
</svg>