<svg width="52" height="59" viewBox="0 0 52 59" fill="none" xmlns="http://www.w3.org/2000/svg">
<path d="M44.3562 6.65594C39.6711 2.36379 33.152 0 25.9999 0C18.8478 0 12.3287 2.36396 7.64363 6.65594C2.64317 11.2373 4.9911e-05 17.6351 4.9911e-05 25.1579C-0.00590185 28.4645 0.520484 31.7505 1.55904 34.89C1.59673 35.0039 1.65653 35.1093 1.73502 35.2001C1.81351 35.291 1.90915 35.3654 2.01647 35.4193C2.12378 35.4732 2.24067 35.5054 2.36046 35.5141C2.48024 35.5228 2.60056 35.5078 2.71454 35.47C2.82853 35.4322 2.93394 35.3723 3.02474 35.2938C3.11555 35.2152 3.18997 35.1196 3.24376 35.0123C3.29754 34.905 3.32963 34.7882 3.33819 34.6685C3.34675 34.5488 3.33162 34.4286 3.29365 34.3148C2.31679 31.3607 1.82183 28.2689 1.8277 25.1577C1.8277 18.1605 4.26579 12.2282 8.87912 8.00194C13.2258 4.0194 19.3062 1.82609 25.9999 1.82609C32.6936 1.82609 38.7739 4.0194 43.1209 8.00194C47.734 12.228 50.1723 18.1605 50.1723 25.1579C50.1781 28.2672 49.6837 31.3572 48.7078 34.3096C48.6315 34.5395 48.6498 34.7902 48.7585 35.0067C48.8672 35.2231 49.0576 35.3876 49.2876 35.4638C49.5177 35.54 49.7687 35.5218 49.9853 35.4132C50.2019 35.3045 50.3665 35.1144 50.4428 34.8845C51.4801 31.7466 52.0059 28.4625 52 25.1579C52 17.6351 49.3567 11.2373 44.3562 6.65594ZM46.7448 36.872C46.2173 36.8708 45.6975 36.9986 45.2308 37.2441C44.764 37.4897 44.3645 37.8455 44.0669 38.2807C43.7693 38.7158 43.5827 39.2171 43.5234 39.7408C43.4641 40.2645 43.5339 40.7947 43.7267 41.2853C43.176 41.1431 42.6 41.1287 42.043 41.2433C41.4859 41.3579 40.9624 41.5983 40.5127 41.9462C40.063 42.2941 39.6989 42.7402 39.4483 43.2504C39.1978 43.7605 39.0675 44.3212 39.0673 44.8895C39.0673 44.9873 39.0723 45.0837 39.0796 45.1797C38.4659 44.8091 37.7781 44.578 37.065 44.5028C36.3518 44.4276 35.6309 44.5101 34.9533 44.7444C34.2756 44.9788 33.6579 45.3593 33.144 45.8589C32.63 46.3586 32.2324 46.9651 31.9793 47.6354C31.3268 46.651 30.4454 45.8392 29.4103 45.2693C28.3753 44.6995 27.2176 44.3887 26.0361 44.3634C24.8546 44.3381 23.6846 44.5991 22.6261 45.1241C21.5676 45.6491 20.6521 46.4225 19.958 47.3781C19.6751 46.7404 19.2586 46.1707 18.7366 45.7074C18.2146 45.2442 17.5993 44.8981 16.9321 44.6925C16.2649 44.4869 15.5614 44.4267 14.869 44.5157C14.1765 44.6048 13.5112 44.8412 12.9179 45.2089C12.927 45.1035 12.9325 44.9972 12.9325 44.8895C12.9327 44.3184 12.8013 43.755 12.5486 43.2428C12.2958 42.7305 11.9285 42.2833 11.475 41.9357C11.0215 41.5881 10.4941 41.3494 9.93346 41.2382C9.37285 41.1269 8.79412 41.146 8.2421 41.2941C8.50643 40.6235 8.53988 39.8842 8.33718 39.1925C8.13447 38.5009 7.70713 37.8963 7.12255 37.4742C6.53796 37.052 5.82937 36.8363 5.1085 36.8609C4.38763 36.8856 3.69547 37.1493 3.14116 37.6104C2.58685 38.0716 2.20192 38.7039 2.04705 39.4078C1.89217 40.1117 1.97617 40.847 2.2858 41.4979C2.59543 42.1488 3.11307 42.6782 3.75712 43.0027C4.40118 43.3272 5.135 43.4283 5.84289 43.29C5.51513 43.9768 5.40596 44.7474 5.53011 45.4981C5.65426 46.2488 6.00575 46.9434 6.53722 47.4883C7.06868 48.0332 7.75457 48.4022 8.50242 48.5456C9.25028 48.689 10.0241 48.5998 10.7197 48.2902C10.493 49.2932 10.589 50.3421 10.994 51.2874C11.399 52.2328 12.0924 53.0262 12.9752 53.5546C13.8581 54.083 14.8854 54.3194 15.9107 54.2302C16.936 54.1409 17.9069 53.7305 18.685 53.0574C19.009 54.7487 19.9195 56.2717 21.2563 57.3584C22.5932 58.4452 24.2708 59.0261 25.994 58.9991C27.7172 58.972 29.3757 58.3387 30.6778 57.2106C31.9798 56.0824 32.842 54.5316 33.1126 52.831C33.862 53.5742 34.832 54.0549 35.8776 54.2014C36.9232 54.3478 37.9881 54.152 38.913 53.6433C39.838 53.1346 40.5732 52.3404 41.0087 51.3794C41.4442 50.4184 41.5565 49.3424 41.3289 48.3123C42.0244 48.6094 42.7938 48.688 43.535 48.5376C44.2763 48.3872 44.9541 48.0149 45.4784 47.4702C46.0026 46.9255 46.3485 46.2343 46.4701 45.4884C46.5916 44.7425 46.4829 43.9774 46.1586 43.2947C46.6016 43.3761 47.0568 43.3644 47.495 43.2602C47.9332 43.1561 48.3449 42.9618 48.7038 42.6898C49.0627 42.4178 49.3608 42.074 49.5793 41.6804C49.7978 41.2868 49.9317 40.8521 49.9726 40.4038C50.0135 39.9556 49.9604 39.5038 49.8168 39.0773C49.6731 38.6507 49.442 38.2587 49.1383 37.9264C48.8345 37.594 48.4648 37.3286 48.0526 37.147C47.6404 36.9654 47.1952 36.8719 46.7448 36.872ZM5.22714 41.5243C4.94744 41.5243 4.67402 41.4414 4.44147 41.2861C4.20892 41.1308 4.02768 40.9102 3.92066 40.652C3.81363 40.3938 3.78564 40.1097 3.84022 39.8356C3.89479 39.5615 4.02948 39.3097 4.22726 39.1121C4.42504 38.9145 4.67703 38.7799 4.95135 38.7254C5.22568 38.6708 5.51003 38.6988 5.76845 38.8057C6.02686 38.9127 6.24774 39.0938 6.40316 39.3261C6.55857 39.5585 6.64154 39.8316 6.64158 40.1111C6.64122 40.4858 6.49212 40.845 6.22697 41.11C5.96182 41.3749 5.60213 41.5239 5.22714 41.5243ZM9.20694 46.786C8.83152 46.786 8.46453 46.6748 8.15236 46.4664C7.8402 46.2581 7.59689 45.9619 7.4532 45.6154C7.30951 45.2688 7.2719 44.8875 7.34512 44.5196C7.41834 44.1517 7.5991 43.8138 7.86455 43.5485C8.13 43.2833 8.46821 43.1027 8.83641 43.0295C9.20461 42.9563 9.58626 42.9938 9.93311 43.1374C10.2799 43.2809 10.5764 43.524 10.785 43.8358C10.9935 44.1477 11.1049 44.5144 11.1049 44.8895C11.1043 45.3923 10.9042 45.8743 10.5484 46.2298C10.1926 46.5854 9.71014 46.7854 9.20694 46.786ZM15.4904 52.4226C14.8846 52.4226 14.2924 52.2431 13.7887 51.9069C13.285 51.5706 12.8924 51.0926 12.6606 50.5334C12.4288 49.9742 12.3681 49.3589 12.4863 48.7652C12.6045 48.1716 12.8962 47.6263 13.3246 47.1983C13.7529 46.7703 14.2987 46.4788 14.8929 46.3607C15.487 46.2426 16.1029 46.3032 16.6626 46.5349C17.2222 46.7665 17.7006 47.1587 18.0372 47.662C18.3738 48.1653 18.5534 48.757 18.5534 49.3623C18.5525 50.1736 18.2295 50.9515 17.6552 51.5253C17.081 52.099 16.3025 52.4217 15.4904 52.4226ZM25.8786 57.1738C24.7913 57.1738 23.7283 56.8517 22.8242 56.2481C21.9201 55.6445 21.2154 54.7866 20.7992 53.7829C20.3831 52.7792 20.2742 51.6747 20.4863 50.6091C20.6985 49.5436 21.2221 48.5648 21.991 47.7966C22.7598 47.0283 23.7395 46.5052 24.8059 46.2932C25.8724 46.0813 26.9778 46.1901 27.9824 46.6058C28.987 47.0216 29.8457 47.7257 30.4497 48.6291C31.0538 49.5324 31.3762 50.5945 31.3762 51.6809C31.3746 53.1372 30.7949 54.5334 29.7642 55.5632C28.7336 56.593 27.3362 57.1721 25.8786 57.1738ZM36.5536 52.4226C35.9478 52.4227 35.3556 52.2432 34.8519 51.9069C34.3481 51.5707 33.9555 51.0927 33.7237 50.5335C33.4918 49.9743 33.4311 49.359 33.5493 48.7653C33.6675 48.1716 33.9592 47.6263 34.3875 47.1983C34.8159 46.7703 35.3617 46.4788 35.9558 46.3607C36.55 46.2426 37.1659 46.3032 37.7256 46.5348C38.2853 46.7665 38.7636 47.1587 39.1002 47.662C39.4368 48.1653 39.6164 48.757 39.6164 49.3623C39.6156 50.1736 39.2926 50.9515 38.7184 51.5252C38.1442 52.099 37.3657 52.4217 36.5536 52.4226ZM42.7929 46.786C42.4175 46.7859 42.0505 46.6747 41.7384 46.4663C41.4263 46.2579 41.183 45.9617 41.0394 45.6151C40.8958 45.2686 40.8582 44.8873 40.9315 44.5194C41.0047 44.1515 41.1855 43.8136 41.451 43.5484C41.7164 43.2832 42.0546 43.1026 42.4228 43.0294C42.791 42.9563 43.1727 42.9938 43.5195 43.1374C43.8663 43.2809 44.1627 43.524 44.3713 43.8359C44.5798 44.1478 44.6912 44.5144 44.6912 44.8895C44.6906 45.3923 44.4904 45.8744 44.1345 46.2299C43.7787 46.5855 43.2962 46.7855 42.7929 46.786ZM46.7446 41.5243C46.4649 41.5243 46.1915 41.4414 45.959 41.2861C45.7264 41.1308 45.5452 40.9102 45.4381 40.652C45.3311 40.3938 45.3031 40.1097 45.3577 39.8356C45.4123 39.5615 45.547 39.3097 45.7447 39.1121C45.9425 38.9145 46.1945 38.7799 46.4688 38.7254C46.7432 38.6708 47.0275 38.6988 47.2859 38.8057C47.5443 38.9127 47.7652 39.0938 47.9206 39.3261C48.076 39.5585 48.159 39.8316 48.1591 40.1111C48.1587 40.4858 48.0096 40.845 47.7444 41.11C47.4793 41.3749 47.1196 41.5239 46.7446 41.5243Z" fill="#D4AF37"/>
</svg>
